STARTFONT 2.1
FONT -Misc-Fixed-Medium-R-Normal--24-230-75-75-C-240-ISO10646-1
SIZE 23 75 75
FONTBOUNDINGBOX 24 24 0 -2
COMMENT "Generated by fontforge, http://fontforge.sourceforge.net"
STARTPROPERTIES 19
FOUNDRY "Misc"
FAMILY_NAME "Fixed"
WEIGHT_NAME "Medium"
SLANT "R"
SETWIDTH_NAME "Normal"
ADD_STYLE_NAME ""
PIXEL_SIZE 24
POINT_SIZE 230
RESOLUTION_X 75
RESOLUTION_Y 75
SPACING "C"
AVERAGE_WIDTH 240
CHARSET_REGISTRY "ISO10646"
CHARSET_ENCODING "1"
COPYRIGHT "from JIS X 9052-1983, by permission to use"
WEIGHT 10
RESOLUTION 103
X_HEIGHT 12
QUAD_WIDTH 24
ENDPROPERTIES
CHARS 2436
STARTCHAR uni3406
ENCODING 13318
SWIDTH 1000 0
DWIDTH 24 0
BBX 18 24 2 -2
BITMAP
000600
087F00
0FE000
0C0000
0C0300
0FFF80
0C0300
0C0300
0FFF00
0C0300
0C0300
0FFF00
0C0300
0C0000
0C0180
0FFFC0
180180
180180
180180
300180
300380
600300
401F00
800600
ENDCHAR
STARTCHAR uni342C
ENCODING 13356
SWIDTH 1000 0
DWIDTH 24 0
BBX 24 24 0 -2
BITMAP
001C00
001800
001806
FFFFFF
006000
006100
00C0C0
008070
1FFFB8
0FE018
080018
000000
039CE0
0318C0
0318C0
0318C0
0318C0
0318C0
0318C0
0618C4
0618C4
0C18C6
1818FE
60007C
ENDCHAR
STARTCHAR uni342E
ENCODING 13358
SWIDTH 1000 0
DWIDTH 24 0
BBX 24 24 0 -2
BITMAP
001C00
001800
001806
FFFFFF
020000
0380C0
070030
0CE39C
30C30E
CFFFF6
00C300
00C300
0FFFF0
00C300
00C306
FFFFFF
01C410
038238
0F0360
3B0180
C30CE0
03F07F
3F801E
0E0006
ENDCHAR
STARTCHAR uni3468
ENCODING 13416
SWIDTH 1000 0
DWIDTH 24 0
BBX 24 24 0 -2
BITMAP
040000
074018
067FFC
066018
0C6018
0C6018
187FF8
180000
383800
383018
583FFC
986300
184300
188300
180306
1BFFFF
180680
180680
180C40
180C60
181838
18301F
18600E
198006
ENDCHAR
STARTCHAR uni346A
ENCODING 13418
SWIDTH 1000 0
DWIDTH 24 0
BBX 24 24 0 -2
BITMAP
040380
070300
060306
06FFFF
0C1060
0C1060
1808C0
180D80
380700
380DE0
58307F
99C00E
183030
183030
183FF0
183030
183030
183030
183FF0
183030
186030
186030
18C030
1B0030
ENDCHAR
STARTCHAR uni3492
ENCODING 13458
SWIDTH 1000 0
DWIDTH 24 0
BBX 24 24 0 -2
BITMAP
080CC0
0E8CC8
0C4CCE
0C6CCC
0C6CD0
180CC0
19FFFE
182020
381830
380840
58FFFC
980300
180300
18FFFC
180300
180306
1BFFFF
180780
180F40
180F60
181B38
18331F
18C30E
1B0306
ENDCHAR
STARTCHAR uni34BC
ENCODING 13500
SWIDTH 1000 0
DWIDTH 24 0
BBX 24 24 0 -2
BITMAP
01C1C0
018180
018186
FFFFFF
018180
018180
01FF80
001800
20180C
3FFFFE
30180C
31188C
3F9FCC
31188C
31188C
3399CC
32994C
36DB6C
34FA7C
385C2C
30180C
30180C
30187C
300018
ENDCHAR
STARTCHAR uni34C1
ENCODING 13505
SWIDTH 1000 0
DWIDTH 24 0
BBX 24 12 0 5
BITMAP
100000
100006
1FFFFF
300006
308386
60E304
61C308
038302
070302
0C03FF
3001FE
C00000
ENDCHAR
STARTCHAR uni34C7
ENCODING 13511
SWIDTH 1000 0
DWIDTH 24 0
BBX 24 24 0 -2
BITMAP
000018
40007C
3003E0
18FF00
1C0300
0C0300
000300
000300
020300
020300
040306
05FFFF
080680
080680
180680
300440
F00C40
700C60
300820
301830
301018
38201F
18400E
018006
ENDCHAR
STARTCHAR uni351F
ENCODING 13599
SWIDTH 1000 0
DWIDTH 24 0
BBX 24 24 0 -2
BITMAP
2601C0
360180
664180
7FE198
460FFC
860198
064198
3FE518
06031A
06019A
0672CA
1F84CA
FC1806
600007
003803
003030
1FFFF8
003030
006030
006030
00C030
018060
0603E0
3800C0
ENDCHAR
STARTCHAR uni355D
ENCODING 13661
SWIDTH 1000 0
DWIDTH 24 0
BBX 24 24 0 -2
BITMAP
001C00
001800
001806
FFFFFF
001800
001800
081830
0FFFF8
0C0030
0C0030
0C0030
0FFFF0
0C0030
000000
000060
1FFFF0
0201C0
018380
00EE00
003800
006F00
01C3F0
0E00FF
F0001E
ENDCHAR
STARTCHAR uni355E
ENCODING 13662
SWIDTH 1000 0
DWIDTH 24 0
BBX 24 24 0 -2
BITMAP
403000
7FF806
6037FF
603106
603106
603106
7FF106
60308C
60008C
61C08C
618088
699058
6FF858
699050
699030
699020
699070
499050
4990D8
899098
89B18C
09930F
018606
019806
ENDCHAR
STARTCHAR uni3563
ENCODING 13667
SWIDTH 1000 0
DWIDTH 24 0
BBX 24 24 0 -2
BITMAP
000100
007F80
020100
038100
030080
030080
060040
060060
0C0030
08001C
10000F
240066
47FFF2
860060
060060
060060
060060
060060
060060
060060
060060
07FFE0
060060
060000
ENDCHAR
STARTCHAR uni356E
ENCODING 13678
SWIDTH 1000 0
DWIDTH 24 0
BBX 23 24 1 -2
BITMAP
001040
001C30
001818
86300C
FF300C
C62006
C64026
C64830
C68830
C61830
C63460
C61460
C60460
C602C0
C602C0
FE0380
C60100
C00380
0006C0
000C60
001870
003038
00C01E
03000C
ENDCHAR
STARTCHAR uni35A6
ENCODING 13734
SWIDTH 1000 0
DWIDTH 24 0
BBX 23 24 1 -2
BITMAP
000380
000300
00030C
8DFFFE
FE0300
CC4318
CC7FFC
CC6318
CC6318
CC6318
CC7FF8
CC6318
CC6318
CC6318
CC7FF8
FC6798
CC0F40
C00F40
001B20
003330
006318
00C31E
03030C
000300
ENDCHAR
STARTCHAR uni35A8
ENCODING 13736
SWIDTH 1000 0
DWIDTH 24 0
BBX 23 24 1 -2
BITMAP
001C00
0018C0
001FE0
8C30C0
FE30C0
CC30C0
CC7F80
CC6180
CC018C
CDFFFE
CC0600
CC8610
CC6618
CC3730
CC3740
FC0780
CC0680
C01EC0
007660
03C67C
018638
010618
003E00
000C00
ENDCHAR
STARTCHAR uni35C5
ENCODING 13765
SWIDTH 1000 0
DWIDTH 24 0
BBX 23 24 1 -2
BITMAP
00710C
0061FE
00618C
8C618C
FE6D8C
CDFF8C
CC618C
CC61FC
CC618C
CC618C
CC618C
CC618C
CDF98C
CD99FC
CD998C
FD998C
CD998C
C1998C
01998C
01FB0C
019B0C
01820C
00047C
000818
ENDCHAR
STARTCHAR uni35DA
ENCODING 13786
SWIDTH 1000 0
DWIDTH 24 0
BBX 23 24 1 -2
BITMAP
00000C
03FFFE
001980
8C1980
FD1998
CDFFFC
CD9998
CD9998
CD9998
CD9998
CDFFF8
CD8618
CC0600
CC060C
CFFFFE
FC1F00
CC1E80
C03640
003660
006630
00C638
01861E
06060C
000600
ENDCHAR
STARTCHAR uni35F4
ENCODING 13812
SWIDTH 1000 0
DWIDTH 24 0
BBX 23 24 1 -2
BITMAP
010D0C
01FDFE
018D8C
8D8D8C
FDFDFC
CD8D8C
CD8D8C
CD8D8C
CDFDFC
CD800C
CD800C
CD90CC
CD9FEC
CD98CC
CD98CC
FD9FCC
CD98CC
C198CC
019FCC
0198CC
01800C
01800C
01807C
018018
ENDCHAR
STARTCHAR uni3605
ENCODING 13829
SWIDTH 1000 0
DWIDTH 24 0
BBX 23 24 1 -2
BITMAP
00C600
00C608
01853C
990D00
FA0980
DC08C0
D8D0C0
D8D004
D9AF7E
D98618
DB8618
DD8798
D9BFD8
D98618
D98698
F9A6D8
D996D8
C19E98
019F18
018618
0187D8
01BE18
01B838
01A030
ENDCHAR
STARTCHAR uni364A
ENCODING 13898
SWIDTH 1000 0
DWIDTH 24 0
BBX 24 24 0 -2
BITMAP
001018
1C1FFC
181800
181800
181830
181FF8
1B1800
FF9800
181830
181FF8
181800
181800
181806
19FFFF
181908
19990C
1E1888
F81890
601840
401860
001B30
00FC3E
00701C
00400C
ENDCHAR
STARTCHAR uni3691
ENCODING 13969
SWIDTH 1000 0
DWIDTH 24 0
BBX 24 24 0 -2
BITMAP
000030
1FFFF8
000030
000030
000036
FFFFFF
000030
000030
000030
1FFFF0
000030
001C00
001800
001806
FFFFFF
003400
006200
006300
00C180
0180E0
030078
06003F
18001E
E00006
ENDCHAR
STARTCHAR uni3696
ENCODING 13974
SWIDTH 1000 0
DWIDTH 24 0
BBX 24 24 0 -2
BITMAP
002000
003800
083030
0FFFF8
0C0030
0C0030
0C0030
0FFFF0
0C0030
0C0030
0C0030
0FFFF0
0C1C30
001800
001806
FFFFFF
003400
006200
006300
00C180
0180E0
07007F
1C001E
E00006
ENDCHAR
STARTCHAR uni3699
ENCODING 13977
SWIDTH 1000 0
DWIDTH 24 0
BBX 24 24 0 -2
BITMAP
070000
060000
063206
7FFBFF
063306
063306
0C3306
0C7306
186306
1863FE
33E306
60C000
801C00
001800
001806
FFFFFF
003400
006200
006300
00C180
0180E0
07007F
1C001E
E00006
ENDCHAR
STARTCHAR uni36CF
ENCODING 14031
SWIDTH 1000 0
DWIDTH 24 0
BBX 24 24 0 -2
BITMAP
1C01D8
18018C
18018C
180180
180186
1B7FFF
FF8180
330180
332188
33118E
3319CC
3319C8
6219D0
6201A0
6601A0
6605A0
D40990
CC1998
0E319C
1B718F
13618E
202186
400F80
800300
ENDCHAR
STARTCHAR uni3761
ENCODING 14177
SWIDTH 1000 0
DWIDTH 24 0
BBX 24 24 0 -2
BITMAP
001C00
201800
201806
7FFFFF
600006
C00004
C00C08
3FFE00
0C6000
0C600C
0C6FFE
0FE20C
0C620C
0C6208
0C6118
0FE110
0C60B0
0C6060
0C6040
0FE0E0
7E61B0
38631C
20660F
006806
ENDCHAR
STARTCHAR uni3762
ENCODING 14178
SWIDTH 1000 0
DWIDTH 24 0
BBX 23 24 1 -2
BITMAP
003800
203000
20300C
7FFFFE
60000C
C00788
C07FD0
1FF000
003000
103060
1FFFF0
183060
183060
1FFFE0
003000
403018
7FFFFC
603018
603418
603318
67FD98
63C198
620078
600030
ENDCHAR
STARTCHAR uni376B
ENCODING 14187
SWIDTH 1000 0
DWIDTH 24 0
BBX 24 24 0 -2
BITMAP
001C00
201800
201806
7FFFFF
600006
C00004
C30E00
3F8C30
331FF8
321860
3634C0
34C300
340780
320CF0
33303F
33EFCE
332000
373300
367FF8
304300
309FF8
300306
31FFFF
300000
ENDCHAR
STARTCHAR uni376C
ENCODING 14188
SWIDTH 1000 0
DWIDTH 24 0
BBX 24 24 0 -2
BITMAP
0700E0
4600C0
4660C0
7FF0C0
C060CC
C64FFE
06C0C0
07E0C0
7E00C0
0600C0
7FE0C0
0600C6
060FFF
FFF1A0
0601A0
0601A0
40C330
7FE310
60C218
60C618
60C40C
60CC0F
7FC806
60D002
ENDCHAR
STARTCHAR uni3775
ENCODING 14197
SWIDTH 1000 0
DWIDTH 24 0
BBX 24 24 0 -2
BITMAP
040060
07FFF0
060060
060060
07FFE0
060060
060060
060060
07FFE0
060060
00000C
3FFFFE
000000
000180
000186
FFFFFF
000180
040180
030180
018180
00C180
00C180
000F80
000300
ENDCHAR
STARTCHAR uni37C1
ENCODING 14273
SWIDTH 1000 0
DWIDTH 24 0
BBX 23 23 1 -2
BITMAP
1C2018
183FFC
183000
183000
DB3000
DB3018
DB37FC
DB30C0
DB30C0
DB30C0
DB30C0
DB30CC
DB3FFE
DB30C0
DB30C0
FF30C0
C330C0
C030C0
0060C0
0060C0
0040C0
0080C0
0100C0
ENDCHAR
STARTCHAR uni37E8
ENCODING 14312
SWIDTH 1000 0
DWIDTH 24 0
BBX 23 24 1 -2
BITMAP
000380
1C730E
18630C
18630C
18630C
DB630C
DB7FFC
DB600C
DB0000
DB000C
DBFFFE
DB0300
DB0200
DB440C
DB7FFE
DB648C
FF648C
C3648C
C0648C
00648C
00648C
00648C
0064BC
006018
ENDCHAR
STARTCHAR uni37F4
ENCODING 14324
SWIDTH 1000 0
DWIDTH 24 0
BBX 23 24 1 -2
BITMAP
000400
1C0700
180600
184818
187FFC
DB6218
DB6218
DB6218
DB7FF8
DB6218
DB6218
DB6218
DB7FF8
DB0190
DB1198
DB1D90
FF19A4
C319A6
C019FA
0031A0
003184
006186
00C1FE
0300FC
ENDCHAR
STARTCHAR uni37FD
ENCODING 14333
SWIDTH 1000 0
DWIDTH 24 0
BBX 23 24 1 -2
BITMAP
000018
1CFFFC
180480
180480
184498
DB7FFC
DB6498
DB6498
DB6498
DB6498
DB7FF8
DB6018
DB0000
DB3FF0
DB0000
DB000C
FFFFFE
C30300
C02300
003320
006318
00430C
009F0C
000600
ENDCHAR
STARTCHAR uni3800
ENCODING 14336
SWIDTH 1000 0
DWIDTH 24 0
BBX 22 24 1 -2
BITMAP
003000
086180
0FFFC0
0C0180
0FFF80
0C0180
0FFF80
0C0030
0FFFF8
0C0000
0FFFFC
200418
244318
463138
C61030
C001F0
003860
70301C
603018
603018
603018
603018
7FFFF8
600018
ENDCHAR
STARTCHAR uni382F
ENCODING 14383
SWIDTH 1000 0
DWIDTH 24 0
BBX 21 23 2 -2
BITMAP
8000C0
FFFFE0
C000C0
C000C0
C000C0
C000C0
C000C0
FFFFC0
C000C0
C000C0
C00000
C00000
C00030
FFFFF8
C00030
C00030
C00030
C00030
C00030
C00030
FFFFF0
C00030
C00000
ENDCHAR
STARTCHAR uni3836
ENCODING 14390
SWIDTH 1000 0
DWIDTH 24 0
BBX 23 24 1 -2
BITMAP
1C0700
180600
182460
183FF0
9B3060
FFB060
DB3060
DB3060
DB3060
DB3060
DB3060
DB3060
DB3060
DB3060
DB3060
DF3060
DA3060
D83060
186064
186064
18C064
188066
19007E
1A003C
ENDCHAR
STARTCHAR uni3840
ENCODING 14400
SWIDTH 1000 0
DWIDTH 24 0
BBX 24 24 0 -2
BITMAP
001C00
0218C0
079830
0F181C
1C180E
301807
601803
A0180C
3FFFFE
30180C
30180C
30180C
311A0C
31D98C
3198CC
3318EC
33186C
32186C
34180C
30180C
30180C
30180C
30187C
301818
ENDCHAR
STARTCHAR uni385C
ENCODING 14428
SWIDTH 1000 0
DWIDTH 24 0
BBX 23 24 1 -2
BITMAP
1C1000
181C00
181B18
181FBC
9B3298
FF2290
DB5AE0
DB8C40
DB6460
DB2838
DB101E
DB2FCC
DBC000
DB0000
DB0018
DF7FFC
DA0300
D82300
183B40
183330
186318
18C31C
191F0C
180600
ENDCHAR
STARTCHAR uni3861
ENCODING 14433
SWIDTH 1000 0
DWIDTH 24 0
BBX 23 24 1 -2
BITMAP
38800C
30FFFE
30C000
30C000
B6C10E
FEDF8C
B6C00C
B6C00C
B6D30C
B6DFFE
B6DB0C
B6DB0C
B6DB4C
B6DF6C
B6DB6C
BEC00C
B4D30C
B0DB0C
308A0C
308A0C
3102CC
317F0C
323C3C
342018
ENDCHAR
STARTCHAR uni38FA
ENCODING 14586
SWIDTH 1000 0
DWIDTH 24 0
BBX 22 17 1 1
BITMAP
00E000
00C000
00C000
00C000
00C000
00C840
08C420
08C630
10C318
30C318
60C18C
E0C18C
C0C18C
00C000
00C000
07C000
018000
ENDCHAR
STARTCHAR uni3917
ENCODING 14615
SWIDTH 1000 0
DWIDTH 24 0
BBX 24 24 0 -2
BITMAP
003800
003000
003018
3FFFFC
006000
006000
1FFFF8
00C200
008206
FFFFFF
018180
0300C0
023860
063038
0C301F
18300E
313446
C13230
023318
06319C
1C318C
18318C
01F000
006000
ENDCHAR
STARTCHAR uni391A
ENCODING 14618
SWIDTH 1000 0
DWIDTH 24 0
BBX 24 24 0 -2
BITMAP
0E0800
0C0E0C
0C1DFE
0C1800
0E3000
2D2400
2D8700
2D8600
6C0C06
6C0DFF
CC1818
CC1818
0C3818
0C5818
0C1818
0C1818
0C1818
0C1818
0C1818
0C1818
0C1818
0C1818
0C18F8
0C1830
ENDCHAR
STARTCHAR uni396F
ENCODING 14703
SWIDTH 1000 0
DWIDTH 24 0
BBX 24 24 0 -2
BITMAP
000060
081FF0
0FF020
1C1818
180C0C
30080C
4FFFF0
001800
3FFFFC
000000
0FFFE0
000066
FFFFFF
000060
000060
0FFFE0
000060
01D000
118C10
11860C
318646
618043
61FFE3
00FFC0
ENDCHAR
STARTCHAR uni3A6E
ENCODING 14958
SWIDTH 1000 0
DWIDTH 24 0
BBX 24 24 0 -2
BITMAP
1C0500
182DDE
183106
183106
183DDE
1B3046
FFB046
183D5E
183146
183146
187FFF
1B0C10
3C1C08
F8186C
D831F7
186F82
188180
183FFC
180180
18FFFF
180180
180180
F80F80
300300
ENDCHAR
STARTCHAR uni3A73
ENCODING 14963
SWIDTH 1000 0
DWIDTH 24 0
BBX 24 24 0 -2
BITMAP
1C2020
183434
186666
184C4C
18FEFE
19C9C8
FFC8C8
1AFEFE
18C8C8
18C8C8
18FEFE
1BC8C8
3CC8C8
F8FFFF
D8C0C0
180018
187FFC
181030
180860
1804C0
180300
1806E0
F8183E
30E00C
ENDCHAR
STARTCHAR uni3AD6
ENCODING 15062
SWIDTH 1000 0
DWIDTH 24 0
BBX 24 24 0 -2
BITMAP
003800
003000
003000
003030
003FF8
003000
003000
003000
003006
FFFFFF
000000
000000
040060
07FFF0
060060
060060
060060
07FFE0
060060
060060
060060
060060
07FFE0
060060
ENDCHAR
STARTCHAR uni3AD7
ENCODING 15063
SWIDTH 1000 0
DWIDTH 24 0
BBX 24 24 0 -2
BITMAP
080030
0FFFF8
0C0030
0C0030
0C0030
0FFFF0
0C0030
0C0030
0C0030
0FFFF0
000000
0000C0
0FFFE0
0001C0
000700
001C00
001806
FFFFFF
001800
001800
001800
001800
00F800
003000
ENDCHAR
STARTCHAR uni3AEA
ENCODING 15082
SWIDTH 1000 0
DWIDTH 24 0
BBX 24 24 0 -2
BITMAP
003800
003000
003018
3FFFFC
006000
006000
1FFFF8
00C200
008200
018106
FFFFFF
0300C0
060060
0C0030
1F7FFC
36606F
C66066
066060
067FE0
066060
066060
066060
067FE0
066060
ENDCHAR
STARTCHAR uni3B0E
ENCODING 15118
SWIDTH 1000 0
DWIDTH 24 0
BBX 24 24 0 -2
BITMAP
100018
1FFFFC
180018
180018
1FFFF8
180018
180018
1FFFF8
1A0098
0300C0
060180
248920
19C670
0F03C0
060190
0C4308
7FEFFC
3C678C
20640C
088210
10810C
30C186
E0C187
C0C183
ENDCHAR
STARTCHAR uni3B1A
ENCODING 15130
SWIDTH 1000 0
DWIDTH 24 0
BBX 23 24 1 -2
BITMAP
007080
0060E0
9864C0
FFFEC0
9840C0
9860CC
9840FE
988890
9BFD9C
99CD18
F90118
980298
99F898
991850
991850
99F870
991820
991820
F9F870
991850
8118D8
01189E
01790C
01120C
ENDCHAR
STARTCHAR uni3B1C
ENCODING 15132
SWIDTH 1000 0
DWIDTH 24 0
BBX 24 24 0 -2
BITMAP
00C006
FFEFFF
0C00C0
088088
10C10C
FF6FF6
706786
4E04E0
0CC0CC
FFEFFE
0C00C0
0CE0C6
FF1FFF
780000
440060
07FFF0
060060
060060
07FFE0
060060
060060
060060
07FFE0
060060
ENDCHAR
STARTCHAR uni3B6D
ENCODING 15213
SWIDTH 1000 0
DWIDTH 24 0
BBX 24 24 0 -2
BITMAP
1C8607
18FF06
18C676
18C666
18C666
1AC666
FFC666
18C666
18FE66
386066
3C6066
3A6666
7B7F66
5B6666
586666
986666
986666
186606
18C606
18CE06
18CC06
188C06
19BC3E
1B180C
ENDCHAR
STARTCHAR uni3B77
ENCODING 15223
SWIDTH 1000 0
DWIDTH 24 0
BBX 24 24 0 -2
BITMAP
0E0000
0C1006
0C1FFF
0C18C6
0C18C6
0D98C6
FFDFFE
0C18C6
0C18C6
1C18C6
1E1FFE
1D1806
3D81C0
2D8180
2C0186
4C3FFF
4C0186
8C0186
0C0306
0C0306
0C060E
0C0C0C
0C187C
0CE018
ENDCHAR
STARTCHAR uni3B87
ENCODING 15239
SWIDTH 1000 0
DWIDTH 24 0
BBX 24 24 0 -2
BITMAP
1C0018
18007C
1807E0
187F00
180300
1A0306
FF7FFF
180640
180440
380C20
3C0830
3A101C
7B270F
5B4606
588602
990600
982688
182644
186646
186663
18C663
18C663
183E00
180C00
ENDCHAR
STARTCHAR uni3B88
ENCODING 15240
SWIDTH 1000 0
DWIDTH 24 0
BBX 24 24 0 -2
BITMAP
1C0380
180300
180300
18030C
18FFFE
1A0680
FF0440
180C60
180830
38101C
3C200F
3A5FE6
7B0000
5B0000
580018
987FFC
980300
182320
183B18
18330C
186306
18C306
190F00
180600
ENDCHAR
STARTCHAR uni3B8D
ENCODING 15245
SWIDTH 1000 0
DWIDTH 24 0
BBX 22 24 1 -2
BITMAP
040300
030380
030418
FFFFFC
000000
3FC738
30C630
3CC630
32C630
3CC630
32C030
30C1F0
31C060
00B800
003000
003018
FFFFFC
007800
00F400
01B300
0331C0
0C30FC
303078
C03018
ENDCHAR
STARTCHAR uni3BA4
ENCODING 15268
SWIDTH 1000 0
DWIDTH 24 0
BBX 24 24 0 -2
BITMAP
101800
101806
3FFFFF
318184
630188
661982
0C34FE
306300
0181C0
060078
1BFFDF
E300C6
0300C0
0300C0
03FFC0
001800
001806
FFFFFF
007A00
00D900
0198C0
061870
18183F
E0180E
ENDCHAR
STARTCHAR uni3BCD
ENCODING 15309
SWIDTH 1000 0
DWIDTH 24 0
BBX 24 24 0 -2
BITMAP
1C0E70
186C62
184C7F
184CE2
184CD6
1A4D9C
FF4D4C
184E78
184C18
387C30
3C4C60
3A0CCC
7B0D0C
5B0FFF
58FC0C
984C8C
984C4C
184C6C
184C6C
18CC0C
188C0C
188C0C
190C7C
180C18
ENDCHAR
STARTCHAR uni3BF0
ENCODING 15344
SWIDTH 1000 0
DWIDTH 24 0
BBX 24 24 0 -2
BITMAP
1C200C
183FFE
18324C
18324C
183FFC
1A0180
FF0186
18FFFF
180100
380918
3C0FFC
3A6C18
7B6C18
5B6FF8
586C18
986C18
986FF8
186C18
186C18
186FF8
186000
186006
187FFF
186000
ENDCHAR
STARTCHAR uni3C26
ENCODING 15398
SWIDTH 1000 0
DWIDTH 24 0
BBX 24 24 0 -2
BITMAP
070200
060380
060300
060300
06C300
7FE606
0607FF
0604C6
0604C4
0608C8
0668C0
FFF0C0
0800C0
0E00C0
0C01A0
0C01A0
0881A0
084130
106310
11B218
FE361C
70040F
40080E
003006
ENDCHAR
STARTCHAR uni3CC3
ENCODING 15555
SWIDTH 1000 0
DWIDTH 24 0
BBX 24 24 0 -2
BITMAP
100E00
0C0C00
060C00
060C60
00FFF0
000C60
810C60
610C60
320C62
321862
041863
04307F
0C603E
098380
180300
180306
31FFFF
F00300
700300
300300
300300
300300
380300
180300
ENDCHAR
STARTCHAR uni3CD2
ENCODING 15570
SWIDTH 1000 0
DWIDTH 24 0
BBX 24 24 0 -2
BITMAP
100200
0C0380
060300
060300
000606
00FFFF
800640
600C40
320C20
321830
041218
04339C
0C230F
084706
188600
180600
300C20
F00C10
700818
30180C
3010FC
31FF86
38F806
188006
ENDCHAR
STARTCHAR uni3D11
ENCODING 15633
SWIDTH 1000 0
DWIDTH 24 0
BBX 24 24 0 -2
BITMAP
1001C0
0C0180
068186
06FFFF
00C010
00C81C
80C618
60C310
32C322
32FFFF
04C0C0
04C0C0
0CDCC7
08D8C6
18D8C6
18D8C6
30DFFE
F098C6
7098C6
318180
310180
310300
3A0600
181800
ENDCHAR
STARTCHAR uni3D1E
ENCODING 15646
SWIDTH 1000 0
DWIDTH 24 0
BBX 24 24 0 -2
BITMAP
10001C
0C03FE
06FF80
060204
004107
002186
813186
61318C
323008
320010
04E406
04C7FF
0CC606
08C606
18C606
18C606
30C7FE
F0C606
70C606
30C606
30C606
30C606
38C7FE
18C606
ENDCHAR
STARTCHAR uni3D64
ENCODING 15716
SWIDTH 1000 0
DWIDTH 24 0
BBX 24 24 0 -2
BITMAP
400C0C
31FEFE
182C2C
187C7C
00CCCC
011D1C
803C3C
606C6C
348C8C
340300
040306
0DFFFF
080300
083318
183318
186330
305328
F09BCC
711684
300640
300C60
301838
38601E
19800C
ENDCHAR
STARTCHAR uni3D9A
ENCODING 15770
SWIDTH 1000 0
DWIDTH 24 0
BBX 24 24 0 -2
BITMAP
400006
31FFFF
180CC0
180CC0
01FFFE
018CC6
818CC6
61FFFE
320000
320000
04CC86
05FEFF
0CCCC6
08FCC6
1830FE
19FEC6
31B6C6
F1B6FE
71FEC6
3030C6
33FF86
303186
38331E
18340C
ENDCHAR
STARTCHAR uni3DC0
ENCODING 15808
SWIDTH 1000 0
DWIDTH 24 0
BBX 23 24 1 -2
BITMAP
060180
044110
24E938
258960
6C1B00
4A1280
198660
30CC30
C05010
0000C0
FFFFE0
0000C0
01C0C0
0180C0
0180C0
0180C0
018CC0
7FFE60
018060
018064
018034
018036
01801E
01800C
ENDCHAR
STARTCHAR uni3DD4
ENCODING 15828
SWIDTH 1000 0
DWIDTH 24 0
BBX 24 24 0 -2
BITMAP
0E001C
0C01FE
0C3FC0
0C0104
0C1087
0C08C6
0C8CC6
2DCCCC
2D0C08
6E0010
6C3A06
CC33FF
CC3306
0C3306
0C3306
0C3306
0A33FE
193306
19B306
11B306
31B306
203306
4033FE
803306
ENDCHAR
STARTCHAR uni3E05
ENCODING 15877
SWIDTH 1000 0
DWIDTH 24 0
BBX 24 24 0 -2
BITMAP
1C2040
183870
183060
183F7F
182848
1A4484
5B0000
5B1846
5A307F
5C7F66
D86366
D86366
D87F66
186366
186366
147F66
120066
126466
336E66
237866
23626E
606264
407F60
803E60
ENDCHAR
STARTCHAR uni3E60
ENCODING 15968
SWIDTH 1000 0
DWIDTH 24 0
BBX 24 24 0 -2
BITMAP
0101C0
01C180
438186
23019F
1601F0
0C7F80
1C0180
360180
66398E
86318C
0F318C
0B318C
1B318C
13318C
23318C
433FFC
83318C
033180
030182
030182
070182
060183
3E01FF
0C00FE
ENDCHAR
STARTCHAR uni3E66
ENCODING 15974
SWIDTH 1000 0
DWIDTH 24 0
BBX 24 24 0 -2
BITMAP
020006
03BFFF
870306
460306
2C0306
180306
380306
6C0606
CC060E
0C0C0C
1E187C
166018
360000
261006
461FFF
861806
061806
061806
061806
061806
0E1806
0C1FFE
7C1806
181806
ENDCHAR
STARTCHAR uni3E68
ENCODING 15976
SWIDTH 1000 0
DWIDTH 24 0
BBX 24 24 0 -2
BITMAP
0201C0
038180
870180
460180
2C0180
184186
387FFF
6C6186
CC6186
0C6186
1E6186
166186
366186
267FFE
466186
866186
066186
066186
066186
066186
0E6186
0C7FFE
7C6006
186006
ENDCHAR
STARTCHAR uni3E83
ENCODING 16003
SWIDTH 1000 0
DWIDTH 24 0
BBX 24 24 0 -2
BITMAP
020E70
038C60
870C62
46FFFF
2C0C60
180C60
382000
6C3800
CC3006
0C3FFF
1E6006
164006
369FC6
2618C6
4618C6
8618C6
0618C6
061FC6
0618C6
061806
0E0006
0C000C
7C007C
180018
ENDCHAR
STARTCHAR uni3E94
ENCODING 16020
SWIDTH 1000 0
DWIDTH 24 0
BBX 24 24 0 -2
BITMAP
020060
0343F0
877F80
466410
2C430C
18C104
398020
6D7FF0
CC6060
0C6060
1E6068
167FFC
366018
266018
46601A
867FFF
066006
066046
064136
06D496
0E928E
0CB20C
7D30FC
190038
ENDCHAR
STARTCHAR uni3F57
ENCODING 16215
SWIDTH 1000 0
DWIDTH 24 0
BBX 23 24 1 -2
BITMAP
000380
000300
818300
FFC300
C98300
C98300
C98300
C98300
C98300
C98300
FF8680
C98680
C98680
C98680
C98440
C98C40
C98C40
FF8860
C19820
C01030
003038
00201E
00401C
01800C
ENDCHAR
STARTCHAR uni3F75
ENCODING 16245
SWIDTH 1000 0
DWIDTH 24 0
BBX 24 23 0 -1
BITMAP
000E00
000C00
080C06
0FFFFF
0C0000
8C0000
4C0700
6C0600
6C0600
0C0600
0C0600
0C0618
FDFFFC
6C0600
4C0600
0C0600
180600
180600
100600
300600
200600
400606
07FFFF
ENDCHAR
STARTCHAR uni3F77
ENCODING 16247
SWIDTH 1000 0
DWIDTH 24 0
BBX 24 23 0 -1
BITMAP
000E00
000C00
080C06
0FFFFF
0C0000
8C0700
4C0600
6C0600
6C0600
0C060C
0C361E
0FFF38
FC3760
6C6680
4C6680
0CC640
188660
190638
12061F
34060E
200602
403E00
000C00
ENDCHAR
STARTCHAR uni3FAE
ENCODING 16302
SWIDTH 1000 0
DWIDTH 24 0
BBX 24 23 0 -1
BITMAP
000E00
000C00
080C06
0FFFFF
0C0800
8C0E00
4C4C18
6C7FFC
6C6018
0C6018
0C7FF8
0C6018
FC6018
6C7FF8
4C0000
0C000C
19FFFE
180300
100318
30FFFC
200300
400306
03FFFF
ENDCHAR
STARTCHAR uni3FC9
ENCODING 16329
SWIDTH 1000 0
DWIDTH 24 0
BBX 24 24 0 -2
BITMAP
000E00
000C00
080C06
0FFFFF
0C0600
8CFFF8
4CC618
6CFFF8
6C0606
0FFFFF
0C0000
0CFFF8
FCC018
6CFFF8
4CC018
0CC018
18FFF8
18C018
10C018
30FFF8
201000
403870
00701C
01800C
ENDCHAR
STARTCHAR uni3FD7
ENCODING 16343
SWIDTH 1000 0
DWIDTH 24 0
BBX 24 24 0 -2
BITMAP
000E00
000C00
080C06
0FFFFF
0C0802
8C3DFF
4DE030
6C20A6
6C2CFF
0FFEC6
0C60C6
0CF8FE
FCACC6
6D26C6
4E26FE
0C00C6
18D8C6
18D8C6
10D8FE
319A40
219C74
4338E2
021183
040203
ENDCHAR
STARTCHAR uni4039
ENCODING 16441
SWIDTH 1000 0
DWIDTH 24 0
BBX 23 24 1 -2
BITMAP
000380
000300
8C0300
FE030C
CCFFFE
CC0300
CC0300
CC4320
FC7338
CC6330
CC6330
CC7328
CC5B64
FCDB46
CC8786
CD0680
CC0680
CC0CC0
FC0C40
CC1860
C03030
00603E
00C01C
03000C
ENDCHAR
STARTCHAR uni4058
ENCODING 16472
SWIDTH 1000 0
DWIDTH 24 0
BBX 23 24 1 -2
BITMAP
000200
000380
860718
FF0FFC
C61838
C63670
C6C2E0
C631C0
FE1380
C60600
C61C00
C67000
C61830
FE3FF8
C62300
C6430C
C7FFFE
C60300
FE0300
C6731C
C06318
006318
007FF8
006018
ENDCHAR
STARTCHAR uni4093
ENCODING 16531
SWIDTH 1000 0
DWIDTH 24 0
BBX 24 24 0 -2
BITMAP
20100C
381FFE
30180C
30180C
31980C
3FDFFC
6C180C
4C180C
8C180C
0C1FFC
0D980C
FFD80C
0C180C
0C180C
0C1FFC
0C0460
1A0760
198660
10CE62
30CC62
201862
403063
80607F
03803E
ENDCHAR
STARTCHAR uni4105
ENCODING 16645
SWIDTH 1000 0
DWIDTH 24 0
BBX 24 24 0 -2
BITMAP
001040
081C70
061860
0318C0
033880
003118
3FFFFC
006400
006400
00C206
FFFFFF
018180
0306C0
06FF70
0C003F
3000DE
C7FFE6
001800
021900
0398C0
071870
0C1838
30F818
003000
ENDCHAR
STARTCHAR uni4148
ENCODING 16712
SWIDTH 1000 0
DWIDTH 24 0
BBX 24 24 0 -2
BITMAP
001040
081C70
061860
0318C0
033880
003118
3FFFFC
006400
006400
00C206
FFFFFF
018180
0306C0
061F70
0CF83F
30181E
C01866
0FFFF0
003C00
007A00
00D980
0198E0
06187C
381818
ENDCHAR
STARTCHAR uni414F
ENCODING 16719
SWIDTH 1000 0
DWIDTH 24 0
BBX 24 24 0 -2
BITMAP
01A006
0FFFFF
FC3006
0C3006
0C3006
0C3FFE
0DB006
FFF030
0C30F8
0C3780
1C3180
1E318C
1D3FFE
3DB180
2DB180
2C3186
4C3FFF
4C6180
8C6180
0C4182
0CC182
0C8183
0D01FF
0C00FE
ENDCHAR
STARTCHAR uni4163
ENCODING 16739
SWIDTH 1000 0
DWIDTH 24 0
BBX 24 24 0 -2
BITMAP
030200
1F8380
F8230C
183FFE
18300C
18300C
1B3FFC
FFB00C
18300C
18300C
383FFC
3C0000
3A000C
7B7FFE
5B0180
580180
980198
983FFC
180180
180180
180180
180186
18FFFF
180000
ENDCHAR
STARTCHAR uni41B4
ENCODING 16820
SWIDTH 1000 0
DWIDTH 24 0
BBX 23 24 1 -2
BITMAP
003800
20300C
7FFFFE
618618
C18624
C30604
0CC3FC
318000
C3FF00
0E0600
3FFFE0
D83060
1FFFE0
183060
1FFFE0
003000
3FFFF0
303030
3FFFF0
303034
3FFFF4
003006
003FFE
001FFC
ENDCHAR
STARTCHAR uni41BF
ENCODING 16831
SWIDTH 1000 0
DWIDTH 24 0
BBX 24 24 0 -2
BITMAP
001C00
101806
3FFFFF
30C30C
60C312
618302
0601FE
180200
600380
072318
063FFC
663018
663FF8
663018
7E3FF8
663018
063FF8
FE0182
66FFFF
6603C0
4607B0
460D9C
86318F
86C186
ENDCHAR
STARTCHAR uni41E6
ENCODING 16870
SWIDTH 1000 0
DWIDTH 24 0
BBX 24 24 0 -2
BITMAP
080200
0E0380
1C6706
1FF7FF
320C80
218860
419060
001C00
001800
081830
0FFFF8
0C1830
0C1830
0C1830
0C1836
FFFFFF
003400
007200
006300
00E1C0
01C0F0
07007F
1C001E
E00006
ENDCHAR
STARTCHAR uni41EE
ENCODING 16878
SWIDTH 1000 0
DWIDTH 24 0
BBX 24 24 0 -2
BITMAP
080200
0E0380
1C6706
1FF7FF
320C80
218860
419060
040000
070038
0601FC
0C0FC0
0CF300
180300
180300
380300
580306
99FFFF
180300
180300
180300
180300
18030C
18FFFE
180000
ENDCHAR
STARTCHAR uni41F3
ENCODING 16883
SWIDTH 1000 0
DWIDTH 24 0
BBX 23 24 1 -2
BITMAP
100400
1C0700
38CE0C
3FEFFE
641900
4310C0
8324C0
00C300
00C130
7FFFF8
00C000
00C060
3FFFF0
00C000
00C018
FFFFFC
0060C0
0073E0
003F08
003C08
00EF08
0387FC
1C00FC
E00018
ENDCHAR
STARTCHAR uni4207
ENCODING 16903
SWIDTH 1000 0
DWIDTH 24 0
BBX 24 24 0 -2
BITMAP
080200
186606
1FF7FF
320C80
218860
409020
001C00
001818
001FFC
001800
081830
0FFFF8
0C0030
0C0030
0FFFF0
0C0030
0C0030
0FFFF0
0C1830
001806
FFFFFF
001800
001800
001800
ENDCHAR
STARTCHAR uni420E
ENCODING 16910
SWIDTH 1000 0
DWIDTH 24 0
BBX 24 24 0 -2
BITMAP
080200
186606
1FF7FF
320C80
218860
409020
0738E0
0630C6
FFFFFF
0630C0
0630C0
063FC0
060018
07FFFC
001800
001804
7FFFFE
007A00
00D900
0198C0
071878
1C181F
E01806
001800
ENDCHAR
STARTCHAR uni42C6
ENCODING 17094
SWIDTH 1000 0
DWIDTH 24 0
BBX 24 24 0 -2
BITMAP
080006
0E7FFF
0C0000
080000
92100C
639FFE
33180C
36180C
04180C
0A180C
11180C
FF9FFC
7D980C
4C180C
0C1800
4E1800
7D1800
6DB000
6DB000
4C2000
4C6000
8C4000
0C8000
0D0000
ENDCHAR
STARTCHAR uni42D6
ENCODING 17110
SWIDTH 1000 0
DWIDTH 24 0
BBX 24 24 0 -2
BITMAP
080380
0E0300
0C0318
083FFC
920318
638318
33031A
367FFF
040318
0A0318
110318
FFBFF8
7D8300
4C0300
0C0318
4E3FFC
7D0300
6D8300
6D8306
4C7FFF
4C0300
8C0300
0C0300
0C0300
ENDCHAR
STARTCHAR uni42DD
ENCODING 17117
SWIDTH 1000 0
DWIDTH 24 0
BBX 24 24 0 -2
BITMAP
080404
0E4207
0C2306
08310C
92118C
639988
331998
361810
040020
0A0400
110700
FF8600
7D8606
4C7FFF
0C0C30
4E0C30
7D1860
6D9860
6DB6C0
4C3180
4C0360
8C0638
0C181C
0CE00C
ENDCHAR
STARTCHAR uni4302
ENCODING 17154
SWIDTH 1000 0
DWIDTH 24 0
BBX 24 24 0 -2
BITMAP
082006
0E3FFF
0C3006
083006
923006
63BFFE
333000
36300C
043FFE
0A3180
113190
FFB108
7DB20C
4C3FF6
0C3706
4E34E0
7D60C0
6DE0CC
6D6FFE
4C40C0
4CC0C0
8C80C6
0D3FFF
0C0000
ENDCHAR
STARTCHAR uni432B
ENCODING 17195
SWIDTH 1000 0
DWIDTH 24 0
BBX 24 24 0 -2
BITMAP
084620
0E7F38
0C4830
084826
907E7F
644240
374280
367E0C
0C487E
0A4800
117F00
FF8000
7D9FF8
4C1008
0C1FF8
4E1008
7D1FF8
6D9008
6D9FF8
4C0662
4C0662
8C0C63
0C187F
0C603E
ENDCHAR
STARTCHAR uni4343
ENCODING 17219
SWIDTH 1000 0
DWIDTH 24 0
BBX 22 24 1 -2
BITMAP
002000
003800
007030
00FFF8
034070
0C20E0
7231C0
031700
013C00
01E000
7E0000
0C0060
1FFFF0
103000
203000
003018
FFFFFC
003000
003000
383038
303030
303030
3FFFF0
300030
ENDCHAR
STARTCHAR uni43EE
ENCODING 17390
SWIDTH 1000 0
DWIDTH 24 0
BBX 23 24 0 -2
BITMAP
230380
3F8300
33030C
333FFE
33030C
33030C
33030C
3F060C
33061C
330C18
3318F8
336030
330000
3F2008
33181E
330C38
330C40
330000
330000
230200
230C60
63781C
4F300E
862006
ENDCHAR
STARTCHAR uni43F0
ENCODING 17392
SWIDTH 1000 0
DWIDTH 24 0
BBX 24 24 0 -2
BITMAP
230000
3F800C
333FFE
33030C
33030C
33130C
330E0C
3F070C
33058C
330D9C
330818
331078
332030
3F0100
3300C0
330660
330668
331606
331603
233613
233613
636618
4F67F8
8603F0
ENDCHAR
STARTCHAR uni4408
ENCODING 17416
SWIDTH 1000 0
DWIDTH 24 0
BBX 24 24 0 -2
BITMAP
2300E0
3F80C0
3300C6
333FFF
330080
330080
33048C
3F07FE
33060C
33360C
3337FC
33360C
33360C
3F360C
3337FC
33360C
33360C
33360C
3337FC
23360C
233000
633006
4F3FFF
863000
ENDCHAR
STARTCHAR uni4417
ENCODING 17431
SWIDTH 1000 0
DWIDTH 24 0
BBX 24 24 0 -2
BITMAP
230380
3F8304
330307
330336
333FFC
33030C
330318
3F0330
330366
337FFF
3301B0
330318
330618
3F0FFE
333C0C
33CC0C
330C0C
330FFC
330C0C
230C0C
230C0C
630FFC
4F0C0C
860C0C
ENDCHAR
STARTCHAR uni441C
ENCODING 17436
SWIDTH 1000 0
DWIDTH 24 0
BBX 24 24 0 -2
BITMAP
231C30
3F99F8
331F80
331804
331806
331FFE
330FFC
3F0000
3307F8
333618
333618
3337F8
333618
3F3618
3337F8
333618
333618
3337F8
333006
233FFF
230400
630F1C
4F1C07
866003
ENDCHAR
STARTCHAR uni4422
ENCODING 17442
SWIDTH 1000 0
DWIDTH 24 0
BBX 24 24 0 -2
BITMAP
463800
7F3006
663FFF
666006
664306
66B336
663336
7E3FF6
660606
660C0C
66307C
660018
661C00
7E1806
663FFF
662006
664306
66B336
663336
463FF6
460606
460C0C
9E187C
8C6018
ENDCHAR
STARTCHAR uni4476
ENCODING 17526
SWIDTH 1000 0
DWIDTH 24 0
BBX 24 24 0 -2
BITMAP
0801C0
0E0180
0C0184
29BFFE
3F8180
318188
399FFC
358180
358182
31FFFF
318000
FF9018
719FFC
319998
359998
359998
359998
359FF8
359818
319818
219818
619818
4798F8
831830
ENDCHAR
STARTCHAR uni447A
ENCODING 17530
SWIDTH 1000 0
DWIDTH 24 0
BBX 24 24 0 -2
BITMAP
081008
0E1FFC
0C1008
299048
3FD1E8
319788
399108
359108
359108
3197E8
31D528
FF9528
719528
319528
3597E8
359108
35910A
35910A
35914A
31A16E
21AFE6
61A726
47A403
834003
ENDCHAR
STARTCHAR uni4491
ENCODING 17553
SWIDTH 1000 0
DWIDTH 24 0
BBX 24 8 0 10
BITMAP
000080
0400E0
0300C0
018180
00C100
00C200
000406
FFFFFF
ENDCHAR
STARTCHAR uni44B3
ENCODING 17587
SWIDTH 1000 0
DWIDTH 24 0
BBX 24 24 0 -2
BITMAP
01C1C0
018186
FFFFFF
018180
018180
000000
3FFF80
018300
01830C
0387FE
03060C
06000C
0C001C
181CF8
601830
001800
7FFFFE
007A00
00D900
019980
0318E0
0C187F
30181E
C01806
ENDCHAR
STARTCHAR uni44BE
ENCODING 17598
SWIDTH 1000 0
DWIDTH 24 0
BBX 24 24 0 -2
BITMAP
01C1C0
018180
018186
FFFFFF
018180
019D80
001800
001806
FFFFFF
003400
006400
00C408
01820E
03821C
078330
0D8140
318180
C180C0
018060
018638
01F81F
3FC00E
1E0006
100000
ENDCHAR
STARTCHAR uni44D4
ENCODING 17620
SWIDTH 1000 0
DWIDTH 24 0
BBX 24 24 0 -2
BITMAP
01C1C0
018186
FFFFFF
018180
01B980
003020
003338
1FFFF0
0030E0
003386
FFFFFF
001C00
0070C0
0FFFE0
030180
1C1300
E01C00
00180C
7FFFFE
001800
001800
001800
00F800
003000
ENDCHAR
STARTCHAR uni4508
ENCODING 17672
SWIDTH 1000 0
DWIDTH 24 0
BBX 24 24 0 -2
BITMAP
01C1C0
018186
FFFFFF
018180
018180
000030
1FFFF8
001800
001806
FFFFFF
000000
0FFFF0
0C0030
0FFFF0
0C0030
0C0030
0FFFF0
0C0030
0C0030
0FFFF0
008000
03C3E0
0F007C
38000C
ENDCHAR
STARTCHAR uni450D
ENCODING 17677
SWIDTH 1000 0
DWIDTH 24 0
BBX 24 24 0 -2
BITMAP
01C1C0
018186
FFFFFF
018180
018180
080030
0FFFF8
0C1800
0C1820
0FFFF0
0C1800
0C1820
0FFFF0
0C1800
0C180C
0FFFFE
0C000C
00020C
12210C
11118C
31998C
E19818
C000F8
000030
ENDCHAR
STARTCHAR uni4525
ENCODING 17701
SWIDTH 1000 0
DWIDTH 24 0
BBX 24 24 0 -2
BITMAP
01C1C0
018186
FFFFFF
018180
001830
0FFFF8
001830
001836
FFFFFF
001830
001830
0FFFF0
001800
1D199C
18D918
185A18
1BFFD8
183818
187E18
10D998
3198D8
2618D8
401818
800018
ENDCHAR
STARTCHAR uni4543
ENCODING 17731
SWIDTH 1000 0
DWIDTH 24 0
BBX 24 24 0 -2
BITMAP
00E380
00C306
FFFFFF
00C300
00C000
430300
7F8700
630680
620C60
661838
64301F
645FEE
699806
641FF0
661800
631FF0
631800
631806
63FFFF
6F0C40
660830
6011DC
60FE0E
607006
ENDCHAR
STARTCHAR uni45B8
ENCODING 17848
SWIDTH 1000 0
DWIDTH 24 0
BBX 24 24 0 -2
BITMAP
0063A0
03F318
3D8318
018306
FFFFFF
018318
01F19C
FF81B0
7980C2
4181E2
01873A
1F981F
070007
001C00
081830
0FFFF8
0C1830
0C1830
0FFFF0
0C1820
001810
7FFFFC
3FC00E
200006
ENDCHAR
STARTCHAR uni45E5
ENCODING 17893
SWIDTH 1000 0
DWIDTH 24 0
BBX 24 24 0 -2
BITMAP
1C1108
181DCE
18198C
18198C
1831D8
5B2154
7F4332
5B0223
5B1443
5B1800
5B1838
5B3030
5B33B0
7F7336
5BB33F
183330
183330
193330
193330
1FB330
F9B2B0
61B270
40323F
00340E
ENDCHAR
STARTCHAR uni460F
ENCODING 17935
SWIDTH 1000 0
DWIDTH 24 0
BBX 24 24 0 -2
BITMAP
040000
070206
0603FF
0C0306
48230C
7FF308
492318
492310
492320
492320
492310
492318
49230C
49230C
492306
492306
493B06
49E306
4F0306
FC033E
70030C
400300
000300
000300
ENDCHAR
STARTCHAR uni4641
ENCODING 17985
SWIDTH 1000 0
DWIDTH 24 0
BBX 24 24 0 -2
BITMAP
1C0EC0
180C60
180C0C
18047E
1B0780
FFBE30
030360
060182
0602C2
0C8C72
0DB01F
190D87
3A0CC0
5C041E
9B07E0
19BE10
198318
180130
1801E0
180082
1801E2
18033A
180C1F
187007
ENDCHAR
STARTCHAR uni4665
ENCODING 18021
SWIDTH 1000 0
DWIDTH 24 0
BBX 24 24 0 -2
BITMAP
380018
303FFC
300300
304306
367FFF
FEC306
06C304
0C3B70
0C0300
180300
1A7B78
330680
360C60
781838
B437DF
36C006
360000
303FFC
30030C
30030C
30030C
30037C
300318
300300
ENDCHAR
STARTCHAR uni46A1
ENCODING 18081
SWIDTH 1000 0
DWIDTH 24 0
BBX 24 24 0 -2
BITMAP
100000
198406
1FC7FF
118666
310666
230666
426666
BFE7FE
326666
326666
326666
3FE666
3267FE
326000
326040
3FE030
306190
306184
206582
20658B
60658B
406D8C
43EDFC
80C0F8
ENDCHAR
STARTCHAR uni46AF
ENCODING 18095
SWIDTH 1000 0
DWIDTH 24 0
BBX 23 24 0 -2
BITMAP
00C00E
7FE00C
00038C
00030C
00630C
FFF30C
00030C
00030C
00C30C
7FE30C
00030C
00030C
00C30C
7FE30C
00030C
00030C
40C30C
7FE30C
60C00C
60C00C
60C00C
60C00C
7FC07C
60C018
ENDCHAR
STARTCHAR uni470C
ENCODING 18188
SWIDTH 1000 0
DWIDTH 24 0
BBX 24 24 0 -2
BITMAP
100410
1C7E1C
180018
100010
A402A4
46FF47
660066
6C006C
080408
147E14
220022
FF00FF
7B047B
587E58
180018
5C005C
7A467A
7B7F7B
7B667B
586658
586658
986698
187E18
186618
ENDCHAR
STARTCHAR uni4764
ENCODING 18276
SWIDTH 1000 0
DWIDTH 24 0
BBX 24 24 0 -2
BITMAP
040380
060300
0C0306
187FFF
310344
C9A246
0B3628
661430
2C0818
181FFC
342C3F
C64C36
0E0FF0
1B0C30
330C30
C70FF0
0F0180
1B2190
33398C
C33186
036187
064183
3E8F80
0C0300
ENDCHAR
STARTCHAR uni47FD
ENCODING 18429
SWIDTH 1000 0
DWIDTH 24 0
BBX 24 24 0 -2
BITMAP
4181C0
7FC180
618186
61BFFF
618300
618240
618230
618418
7FBFEC
0C1E0C
0C1000
6C0000
6D9938
6FD930
6C1930
6C1930
6C1930
6C1930
6C1930
6C3132
6FB132
FE2133
70413F
40801E
ENDCHAR
STARTCHAR uni4816
ENCODING 18454
SWIDTH 1000 0
DWIDTH 24 0
BBX 24 24 0 -2
BITMAP
418080
7FC0E0
6180C0
61BD86
6181FF
618266
618464
618068
7F8260
0C0CD0
0C38D0
6C1188
6D830C
6FC607
6C0C02
6C3000
6C0FFC
6C0C0C
6C0C0C
6C0C0C
6F8C0C
FE0C0C
700FFC
400C0C
ENDCHAR
STARTCHAR uni484E
ENCODING 18510
SWIDTH 1000 0
DWIDTH 24 0
BBX 24 24 0 -2
BITMAP
070006
060FFF
066000
FFF000
060406
4667FF
7FF606
666606
666606
666606
7FE606
6667FE
666606
666606
7FE600
666600
060600
066400
FFF400
060C00
060800
061800
061000
062000
ENDCHAR
STARTCHAR uni48B5
ENCODING 18613
SWIDTH 1000 0
DWIDTH 24 0
BBX 24 24 0 -2
BITMAP
000106
0061FF
3FF186
000186
00018C
00018C
000198
000190
0019A0
FFFD90
060188
06018C
060184
040186
0C0186
0C0186
088186
084186
0821BE
10318C
11D180
FF1980
781980
401980
ENDCHAR
STARTCHAR uni49E7
ENCODING 18919
SWIDTH 1000 0
DWIDTH 24 0
BBX 23 24 1 -2
BITMAP
861060
FF0C60
C60C88
C67FFC
C40300
CC0310
C83FF8
C80300
D00304
C8FFFE
CC0000
C409D0
C63D8C
C6F184
C63180
C7FFFE
C63190
DE3C98
CDF0B0
C0B064
C030E4
C031B4
C1F61E
C06006
ENDCHAR
STARTCHAR uni49FA
ENCODING 18938
SWIDTH 1000 0
DWIDTH 24 0
BBX 24 24 0 -2
BITMAP
0E0420
0C0738
0C0630
0C0620
0CCC46
FFEFFF
0C1C60
0C1C60
0C2C60
084C64
080FFE
18CC60
1FEC60
18CC60
18CC60
38CC64
38CFFE
38CC60
78CC60
58CC60
98CC60
1FCC66
18CFFF
18CC00
ENDCHAR
STARTCHAR uni4A04
ENCODING 18948
SWIDTH 1000 0
DWIDTH 24 0
BBX 24 24 0 -2
BITMAP
060220
0D83B8
186330
303320
CFB646
0007FF
00C620
3FEE20
00CE20
019624
0187FE
032620
FFF620
0A0620
4A6620
7FF624
6A67FE
6BE620
706620
606620
7FE620
606626
7FE7FF
606600
ENDCHAR
STARTCHAR uni4A29
ENCODING 18985
SWIDTH 1000 0
DWIDTH 24 0
BBX 24 24 0 -2
BITMAP
000030
0FFFF8
201802
7FFFFF
601806
CF99F4
C01800
0F99F0
000000
0300E0
7F80C0
0010C6
019FFF
FFD8C6
0C18C6
6D9FFE
6D98C6
6D98C6
6D98C6
6D9FFE
4D98C6
4D80C0
8C00C0
0C00C0
ENDCHAR
STARTCHAR uni4ABC
ENCODING 19132
SWIDTH 1000 0
DWIDTH 24 0
BBX 23 24 1 -2
BITMAP
0E000C
0C1FFE
0C00C0
0C0080
CCC90C
CCCFFE
CCCC0C
CCCC0C
CCCC0C
CCCFFC
FFCC0C
CCCC0C
0C0C0C
0C0FFC
CCCC0C
CCCC0C
CCCC0C
CCCC0C
CCCFFC
FFC400
C0C730
C0CE0C
001806
006006
ENDCHAR
STARTCHAR uni4B3B
ENCODING 19259
SWIDTH 1000 0
DWIDTH 24 0
BBX 24 24 0 -2
BITMAP
060390
06030C
0D830C
0CC300
18C3FE
163F00
260300
7F83FC
B1BF00
318300
3F8306
3183FF
31BF00
318110
3F819C
300198
3200B0
3100E0
318042
32C0E2
3CC3B2
F80E3B
60701F
40000E
ENDCHAR
STARTCHAR uni4BC2
ENCODING 19394
SWIDTH 1000 0
DWIDTH 24 0
BBX 22 24 1 -2
BITMAP
03FFC0
031800
03FF80
031800
03FF80
031800
0BFFE0
19B620
109260
7FC7FC
440440
7F87F8
440440
7F87F8
440440
7FC7FC
AA4AA4
AACAAC
003000
FFFFFC
01B600
033300
1C30E0
E0301C
ENDCHAR
STARTCHAR uni4BCA
ENCODING 19402
SWIDTH 1000 0
DWIDTH 24 0
BBX 24 24 0 -2
BITMAP
218000
3FC006
319FFF
31800C
37800C
35800C
358CCC
358FEC
7FECCC
C06CCC
C04CCC
3F8CCC
318CCC
318CCC
3F8CCC
318FCC
318CCC
3F800C
31800C
31800C
31800C
31800C
37807C
330018
ENDCHAR
STARTCHAR uni4BD2
ENCODING 19410
SWIDTH 1000 0
DWIDTH 24 0
BBX 24 24 0 -2
BITMAP
218200
3FC380
31870C
3186FE
378C00
358800
359000
358400
7FE700
C06606
C04DFF
3F8C18
319C18
319C18
3FAC18
318C18
318C18
3F8C18
318C18
318C18
318C18
318C18
378CF8
330C30
ENDCHAR
STARTCHAR uni4BE8
ENCODING 19432
SWIDTH 1000 0
DWIDTH 24 0
BBX 24 24 0 -2
BITMAP
001C00
00180C
7FFFFE
000000
03FFC0
020040
03FFC0
20000C
3FFFFE
30000C
31FF8C
31008C
31FF8C
30003C
001C18
001800
001806
FFFFFF
003400
006300
00C1C0
0300F8
1C003F
E0000E
ENDCHAR
STARTCHAR uni4C20
ENCODING 19488
SWIDTH 1000 0
DWIDTH 24 0
BBX 24 24 0 -2
BITMAP
080070
0E0060
4C6060
7FF466
6667FF
666666
666666
7FE666
6667FE
666666
666666
7FE666
030666
1327FE
1B3666
1B3060
1B2460
137E60
333262
330062
238003
63FFFF
41FFFE
800000
ENDCHAR
STARTCHAR uni4CC4
ENCODING 19652
SWIDTH 1000 0
DWIDTH 24 0
BBX 24 24 0 -2
BITMAP
0001C0
0D8180
090518
0907FC
090618
090618
0927F8
697618
49C618
4907F8
4F0600
490606
4907FF
490600
490606
4907FF
490606
492056
492556
4B3556
4DF54E
F8ED0C
600C7C
400018
ENDCHAR
STARTCHAR uni4CD1
ENCODING 19665
SWIDTH 1000 0
DWIDTH 24 0
BBX 24 24 0 -2
BITMAP
0701C0
060180
060518
0637FC
FFFE18
0C0618
0C07F8
0C0618
186618
1FF7F8
186600
386606
3867FF
5FE600
986606
1867FF
186606
1FE056
186556
186556
18654E
186D0C
19EC7C
18C018
ENDCHAR
STARTCHAR uni4D07
ENCODING 19719
SWIDTH 1000 0
DWIDTH 24 0
BBX 24 24 0 -2
BITMAP
0041C0
3FE180
060518
4637FC
7FFE18
C63618
C627F8
36C618
060618
76E7F8
060600
0D0606
08C7FF
107600
2FBE06
C017FF
000606
7FE056
0C6556
0C6556
0C654E
0DED0C
0CCC7C
0C0018
ENDCHAR
STARTCHAR uni4D77
ENCODING 19831
SWIDTH 1000 0
DWIDTH 24 0
BBX 24 24 0 -2
BITMAP
0E1004
0C1FFE
0C1144
0D9144
7FD144
0C1F7C
0C1144
0C0140
0CDF7C
FFF144
001144
0E1144
0C1144
0C1F7C
0D9144
7FD144
0C1144
0C1144
0C1F7C
0CD142
0F1102
FC0103
7001FF
4000FE
ENDCHAR
STARTCHAR uni4E02
ENCODING 19970
SWIDTH 1000 0
DWIDTH 24 0
BBX 22 24 1 -2
BITMAP
000010
000038
FFFFFC
030000
030000
030000
070000
060000
060000
0600C0
0FFFE0
0C00C0
0C00C0
0C00C0
0000C0
0000C0
0001C0
000180
000180
000380
000300
000700
007E00
000C00
ENDCHAR
STARTCHAR uni4E0F
ENCODING 19983
SWIDTH 1000 0
DWIDTH 24 0
BBX 24 23 0 -2
BITMAP
000006
FFFFFF
001800
001800
001800
1C180C
181FFE
18180C
18180C
18180C
18180C
1FFFFC
18000C
18000C
00000C
00001C
000018
000018
000038
000030
000070
000FE0
0001C0
ENDCHAR
STARTCHAR uni4E12
ENCODING 19986
SWIDTH 1000 0
DWIDTH 24 0
BBX 24 23 0 -1
BITMAP
00000C
7FFFFE
00000C
00020C
00038C
00030C
06060C
01860C
006C0C
00380C
001C0C
00360C
00630C
00C38C
01818C
03018C
0C001C
300018
000038
0001F0
000060
000006
FFFFFF
ENDCHAR
STARTCHAR uni4E29
ENCODING 20009
SWIDTH 1000 0
DWIDTH 24 0
BBX 13 24 5 -2
BITMAP
0038
0030
0030
1C30
1830
1830
1830
1830
1830
1830
1830
1830
1830
1830
1830
1830
18F0
1B30
FC30
7030
4030
0030
0030
0030
ENDCHAR
STARTCHAR uni4E2B
ENCODING 20011
SWIDTH 1000 0
DWIDTH 24 0
BBX 16 24 4 -2
BITMAP
0004
8007
600E
380C
1C18
0E30
0620
0640
0080
0180
0180
0180
0180
0180
0180
0180
0180
0180
0180
0180
0180
0180
0180
0180
ENDCHAR
STARTCHAR uni4E2C
ENCODING 20012
SWIDTH 1000 0
DWIDTH 24 0
BBX 9 24 7 -2
BITMAP
0380
0300
0300
0300
4300
3300
1B00
1B00
1B00
0300
0300
0300
0300
0700
1B00
F300
6300
4300
0300
0300
0300
0300
0300
0300
ENDCHAR
STARTCHAR uni4E2E
ENCODING 20014
SWIDTH 1000 0
DWIDTH 24 0
BBX 24 24 0 -2
BITMAP
000030
FFFFF8
000030
00E030
00C030
00C030
00C030
00C330
7FFFB0
00C030
00C030
00C030
00C030
00C030
00C330
7FFFB0
00C012
00C012
00C01A
00C00A
00C00E
00C006
00C007
00C003
ENDCHAR
STARTCHAR uni4E40
ENCODING 20032
SWIDTH 1000 0
DWIDTH 24 0
BBX 24 23 0 -2
BITMAP
100000
180000
300000
280000
680000
C80000
440000
040000
020000
020000
010000
010000
008000
00C000
006000
003000
001800
000E00
000780
0003F0
0000FF
00001E
000002
ENDCHAR
STARTCHAR uni4E47
ENCODING 20039
SWIDTH 1000 0
DWIDTH 24 0
BBX 24 24 0 -2
BITMAP
000060
0001F0
000F80
007C00
07E000
786000
006000
006000
006000
006000
006006
FFFFFF
006000
006000
006000
006000
006000
006000
006000
006004
006004
006006
007FFE
003FFC
ENDCHAR
STARTCHAR uni4E48
ENCODING 20040
SWIDTH 1000 0
DWIDTH 24 0
BBX 21 24 1 -2
BITMAP
010000
01C000
018000
018000
030000
030000
060000
060000
0C2000
183800
103000
203000
406000
806000
004200
00C100
008080
0080C0
010060
010070
021FB0
3FF038
1F0018
100018
ENDCHAR
STARTCHAR uni4E51
ENCODING 20049
SWIDTH 1000 0
DWIDTH 24 0
BBX 23 24 1 -2
BITMAP
000060
0003F0
003F80
03FC00
7C3000
003000
003000
023808
03B81C
073838
063470
0C34C0
183500
303200
423300
83B100
073180
0630C0
0C3070
18303E
30301C
40300C
803000
003000
ENDCHAR
STARTCHAR uni4E5A
ENCODING 20058
SWIDTH 1000 0
DWIDTH 24 0
BBX 17 23 4 -1
BITMAP
E00000
C00000
C00000
C00000
C00000
C00000
C00000
C00000
C00000
C00000
C00000
C00000
C00000
C00000
C00000
C00000
C00100
C00100
C00100
C00180
C00380
FFFF80
7FFF00
ENDCHAR
STARTCHAR uni4E69
ENCODING 20073
SWIDTH 1000 0
DWIDTH 24 0
BBX 23 24 1 -2
BITMAP
0E0380
0C0300
0C0300
0C0300
0C0300
0C0300
0C3300
0FFB00
0C0300
0C0300
0C0300
0C0300
0C0300
8C6300
FFF300
C06300
C06300
C06300
C06304
C06304
C06304
FFE306
C063FE
C061FC
ENDCHAR
STARTCHAR uni4E9D
ENCODING 20125
SWIDTH 1000 0
DWIDTH 24 0
BBX 21 23 1 -1
BITMAP
008000
00E000
00C400
018300
0101C0
3FFEE0
1F8060
000000
080100
0C0180
090120
118210
FFDFF8
60CC18
000000
0000C0
1FFFE0
000000
000000
000000
000000
000030
7FFFF8
ENDCHAR
STARTCHAR uni4EB9
ENCODING 20153
SWIDTH 1000 0
DWIDTH 24 0
BBX 24 24 0 -2
BITMAP
001800
001806
FFFFFF
000000
26FF7C
3C810C
30BD0C
3E817C
30BD0C
3EA57C
30BD0C
30810E
7FFFFF
C00006
C3FFC4
0300C8
0300C0
03FFC0
0300C0
0300C0
03FFC0
0300C0
0300C6
FFFFFF
ENDCHAR
STARTCHAR uni4EBB
ENCODING 20155
SWIDTH 1000 0
DWIDTH 24 0
BBX 12 24 5 -2
BITMAP
0040
0070
0060
00C0
00C0
0180
0380
0300
0700
0F00
1B00
3300
4300
8300
0300
0300
0300
0300
0300
0300
0300
0300
0300
0300
ENDCHAR
STARTCHAR uni4EBC
ENCODING 20156
SWIDTH 1000 0
DWIDTH 24 0
BBX 24 22 0 -1
BITMAP
001C00
001800
001800
001800
003400
003400
003400
006200
006200
004100
00C100
008080
0180C0
010060
020070
04003C
08001F
30000E
C00004
000000
000018
3FFFFC
ENDCHAR
STARTCHAR uni4EC3
ENCODING 20163
SWIDTH 1000 0
DWIDTH 24 0
BBX 24 24 0 -2
BITMAP
040000
070000
060006
06FFFF
0C0180
0C0180
180180
180180
380180
380180
580180
980180
180180
180180
180180
180180
180180
180180
180180
180180
180180
180180
180F80
180300
ENDCHAR
STARTCHAR uni4EC8
ENCODING 20168
SWIDTH 1000 0
DWIDTH 24 0
BBX 24 24 0 -2
BITMAP
040080
073FC0
060080
060080
0C1080
0C1C80
181880
181880
3818C0
381840
581840
981840
183840
183060
183020
183020
186030
186030
184018
18C018
18801C
19000E
19000F
1A0004
ENDCHAR
STARTCHAR uni4ED0
ENCODING 20176
SWIDTH 1000 0
DWIDTH 24 0
BBX 24 24 0 -2
BITMAP
001800
001800
003400
003200
006300
00C180
0180C0
030070
061C3F
0C181E
301806
C01800
001800
001800
001818
3FFFFC
001800
001800
001800
001800
001800
001800
001800
001800
ENDCHAR
STARTCHAR uni4EDA
ENCODING 20186
SWIDTH 1000 0
DWIDTH 24 0
BBX 24 24 0 -2
BITMAP
001800
001800
003400
003200
006300
00C180
0180C0
030070
06003F
0C1C1E
301806
C01800
001800
1C181C
181818
181818
181818
181818
181818
181818
181818
1FFFF8
180018
180018
ENDCHAR
STARTCHAR uni4EEB
ENCODING 20203
SWIDTH 1000 0
DWIDTH 24 0
BBX 23 24 0 -2
BITMAP
041000
071C00
061800
061800
0C3000
0C3000
183100
1861C0
386180
38C180
588300
990300
180300
180600
180600
180400
180C20
180810
181818
18100C
1810FC
18FF86
187806
184006
ENDCHAR
STARTCHAR uni4EF1
ENCODING 20209
SWIDTH 1000 0
DWIDTH 24 0
BBX 24 24 0 -2
BITMAP
040600
070600
060D00
060D00
0C1880
0C10C0
183060
182030
38401C
3880CF
593FE6
980000
180000
180030
19FFF8
180030
180030
180060
180060
180060
1800C0
1800C0
180180
180180
ENDCHAR
STARTCHAR uni4EF5
ENCODING 20213
SWIDTH 1000 0
DWIDTH 24 0
BBX 24 24 0 -2
BITMAP
042000
073800
063000
063000
0C6018
0C7FFC
184300
18C300
388300
390300
580300
980300
180306
1BFFFF
180300
180300
180300
180300
180300
180300
180300
180300
180300
180300
ENDCHAR
STARTCHAR uni4F00
ENCODING 20224
SWIDTH 1000 0
DWIDTH 24 0
BBX 24 24 0 -2
BITMAP
040040
0707E0
060040
061040
0C1C20
0C1820
183030
183018
38601C
38400F
588406
990700
180600
180600
180400
180C00
180C20
180810
180818
18100C
1810FC
18FF86
187806
184006
ENDCHAR
STARTCHAR uni4F16
ENCODING 20246
SWIDTH 1000 0
DWIDTH 24 0
BBX 24 24 0 -2
BITMAP
041C00
071800
061800
061800
0C1800
0C1806
19FFFF
181800
381800
381830
581FF8
981830
181830
183460
183460
1832C0
186180
1861C0
184360
18C630
188C3C
19181F
19200E
1A4006
ENDCHAR
STARTCHAR uni4F37
ENCODING 20279
SWIDTH 1000 0
DWIDTH 24 0
BBX 23 24 0 -2
BITMAP
040380
070300
060300
060300
0C0300
0C830C
18FFFE
18C30C
38C30C
38C30C
58C30C
98C30C
18C30C
18C30C
18FFFC
18C30C
18C30C
18C30C
18C30C
18C30C
18C30C
18C30C
18FFFC
18C00C
ENDCHAR
STARTCHAR uni4F3E
ENCODING 20286
SWIDTH 1000 0
DWIDTH 24 0
BBX 24 24 0 -2
BITMAP
040000
07000C
067FFE
060080
0C01C0
0C0180
180300
180300
380740
380730
580F18
981B0C
18330E
186306
188306
190300
180300
180300
180300
180300
180300
180006
19FFFF
180000
ENDCHAR
STARTCHAR uni4F54
ENCODING 20308
SWIDTH 1000 0
DWIDTH 24 0
BBX 24 24 0 -2
BITMAP
040380
070300
060300
060300
0C0300
0C0306
1803FF
180300
380300
380300
580300
980300
18430C
187FFE
18600C
18600C
18600C
18600C
18600C
18600C
18600C
187FFC
18600C
18600C
ENDCHAR
STARTCHAR uni4F58
ENCODING 20312
SWIDTH 1000 0
DWIDTH 24 0
BBX 24 24 0 -2
BITMAP
001800
003800
003400
006200
00C100
0180C0
030070
06003F
0C019E
33FFC6
C00000
000000
00000C
7FFFFE
001800
041880
071860
0E1830
0C1818
18181C
30180C
401800
00F800
003000
ENDCHAR
STARTCHAR uni4F64
ENCODING 20324
SWIDTH 1000 0
DWIDTH 24 0
BBX 24 24 0 -2
BITMAP
040000
070006
06FFFF
061800
0C1800
0C1800
181830
181FFC
381830
381830
581830
981A30
181930
1819B0
1819B0
1819B0
181830
181832
18181A
18181A
18187E
18FF8E
187807
184003
ENDCHAR
STARTCHAR uni4F77
ENCODING 20343
SWIDTH 1000 0
DWIDTH 24 0
BBX 24 24 0 -2
BITMAP
042018
073FFC
063018
063018
0C3018
0C3018
183FF8
183018
383018
383018
583018
983FF8
183104
183107
183086
18308C
1830D0
183040
183060
183030
183338
19FC1F
18E00E
188006
ENDCHAR
STARTCHAR uni4F78
ENCODING 20344
SWIDTH 1000 0
DWIDTH 24 0
BBX 24 24 0 -2
BITMAP
040000
070018
0600FC
0607E0
0C7B00
0C0300
180300
180300
380306
39FFFF
580300
980300
180300
180300
18430C
187FFE
18600C
18600C
18600C
18600C
18600C
18600C
187FFC
18600C
ENDCHAR
STARTCHAR uni4F7A
ENCODING 20346
SWIDTH 1000 0
DWIDTH 24 0
BBX 24 24 0 -2
BITMAP
040000
073F00
060300
060680
0C0680
0C0C40
181860
183030
38601C
38800F
593FF6
980300
180300
180300
180300
180318
187FFC
180300
180300
180300
180300
180306
19FFFF
180000
ENDCHAR
STARTCHAR uni4F7D
ENCODING 20349
SWIDTH 1000 0
DWIDTH 24 0
BBX 24 24 0 -2
BITMAP
040000
070200
060380
060300
0C0300
0C0300
186606
1BF7FF
3804C6
380CC4
5808C8
9810C0
1800C0
1800C0
1871A0
1BC1A0
1901A0
180130
180310
180218
18061C
18040F
18080E
183006
ENDCHAR
STARTCHAR uni4F82
ENCODING 20354
SWIDTH 1000 0
DWIDTH 24 0
BBX 24 24 0 -2
BITMAP
040380
070300
060300
068306
0CFFFF
0CC000
18C018
18C07C
38C1E0
38C780
58D980
98C180
18C186
18C19F
18C7E0
18F980
18C180
18C180
188180
188182
188182
190183
1901FF
1A00FE
ENDCHAR
STARTCHAR uni4F85
ENCODING 20357
SWIDTH 1000 0
DWIDTH 24 0
BBX 24 24 0 -2
BITMAP
040380
070300
060300
060306
0DFFFF
0C0400
180700
180620
384838
383070
5818E0
980CC0
180D88
18030E
18061C
180C38
181870
1830E0
18C1C0
1B03A0
180E18
18380C
18E00E
1B0006
ENDCHAR
STARTCHAR uni4F92
ENCODING 20370
SWIDTH 1000 0
DWIDTH 24 0
BBX 24 24 0 -2
BITMAP
040380
070300
064300
064306
0CFFFF
0CC006
198404
198708
380600
380E00
580C06
99FFFF
181830
181830
181830
183060
183060
186CC0
1863C0
180180
180360
180638
18381C
19C00C
ENDCHAR
STARTCHAR uni4F9A
ENCODING 20378
SWIDTH 1000 0
DWIDTH 24 0
BBX 24 24 0 -2
BITMAP
041000
071C00
061800
063000
0C3006
0C7FFF
184006
188006
3900C6
383FE6
5830C6
9830C6
1830C6
183FC6
1830C6
1830C6
1830C6
183FC6
1830CE
18000C
18000C
18001C
1801F8
180030
ENDCHAR
STARTCHAR uni4FB2
ENCODING 20402
SWIDTH 1000 0
DWIDTH 24 0
BBX 24 24 0 -2
BITMAP
040000
07400C
067FFE
066000
0C6000
0C6018
1867FC
186000
386000
386006
587FFF
986640
186644
186647
186646
184624
184628
18C620
188630
188610
1906D8
193F0F
1A1C0E
1A1006
ENDCHAR
STARTCHAR uni4FBE
ENCODING 20414
SWIDTH 1000 0
DWIDTH 24 0
BBX 24 24 0 -2
BITMAP
040700
070600
060610
06065C
0CFFF8
0C0630
180660
1806C6
39FFFF
380300
580618
980FFC
181830
183060
18C1C0
1B0180
180186
19FFFF
180180
180180
180180
180180
180F80
180300
ENDCHAR
STARTCHAR uni4FC5
ENCODING 20421
SWIDTH 1000 0
DWIDTH 24 0
BBX 24 24 0 -2
BITMAP
0403A0
070318
060318
060300
0C0306
0DFFFF
180300
180300
388308
38430E
58638C
983388
183390
180340
180340
180B20
181330
183318
18631C
19E30F
18C306
188302
181F00
180600
ENDCHAR
STARTCHAR uni4FCB
ENCODING 20427
SWIDTH 1000 0
DWIDTH 24 0
BBX 24 24 0 -2
BITMAP
044018
077FFC
066018
066018
0C6018
0C7FF8
180000
18800C
38FFFE
38C30C
58C30C
98C30C
18C30C
18C30C
18FFFC
18C00C
18C000
18C000
18C002
18C002
18C002
18C003
18FFFF
187FFE
ENDCHAR
STARTCHAR uni4FCF
ENCODING 20431
SWIDTH 1000 0
DWIDTH 24 0
BBX 23 24 0 -2
BITMAP
040380
072300
063B20
063318
0C630C
0C4306
188306
194318
3A7FFC
386018
586018
986018
187FF8
186018
186018
186018
186018
187FF8
186018
186018
186018
186018
1860F8
186030
ENDCHAR
STARTCHAR uni4FD2
ENCODING 20434
SWIDTH 1000 0
DWIDTH 24 0
BBX 24 24 0 -2
BITMAP
040380
070300
064300
064306
0CFFFF
0D8006
198004
180030
387FF8
380000
580000
980000
18000C
19FFFE
180CC0
180CC0
180CC0
1818C0
1818C0
1830C2
1830C2
1860C3
18C0FF
1B007E
ENDCHAR
STARTCHAR uni4FE6
ENCODING 20454
SWIDTH 1000 0
DWIDTH 24 0
BBX 24 24 0 -2
BITMAP
040700
070600
060604
06FFFE
0C0600
0C0608
187FFC
180600
380600
380604
58FFFE
980C00
180C18
180C1A
1BFFFF
181818
181418
183318
182198
186198
184018
188018
1B00F8
180030
ENDCHAR
STARTCHAR uni4FF2
ENCODING 20466
SWIDTH 1000 0
DWIDTH 24 0
BBX 24 24 0 -2
BITMAP
083800
0E3070
0C3060
0C3060
0C3260
1BFF60
180066
1891FF
38CC66
38C666
598366
991366
1A1866
189866
185866
183046
183046
1868C6
184C86
18CD86
188106
19020C
1A047C
181818
ENDCHAR
STARTCHAR uni5000
ENCODING 20480
SWIDTH 1000 0
DWIDTH 24 0
BBX 24 24 0 -2
BITMAP
042018
073FFC
063000
063000
0C3030
0C3FF8
183000
183000
383030
383FF8
583000
983000
183006
1BFFFF
183100
183108
18309C
1830B0
183040
183060
183630
19F83E
18E01C
18800C
ENDCHAR
STARTCHAR uni5010
ENCODING 20496
SWIDTH 1000 0
DWIDTH 24 0
BBX 24 24 0 -2
BITMAP
080400
0E0700
0C0618
0C0FFC
19CC18
199A30
199230
39A160
3981C0
598360
598638
998C1F
19F1C6
198180
198988
19899C
1999B8
19B9E0
19B340
198320
180630
180C1C
18180F
186006
ENDCHAR
STARTCHAR uni5013
ENCODING 20499
SWIDTH 1000 0
DWIDTH 24 0
BBX 24 24 0 -2
BITMAP
040380
070308
06230E
06230C
0C6318
0CC320
18C6C0
180630
380C1C
38180E
583006
98C380
180304
180307
18430E
184318
18C6A0
198680
198C40
180C60
181838
18301F
18600E
198006
ENDCHAR
STARTCHAR uni501C
ENCODING 20508
SWIDTH 1000 0
DWIDTH 24 0
BBX 24 24 0 -2
BITMAP
040000
074006
067FFF
066006
0C61C6
0C6186
186186
186FF6
386186
386186
586FF6
986186
186186
186006
1867E6
186666
186666
18C666
18C666
1887E6
188006
190006
19003E
1A000C
ENDCHAR
STARTCHAR uni501E
ENCODING 20510
SWIDTH 1000 0
DWIDTH 24 0
BBX 24 24 0 -2
BITMAP
040380
070300
060300
060306
0DFFFF
0C0000
180000
184018
387FFC
386018
586018
986018
186018
187FF8
186318
180300
184320
187318
18630C
18C30E
188306
190306
1A1F00
180600
ENDCHAR
STARTCHAR uni5022
ENCODING 20514
SWIDTH 1000 0
DWIDTH 24 0
BBX 24 24 0 -2
BITMAP
040380
070300
06030C
06FFFE
0C0300
0C0318
187FFC
180318
38031A
39FFFF
580318
980318
187FF8
180318
184300
187300
18630C
1863FE
186300
185300
18CB00
188700
1903FF
1A00FE
ENDCHAR
STARTCHAR uni5042
ENCODING 20546
SWIDTH 1000 0
DWIDTH 24 0
BBX 24 24 0 -2
BITMAP
041040
070870
060C60
060C40
0C0086
0DFFFF
180000
180000
388607
38FF66
58C666
98C666
18F666
18DE66
18DE66
18C666
18F666
18DE66
18DE66
18C666
18C606
18C606
18DE1E
18CC0C
ENDCHAR
STARTCHAR uni5046
ENCODING 20550
SWIDTH 1000 0
DWIDTH 24 0
BBX 24 24 0 -2
BITMAP
040700
070600
06060C
06FFFE
0C0600
0C0600
180610
18FFF8
380C80
380C80
581846
9BFFFF
183020
186030
184018
18BFFF
19306E
1A3066
183FE0
183060
183060
183060
183FE0
183060
ENDCHAR
STARTCHAR uni504E
ENCODING 20558
SWIDTH 1000 0
DWIDTH 24 0
BBX 23 24 0 -2
BITMAP
044018
077FFC
066318
066318
0C6318
0C7FF8
186318
186318
386318
387FF8
586018
980000
18000C
19FFFE
183210
18321C
183138
183160
183080
1830C0
183670
19F83E
18E01C
18800C
ENDCHAR
STARTCHAR uni5053
ENCODING 20563
SWIDTH 1000 0
DWIDTH 24 0
BBX 24 24 0 -2
BITMAP
044006
077FFF
066006
066006
0C6006
0C7FFE
186000
18600C
386FFE
386180
586190
986108
18620C
186FF6
186706
1864E0
18C0C0
18C0CC
18CFFE
1880C0
1980C0
1900C6
1A3FFF
180000
ENDCHAR
STARTCHAR uni5057
ENCODING 20567
SWIDTH 1000 0
DWIDTH 24 0
BBX 24 24 0 -2
BITMAP
040380
072300
063B20
067318
0C630E
0CC327
188373
191FC0
380780
380300
580618
983FFC
18F018
1B3018
183FF8
183018
183018
183018
183FF8
183018
183018
183018
183FF8
183018
ENDCHAR
STARTCHAR uni5063
ENCODING 20579
SWIDTH 1000 0
DWIDTH 24 0
BBX 24 24 0 -2
BITMAP
040380
070300
06030C
06FFFE
0C2020
0C1038
181830
180C60
380C40
380C86
59FFFF
980000
184018
187FFC
186018
186018
186018
187FF8
186018
186018
186018
186018
187FF8
186018
ENDCHAR
STARTCHAR uni5066
ENCODING 20582
SWIDTH 1000 0
DWIDTH 24 0
BBX 24 24 0 -2
BITMAP
040006
077FFF
060186
062184
0C3980
0C31FE
183180
182980
386780
3843FF
58807E
990000
187FFC
18600C
18600C
187FFC
18600C
18600C
187FFC
18600C
18600C
18600C
18607C
186018
ENDCHAR
STARTCHAR uni506A
ENCODING 20586
SWIDTH 1000 0
DWIDTH 24 0
BBX 24 24 0 -2
BITMAP
040006
077FFF
060000
060000
0C1018
0C1FFC
181818
181818
381818
381FF8
581818
980000
184006
187FFF
186186
186186
186186
187FFE
186186
186186
186186
187FFE
186006
186006
ENDCHAR
STARTCHAR uni5070
ENCODING 20592
SWIDTH 1000 0
DWIDTH 24 0
BBX 24 24 0 -2
BITMAP
043000
073606
063EFF
067866
0DB066
0C3666
183E66
187846
39B0C6
38368E
583E8C
98797C
19B218
183700
180600
180606
1BFFFF
180D00
180C80
1818C0
181870
18303F
18C01E
1B0006
ENDCHAR
STARTCHAR uni5088
ENCODING 20616
SWIDTH 1000 0
DWIDTH 24 0
BBX 24 24 0 -2
BITMAP
040006
07FFFF
060CC0
060CC0
0C8CCC
0CFFFE
18CCCC
18CCCC
38CCCC
38CCCC
58FFFC
98C30C
180300
180306
19FFFF
180F80
180F40
181B20
181B30
183318
18631C
18C30F
1B0306
180300
ENDCHAR
STARTCHAR uni5092
ENCODING 20626
SWIDTH 1000 0
DWIDTH 24 0
BBX 24 24 0 -2
BITMAP
040018
0721FC
063FC0
063208
0C3104
0C6186
186186
184186
388200
380740
582470
9818E0
180988
180204
18FFFE
187E06
180300
180300
19FFFF
180680
180C60
181838
18601F
198006
ENDCHAR
STARTCHAR uni5093
ENCODING 20627
SWIDTH 1000 0
DWIDTH 24 0
BBX 24 24 0 -2
BITMAP
040000
070030
0683F8
06FE00
0CC000
0CC00C
18FFFE
18C00C
38C00C
38FFFC
58C000
98C306
18FFFF
18C70E
18CF1E
18DB36
18D326
18A74E
188F1E
189B36
191326
192346
1A0F1E
1A060C
ENDCHAR
STARTCHAR uni5095
ENCODING 20629
SWIDTH 1000 0
DWIDTH 24 0
BBX 24 24 0 -2
BITMAP
040200
072380
062306
063FFF
0C6606
0CE604
18CC48
180CE0
3818C0
381184
583FFE
9870C0
18B0C0
1930C4
183FFE
1830C0
1830C0
1830C4
183FFE
1830C0
1830C0
1830C6
183FFF
183000
ENDCHAR
STARTCHAR uni5096
ENCODING 20630
SWIDTH 1000 0
DWIDTH 24 0
BBX 24 24 0 -2
BITMAP
040300
070300
060680
060C40
0C1860
0C3030
186FDC
18800F
390006
383FF8
583018
983018
183FF8
183018
183018
183FF8
182000
18600C
187FFE
18580C
18D80C
18980C
191FFC
18180C
ENDCHAR
STARTCHAR uni509C
ENCODING 20636
SWIDTH 1000 0
DWIDTH 24 0
BBX 24 24 0 -2
BITMAP
040200
070380
06070C
060FFE
0C181C
0C3638
18C270
1830E0
3811C0
380700
581C00
98E000
183018
187FFC
184300
188306
1BFFFF
180300
180300
18E30E
18C30C
18C30C
18FFFC
18C00C
ENDCHAR
STARTCHAR uni50A3
ENCODING 20643
SWIDTH 1000 0
DWIDTH 24 0
BBX 24 24 0 -2
BITMAP
040700
070600
06060C
06FFFE
0C0C00
0C0C18
18FFFC
181880
381886
3BFFFF
583040
982020
186330
184318
18F32F
189B36
191B62
1A0340
180FC0
183B30
19E31C
18C30C
189F00
180600
ENDCHAR
STARTCHAR uni50AA
ENCODING 20650
SWIDTH 1000 0
DWIDTH 24 0
BBX 24 24 0 -2
BITMAP
040400
070700
060620
060818
0C7FEC
0C3C0C
180000
18630C
384308
389692
59F65F
988C31
181918
18338F
186706
198C40
1818E0
1861C4
18070E
18181C
180070
1801C0
180E00
187000
ENDCHAR
STARTCHAR uni50B1
ENCODING 20657
SWIDTH 1000 0
DWIDTH 24 0
BBX 24 24 0 -2
BITMAP
044208
07738E
06630C
06430C
0CC398
0C82D4
1906B2
183423
386843
386000
58C070
98C060
19C760
1AC666
18C67F
18C660
18C660
18C660
18C660
18C660
18C560
18C4E0
18C87F
18D01E
ENDCHAR
STARTCHAR uni50BA
ENCODING 20666
SWIDTH 1000 0
DWIDTH 24 0
BBX 24 24 0 -2
BITMAP
042000
073800
06308C
063EBE
0C628C
0C4648
18B450
191C20
3AC830
38501C
58200F
985FE6
188000
190000
18000C
18FFFE
180300
184300
187320
186318
18C30C
19830E
1A1F06
180600
ENDCHAR
STARTCHAR uni50BB
ENCODING 20667
SWIDTH 1000 0
DWIDTH 24 0
BBX 24 24 0 -2
BITMAP
040300
07460C
067FFE
06604C
0C62EC
0C618C
18630C
1864CC
38684C
387FFC
5808C0
981CC2
1830C2
1860FF
18C67E
1B0C00
180FF0
181870
1838E0
18C5C0
180300
180EE0
18787F
1B801E
ENDCHAR
STARTCHAR uni50C4
ENCODING 20676
SWIDTH 1000 0
DWIDTH 24 0
BBX 24 24 0 -2
BITMAP
040006
06FFFF
060CC0
060CC0
0C8CCC
0CFFFE
18CCCC
18CCCC
38CCCC
38CCCC
58FFFC
98C00C
180000
18FFFC
180000
180006
19FFFF
180300
182320
187318
18C30C
198306
1A1F06
180600
ENDCHAR
STARTCHAR uni50C7
ENCODING 20679
SWIDTH 1000 0
DWIDTH 24 0
BBX 24 24 0 -2
BITMAP
040000
070606
06FEFF
063636
0C6666
0CCECE
181E1E
183636
386666
388686
580700
980C80
181860
183038
18621F
198706
180C40
1830E0
18C188
180E1C
187070
1801C0
180700
187800
ENDCHAR
STARTCHAR uni50CE
ENCODING 20686
SWIDTH 1000 0
DWIDTH 24 0
BBX 24 24 0 -2
BITMAP
048C8C
06FEFE
06CCCC
06CCCC
0CCCCC
0CFCFC
18C0C0
18C4C2
38C6C3
38FEFF
587C7E
980000
181CE0
1818C8
18FFFC
1818C0
1818C0
1818C6
19FFFF
182000
183860
18701C
18C00E
1B0006
ENDCHAR
STARTCHAR uni50D4
ENCODING 20692
SWIDTH 1000 0
DWIDTH 24 0
BBX 24 24 0 -2
BITMAP
040080
0713C0
061880
063040
0C2030
0C40DC
18BFEF
1B0906
38FFF8
38C918
58C918
98F1F8
18C018
18FFF8
18C018
18FFF8
180060
180066
1BFFFF
180060
183060
181860
181BE0
1800C0
ENDCHAR
STARTCHAR uni50D9
ENCODING 20697
SWIDTH 1000 0
DWIDTH 24 0
BBX 23 24 0 -2
BITMAP
041C70
071860
061864
06FFFE
0C1860
0C1860
181FE0
180004
39FFFE
380300
584318
987FFC
186318
186318
187FF8
186318
186318
187FF8
186018
181000
181C60
18381C
18600E
198006
ENDCHAR
STARTCHAR uni50E1
ENCODING 20705
SWIDTH 1000 0
DWIDTH 24 0
BBX 24 24 0 -2
BITMAP
040380
07030C
06FFFE
060300
0C7FF8
0C6318
186318
187FF8
386318
386318
587FF8
980310
180308
18FFFC
187E0E
180106
180C80
184CC8
184CC6
18CC03
18CC13
198C10
198FF8
1807F0
ENDCHAR
STARTCHAR uni50E9
ENCODING 20713
SWIDTH 1000 0
DWIDTH 24 0
BBX 24 24 0 -2
BITMAP
048686
06FEFF
06C6C6
06C6C6
0CFEFE
0CC6C6
18C6C6
18FEFE
38C6C6
38C006
58C866
98CFF6
18CC66
18CC66
18CFE6
18CC66
18CC66
18CFE6
18CC66
18C866
18C9E6
18D046
18C03E
18C00C
ENDCHAR
STARTCHAR uni50F3
ENCODING 20723
SWIDTH 1000 0
DWIDTH 24 0
BBX 24 24 0 -2
BITMAP
040006
06FFFF
060CC0
060CC0
0C8CCC
0CFFFE
18CCCC
18CCCC
38CCCC
38FFFC
58C00C
983310
181B38
181B60
180346
19FFFF
180780
180F40
180F60
181B30
18331C
18630F
198306
180300
ENDCHAR
STARTCHAR uni5108
ENCODING 20744
SWIDTH 1000 0
DWIDTH 24 0
BBX 23 24 0 -2
BITMAP
040300
070700
060C80
061860
0C3038
0C6FDE
19800C
180000
38FFFC
38C30C
58D32C
98DB6C
18CB4C
18FFFC
180000
184018
187FFC
186018
186018
187FF8
186018
186018
187FF8
186018
ENDCHAR
STARTCHAR uni5117
ENCODING 20759
SWIDTH 1000 0
DWIDTH 24 0
BBX 24 24 0 -2
BITMAP
08000C
0DC7FE
0D800C
0D9908
19BCD0
19C060
318860
318C06
71FFFF
70F866
B10064
318068
31F860
314260
32436C
304B7E
37FF60
304360
30E360
30B360
31B2E0
310670
320C3F
34300E
ENDCHAR
STARTCHAR uni511B
ENCODING 20763
SWIDTH 1000 0
DWIDTH 24 0
BBX 24 24 0 -2
BITMAP
084000
0E7000
0C600C
0CFFFE
19C920
1A4920
304926
37FFFF
704920
704920
B04926
33FFFF
308000
30CC30
30FD34
318DFE
311930
329930
34F136
302FFF
304030
308030
330030
340030
ENDCHAR
STARTCHAR uni5160
ENCODING 20832
SWIDTH 1000 0
DWIDTH 24 0
BBX 24 24 0 -2
BITMAP
062060
063860
06B364
06FF6E
7EC378
06C360
06C360
06FF60
06C360
06C362
1EC362
F6FF7F
46C33E
000000
010700
01C600
018600
018600
018600
030602
030602
060603
1C07FF
E003FE
ENDCHAR
STARTCHAR uni5173
ENCODING 20851
SWIDTH 1000 0
DWIDTH 24 0
BBX 19 24 2 -2
BITMAP
000200
080380
060300
030600
030400
030800
001300
1FFF80
006000
006000
006000
006000
0060C0
7FFFE0
006000
006000
00D000
00D000
018800
018C00
030700
0603E0
1801C0
E000C0
ENDCHAR
STARTCHAR uni517B
ENCODING 20859
SWIDTH 1000 0
DWIDTH 24 0
BBX 24 24 0 -2
BITMAP
010180
00C1C0
00C20C
7FFFFE
001800
001800
1FFFF8
001800
001806
FFFFFF
01C180
0380C0
060070
0CE3BF
30C30E
C0C302
00C300
00C300
00C300
018300
018300
030300
060300
180300
ENDCHAR
STARTCHAR uni5183
ENCODING 20867
SWIDTH 1000 0
DWIDTH 24 0
BBX 21 24 2 -2
BITMAP
800030
FFFFF8
C00030
C00030
C00030
C00030
C00630
CFFF30
C00030
C00030
C00030
C00030
C00030
C00630
CFFF30
C00030
C00030
C00030
C00030
C00030
C00030
C00030
C001F0
C00060
ENDCHAR
STARTCHAR uni518B
ENCODING 20875
SWIDTH 1000 0
DWIDTH 24 0
BBX 21 24 2 -2
BITMAP
800030
FFFFF8
C00030
C00030
C00030
C00030
C40630
C7FF30
C60630
C60630
C60630
C60630
C60630
C60630
C7FE30
C60630
C60630
C00030
C00030
C00030
C00030
C00030
C001F0
C00060
ENDCHAR
STARTCHAR uni5198
ENCODING 20888
SWIDTH 1000 0
DWIDTH 24 0
BBX 24 24 0 -2
BITMAP
003800
003000
003000
103000
103006
1FFFFF
303006
703004
E03C08
C03C00
006C00
006C00
006C00
00CC00
00CC00
00CC00
018C00
018C00
030C02
030C02
060C02
0C0C03
180FFF
6007FE
ENDCHAR
STARTCHAR uni51A3
ENCODING 20899
SWIDTH 1000 0
DWIDTH 24 0
BBX 24 24 0 -2
BITMAP
100000
100006
1FFFFF
300006
700004
E01008
DFF800
0C6000
0C600C
0C6FFE
0FE20C
0C6208
0C6118
0C6110
0FE0B0
0C60E0
0C6040
0C60E0
0FE0B0
7E6198
38611C
20620F
006406
006802
ENDCHAR
STARTCHAR uni51AD
ENCODING 20909
SWIDTH 1000 0
DWIDTH 24 0
BBX 24 24 0 -2
BITMAP
003800
003000
003000
003006
FFFFFF
006200
00C100
00C180
0180C0
030060
060038
0C701F
301C0E
C00E06
000600
000000
000000
000070
0003C0
001F00
00FC00
03F000
01C000
010000
ENDCHAR
STARTCHAR uni51BC
ENCODING 20924
SWIDTH 1000 0
DWIDTH 24 0
BBX 24 24 0 -2
BITMAP
000380
402300
303B00
183300
1C3318
0C3FFC
006300
004300
028300
020300
040306
05FFFF
0818C0
0818C0
1818C0
3018C0
F018C0
7018C0
3018C2
3030C2
3030C2
3860C3
18C0FF
03007E
ENDCHAR
STARTCHAR uni51F3
ENCODING 20979
SWIDTH 1000 0
DWIDTH 24 0
BBX 24 24 0 -2
BITMAP
000420
0FF670
0032C4
0C638E
06C1D8
0380F0
06FFBF
0C000E
33FFC2
C300C0
0300C0
03FFC0
00C300
00660C
7FFFFE
000000
01FF80
018180
018180
030182
030182
060183
1801FF
6000FE
ENDCHAR
STARTCHAR uni51F4
ENCODING 20980
SWIDTH 1000 0
DWIDTH 24 0
BBX 24 24 0 -2
BITMAP
004030
407FF8
306100
186100
187FF0
006100
026100
047FF0
0C6100
18610C
F87FFE
70000C
30A48C
31924C
39921C
180078
01FF90
018180
018180
030182
030182
060183
1801FF
6000FE
ENDCHAR
STARTCHAR uni5202
ENCODING 20994
SWIDTH 1000 0
DWIDTH 24 0
BBX 11 24 7 -2
BITMAP
00E0
00C0
E0C0
C0C0
C0C0
C0C0
C0C0
C0C0
C0C0
C0C0
C0C0
C0C0
C0C0
C0C0
C0C0
C0C0
C0C0
00C0
00C0
00C0
00C0
00C0
0FC0
0180
ENDCHAR
STARTCHAR uni5212
ENCODING 21010
SWIDTH 1000 0
DWIDTH 24 0
BBX 24 24 0 -2
BITMAP
070007
064006
0630E6
0618C6
0618C6
0600C6
060CC6
FFFEC6
0600C6
0600C6
0610C6
031CC6
0338C6
0330C6
0160C6
01C0C6
0080C6
01C406
034406
066406
0C3406
183E06
201E3E
400C0C
ENDCHAR
STARTCHAR uni5216
ENCODING 21014
SWIDTH 1000 0
DWIDTH 24 0
BBX 24 24 0 -2
BITMAP
103007
1FF806
1831C6
183186
183186
183186
183186
1FF186
183186
183186
183186
183186
183186
1FF186
183186
183186
183186
183006
183006
103006
303006
203006
41F03E
80600C
ENDCHAR
STARTCHAR uni5255
ENCODING 21077
SWIDTH 1000 0
DWIDTH 24 0
BBX 24 24 0 -2
BITMAP
077007
066006
066066
066066
066666
FE7F66
066066
066066
066066
066666
FE7F66
066066
066066
066066
066066
1E6666
F67F66
466006
066006
046006
0C6006
086006
10603E
20600C
ENDCHAR
STARTCHAR uni525C
ENCODING 21084
SWIDTH 1000 0
DWIDTH 24 0
BBX 24 24 0 -2
BITMAP
01C007
018006
218066
218666
3FFF66
600666
600466
1C0066
188C66
18FE66
1ECC66
12CC66
32CC66
2ACC66
2ACC66
46CC66
04DC66
0CCC06
08C006
18C206
10C206
20C306
40FF3E
807E0C
ENDCHAR
STARTCHAR uni526C
ENCODING 21100
SWIDTH 1000 0
DWIDTH 24 0
BBX 24 24 0 -2
BITMAP
030007
030006
6318E6
6318C6
6318C6
6318C6
7FF8C6
6018C6
0000C6
000CC6
FFFEC6
0600C6
0600C6
4418C6
7FFCC6
6498C6
6498C6
649806
649806
649806
649806
649806
64983E
60380C
ENDCHAR
STARTCHAR uni5277
ENCODING 21111
SWIDTH 1000 0
DWIDTH 24 0
BBX 24 24 0 -2
BITMAP
01C007
018C06
7FFEE6
0060C6
0EC0C6
0180C6
0360C6
4C24C6
7FFEC6
6000C6
64E0C6
66C0C6
64C8C6
6FFCC6
68C0C6
70C0C6
60C8C6
6FFC06
60C006
60C006
40CE06
5FF006
8F803E
8C000C
ENDCHAR
STARTCHAR uni5282
ENCODING 21122
SWIDTH 1000 0
DWIDTH 24 0
BBX 24 24 0 -2
BITMAP
400607
7FFF06
402066
513866
49B066
493066
422666
7FFF66
442666
446666
555466
559066
551066
551066
551066
551066
5F3066
442806
442806
446406
4C4606
884606
90863E
A1000C
ENDCHAR
STARTCHAR uni5284
ENCODING 21124
SWIDTH 1000 0
DWIDTH 24 0
BBX 24 24 0 -2
BITMAP
183007
102006
3264E6
3F7EC6
68D0C6
4C98C6
8C18C6
0180C6
0180C6
0360C6
0618C6
0C0CC6
1866C6
37F6C6
C000C6
1018C6
1FFCC6
181806
181806
181806
181806
1FF806
18183E
18000C
ENDCHAR
STARTCHAR uni5298
ENCODING 21144
SWIDTH 1000 0
DWIDTH 24 0
BBX 24 24 0 -2
BITMAP
00E007
40C606
7FFF66
620866
620866
7FFF66
620866
6AAA66
6AAA66
6A2AE6
724B66
600066
619C66
619866
6F9F66
619866
6F9866
619F06
47D806
5D1906
4B1F86
861806
84183E
88180C
ENDCHAR
STARTCHAR uni52A4
ENCODING 21156
SWIDTH 1000 0
DWIDTH 24 0
BBX 24 24 0 -2
BITMAP
0061C0
00F180
238180
3C0180
300180
300186
301FFF
306186
3FF186
318186
318186
318186
318186
318186
318186
318306
318306
218306
21860E
61860C
418C0C
41881C
8190F8
01A030
ENDCHAR
STARTCHAR uni52A6
ENCODING 21158
SWIDTH 1000 0
DWIDTH 24 0
BBX 23 24 1 -2
BITMAP
003000
003000
003060
3FFFF0
006060
006060
006060
00C060
00C0C0
0180C0
030180
0C0F80
300300
180180
180180
18C18C
FFEFFE
18C18C
18C18C
18C18C
30C30C
318318
678678
830830
ENDCHAR
STARTCHAR uni52AF
ENCODING 21167
SWIDTH 1000 0
DWIDTH 24 0
BBX 24 24 0 -2
BITMAP
0001C0
006180
FFF180
0C0180
0C0180
0C0186
0C1FFF
180186
180186
10C186
3FE186
38C186
78C186
58C186
98C186
18C306
18C306
18C306
1FC60E
18C60C
180C0C
00081C
0010F8
002030
ENDCHAR
STARTCHAR uni52BA
ENCODING 21178
SWIDTH 1000 0
DWIDTH 24 0
BBX 24 24 0 -2
BITMAP
0801C0
0E0180
0C0180
090180
088180
10C186
FF6FFF
786186
400186
070186
260186
366186
3FF186
660186
460186
860306
063306
FFFB06
06060E
06060C
060C0C
06081C
0610F8
062030
ENDCHAR
STARTCHAR uni52BB
ENCODING 21179
SWIDTH 1000 0
DWIDTH 24 0
BBX 23 24 1 -2
BITMAP
0001C0
803180
FFF980
C00180
C06180
DFF18C
C30FFE
C3018C
C3018C
C3018C
C3618C
DFF18C
C3018C
C3018C
C3018C
C3030C
C3030C
C3630C
DFF61C
C00618
C02C18
FFF838
C010F0
002060
ENDCHAR
STARTCHAR uni52CA
ENCODING 21194
SWIDTH 1000 0
DWIDTH 24 0
BBX 24 24 0 -2
BITMAP
0701C0
060180
063180
FFF980
06018C
061FFE
26618C
3FF18C
30618C
30618C
30618C
30630C
3FE30C
0D830C
0D860C
0D861C
0D8C18
198838
1991F2
11A062
318003
21FFFF
40FFFE
800000
ENDCHAR
STARTCHAR uni52D1
ENCODING 21201
SWIDTH 1000 0
DWIDTH 24 0
BBX 24 24 0 -2
BITMAP
0300E0
0300C0
0300C0
0318C0
FFFCC0
0300C6
0307FF
3330C6
2320C6
3330C6
6B68C6
4F4CC6
8F8CC6
0300C6
0700C6
078186
0FC186
0B6186
1B330E
33330C
63060C
83041C
0308F8
031030
ENDCHAR
STARTCHAR uni52F7
ENCODING 21239
SWIDTH 1000 0
DWIDTH 24 0
BBX 24 24 0 -2
BITMAP
0380E0
030CC0
FFFEC0
0000C0
3EF8C0
2698C6
269BFF
3EF8C6
0C60C6
3FF8C6
0C60C6
3FF8C6
0C60C6
0C6CC6
FFFEC6
0608C6
1D8CC6
78D886
987086
186186
1F3106
FC310E
70027C
400418
ENDCHAR
STARTCHAR uni530A
ENCODING 21258
SWIDTH 1000 0
DWIDTH 24 0
BBX 23 24 0 -2
BITMAP
020000
038000
030000
06000C
07FFFE
0C000C
0C380C
18310C
1431CC
23318C
41B30C
81B40C
0030CC
1FFFEC
00300C
00780C
00F60C
01B38C
0331CC
0630DC
083018
103038
0031F0
000060
ENDCHAR
STARTCHAR uni530B
ENCODING 21259
SWIDTH 1000 0
DWIDTH 24 0
BBX 23 24 0 -2
BITMAP
020000
038000
030000
06000C
07FFFE
0C000C
0DC00C
19800C
11810C
23FF8C
42300C
84300C
00304C
1FFFEC
00300C
00300C
06318C
06318C
06318C
07FF9C
060198
060038
0001F0
000060
ENDCHAR
STARTCHAR uni5324
ENCODING 21284
SWIDTH 1000 0
DWIDTH 24 0
BBX 22 23 2 -2
BITMAP
800030
FFFFF8
C00000
C00000
C000C0
CFFFE0
C03000
C03000
C03000
C03180
C7FFC0
C03000
C03300
C03180
C03180
C03060
DFFFF0
C00000
C00000
C00018
FFFFFC
C00000
C00000
ENDCHAR
STARTCHAR uni5335
ENCODING 21301
SWIDTH 1000 0
DWIDTH 24 0
BBX 22 24 2 -2
BITMAP
800030
FFFFF8
C01800
CFFFF0
C01800
C7FFE0
C00000
CFFFF0
CC6430
CCC7F0
CD0030
CFFFF0
C300C0
C3FFC0
C300C0
C3FFC0
C300C0
C3FFC0
C08200
C1C1C0
C380E0
CE0068
FFFFFC
C00000
ENDCHAR
STARTCHAR uni533E
ENCODING 21310
SWIDTH 1000 0
DWIDTH 24 0
BBX 24 22 0 -1
BITMAP
000006
FFFFFF
300000
300060
3107F0
31FE00
318000
31FFF0
318030
31FFF0
318000
31FFF8
316498
316498
317FF8
326498
326498
346478
306030
380000
3FFFFE
1FFFFE
ENDCHAR
STARTCHAR uni5342
ENCODING 21314
SWIDTH 1000 0
DWIDTH 24 0
BBX 24 24 0 -2
BITMAP
000030
FFFFF8
000030
00E030
00C030
00C030
00C030
00C030
00C030
00C030
00C030
00C330
7FFFB0
00C030
00C030
00C030
00C012
00C012
00C01A
00C00A
00C00E
00C006
00C007
00C003
ENDCHAR
STARTCHAR uni5367
ENCODING 21351
SWIDTH 1000 0
DWIDTH 24 0
BBX 22 24 1 -2
BITMAP
000380
806300
FFF300
C60300
C60300
C60300
C60300
C60300
FFC300
C0C380
C0C360
C0C330
C0C318
FFC31C
C6030C
C60300
C60300
C60300
C60300
C66300
FFF300
C00300
000300
000300
ENDCHAR
STARTCHAR uni536C
ENCODING 21356
SWIDTH 1000 0
DWIDTH 24 0
BBX 24 24 0 -2
BITMAP
006000
00F000
138406
1C07FF
180606
180606
180606
180606
180606
180606
180606
180606
180606
180606
180606
187606
1BC606
1F0606
FC067E
70061C
400600
000600
000600
000600
ENDCHAR
STARTCHAR uni537A
ENCODING 21370
SWIDTH 1000 0
DWIDTH 24 0
BBX 24 24 0 -2
BITMAP
000180
07FFC0
000300
000610
01981C
7FDC38
019E60
031B80
0619E0
0C1878
30181F
C0F806
00300C
7FFFFE
000000
0FFFE0
0C0060
0C0060
0C03E0
0C00C0
0C0008
0C0008
0FFFFC
07FFF8
ENDCHAR
STARTCHAR uni53A4
ENCODING 21412
SWIDTH 1000 0
DWIDTH 24 0
BBX 24 24 0 -2
BITMAP
100006
1FFFFF
180000
181818
187C7C
19E1E0
1E6660
186060
186060
1FFFFE
186060
18E060
18F0E0
18E8F0
19EDF0
196D78
396368
33626C
326466
366467
246862
686060
406060
806060
ENDCHAR
STARTCHAR uni53B4
ENCODING 21428
SWIDTH 1000 0
DWIDTH 24 0
BBX 24 24 0 -2
BITMAP
200006
3FFFFF
300000
37F0C0
3630D8
37F0CC
3630CC
37F0C2
3007FF
37F0A0
3630A0
37F190
363118
37F10C
36320F
366406
300000
33FFFC
23060C
63FFFC
63060C
43FFFC
800600
000600
ENDCHAR
STARTCHAR uni53B7
ENCODING 21431
SWIDTH 1000 0
DWIDTH 24 0
BBX 24 24 0 -2
BITMAP
004000
007000
006000
006000
006000
00C006
FFFFFF
00C000
00C000
018800
018E00
030C00
030C00
061800
041800
0C1880
083040
103060
206030
406030
8041F8
07FE18
03E018
020000
ENDCHAR
STARTCHAR uni53C0
ENCODING 21440
SWIDTH 1000 0
DWIDTH 24 0
BBX 22 24 1 -2
BITMAP
003800
003000
003018
FFFFFC
003000
003000
103060
1FFFF0
183060
183060
183060
1FFFE0
183060
183060
183060
1FFFE0
006000
00C200
018180
0300C0
060060
7FFFF0
3FE030
200030
ENDCHAR
STARTCHAR uni53D5
ENCODING 21461
SWIDTH 1000 0
DWIDTH 24 0
BBX 24 24 0 -2
BITMAP
006006
7FF7FF
006006
30C30C
0CC0CC
078078
030030
058058
0CC0CC
18E18E
206206
C00C00
006006
7FF7FF
006106
30C18C
0CC08C
0780D8
030070
058070
0CC0D8
18E18C
206207
C00C02
ENDCHAR
STARTCHAR uni53DA
ENCODING 21466
SWIDTH 1000 0
DWIDTH 24 0
BBX 23 23 1 -2
BITMAP
80C018
FFEFFC
C0C018
C0C018
C0C018
C0C018
FFCFF8
C0C018
C00000
C00000
C18018
FFDFFC
C00418
C00418
C00230
C18230
FFC160
C000C0
C001C0
C00360
C00638
C0181E
C0600C
ENDCHAR
STARTCHAR uni53F4
ENCODING 21492
SWIDTH 1000 0
DWIDTH 24 0
BBX 24 24 0 -2
BITMAP
007000
006000
006000
0060C0
7FFFE0
0060C0
0060C0
00C0C0
00C0C2
0180C2
0300C3
0600FF
18007E
E00000
040060
07FFF0
060060
060060
060060
060060
060060
060060
07FFE0
060060
ENDCHAR
STARTCHAR uni53F5
ENCODING 21493
SWIDTH 1000 0
DWIDTH 24 0
BBX 22 23 2 -2
BITMAP
800030
FFFFF8
C00000
C00000
C00000
C20300
C3FF80
C30300
C30300
C30300
C30300
C30300
C30300
C30300
C3FF00
C30300
C30000
C00000
C00000
C00018
FFFFFC
C00000
C00000
ENDCHAR
STARTCHAR uni5424
ENCODING 21540
SWIDTH 1000 0
DWIDTH 24 0
BBX 23 24 1 -2
BITMAP
000300
000300
000680
860680
FF0C40
C60860
C61830
C63038
C6201E
C6400C
C69C70
C61860
C61860
C61860
C61860
FE1860
C61860
C01860
001060
001060
003060
002060
004060
018060
ENDCHAR
STARTCHAR uni5428
ENCODING 21544
SWIDTH 1000 0
DWIDTH 24 0
BBX 23 24 1 -2
BITMAP
000380
000300
00030C
86033E
FF03E0
C6FF00
C60300
C60300
C6731C
C66318
C66318
C66318
C66318
C66318
C66318
FE7FF8
C66318
C06300
000304
000304
000304
000306
0003FE
0001FC
ENDCHAR
STARTCHAR uni5443
ENCODING 21571
SWIDTH 1000 0
DWIDTH 24 0
BBX 23 24 1 -2
BITMAP
00400C
007FFE
006000
866000
FF6000
C66418
C667FC
C66618
C66618
C66618
C66618
C66618
C66618
C66618
C66678
FE6630
C64600
C0C600
00C604
008604
018604
010606
0207FE
0003FC
ENDCHAR
STARTCHAR uni5455
ENCODING 21589
SWIDTH 1000 0
DWIDTH 24 0
BBX 23 23 1 -2
BITMAP
004018
007FFC
866000
FF6020
C66038
C66830
C66430
C66260
C66360
C66140
C661C0
C66080
C661C0
C66160
FE6360
C66230
C06430
006830
007000
00600C
007FFE
006000
006000
ENDCHAR
STARTCHAR uni5462
ENCODING 21602
SWIDTH 1000 0
DWIDTH 24 0
BBX 23 24 1 -2
BITMAP
004018
007FFC
006018
866018
FF6018
C66018
C67FF8
C66018
C66000
C66700
C66600
C66610
C6661C
C66638
C66660
FE6780
C64600
C0C600
00C604
008604
018604
010606
0207FE
0003FC
ENDCHAR
STARTCHAR uni5466
ENCODING 21606
SWIDTH 1000 0
DWIDTH 24 0
BBX 23 24 1 -2
BITMAP
0040E0
0070C0
0060C0
8C60C0
FC40C0
CC40CC
CC93FE
CC9CCC
CE18CC
CD18CC
CDB0CC
CDB0CC
CC20CC
CC60CC
CC40CC
FC50CC
CC898C
C0898C
013D8C
07CD1C
038318
020218
0004F8
000830
ENDCHAR
STARTCHAR uni546C
ENCODING 21612
SWIDTH 1000 0
DWIDTH 24 0
BBX 23 22 1 -1
BITMAP
01000C
01FFFE
8D998C
FD998C
CD998C
CD998C
CD998C
CD998C
CD998C
CD998C
CD998C
CD918C
CDB1FC
CDA0FC
FDC00C
CD800C
C1800C
01800C
01800C
01FFFC
01800C
018000
ENDCHAR
STARTCHAR uni548A
ENCODING 21642
SWIDTH 1000 0
DWIDTH 24 0
BBX 23 24 1 -2
BITMAP
000060
0001F0
000780
863F00
FF0300
C60300
C60300
C6030C
C6FFFE
C60300
C60300
C60780
C60780
C60F40
C60B40
FE1B60
C61330
C03338
00231E
00431C
00830C
010300
000300
000300
ENDCHAR
STARTCHAR uni548D
ENCODING 21645
SWIDTH 1000 0
DWIDTH 24 0
BBX 23 24 1 -2
BITMAP
000400
000700
000600
860600
FF0C00
C60C40
C60830
C61818
C610EC
C6FF0E
C67806
C64006
C60000
C62018
C63FFC
FE3018
C63018
C03018
003018
003018
003018
003018
003FF8
003018
ENDCHAR
STARTCHAR uni5495
ENCODING 21653
SWIDTH 1000 0
DWIDTH 24 0
BBX 23 24 1 -2
BITMAP
000380
000300
000300
860300
FF030C
C6FFFE
C60300
C60300
C60300
C60300
C60300
C60300
C64318
C67FFC
C66018
FE6018
C66018
C06018
006018
006018
006018
007FF8
006018
006018
ENDCHAR
STARTCHAR uni54A0
ENCODING 21664
SWIDTH 1000 0
DWIDTH 24 0
BBX 22 24 1 -2
BITMAP
040180
07FFC0
060180
060180
060180
07FF80
060180
000018
FFFFFC
060180
060180
07FF80
060180
060180
060180
07FF80
060180
060180
0601F0
FFFF80
7F0180
400180
000180
000180
ENDCHAR
STARTCHAR uni54A6
ENCODING 21670
SWIDTH 1000 0
DWIDTH 24 0
BBX 23 24 1 -2
BITMAP
000700
000600
00060C
8DFFFE
FE0600
CC0630
CDFFF8
CC0630
CC8630
CCFFF0
CCC630
CCC600
CCC60C
CDFFFE
CD8D0C
FC0D0C
CC0C8C
C0189C
0018C8
003060
003070
00603E
00C01C
03000C
ENDCHAR
STARTCHAR uni54AD
ENCODING 21677
SWIDTH 1000 0
DWIDTH 24 0
BBX 23 24 1 -2
BITMAP
000380
000300
000300
860300
FF030C
C6FFFE
C60300
C60300
C60300
C60300
C60318
C67FFC
C60000
C60000
C64018
FE7FFC
C66018
C06018
006018
006018
006018
006018
007FF8
006018
ENDCHAR
STARTCHAR uni54AE
ENCODING 21678
SWIDTH 1000 0
DWIDTH 24 0
BBX 23 24 1 -2
BITMAP
000380
000300
002300
863B00
FF3300
C63318
C63FFC
C66300
C64300
C68300
C60300
C6030C
C6FFFE
C60F40
C60F40
FE0B20
C61B20
C01330
003318
00231E
00430C
01830C
000300
000300
ENDCHAR
STARTCHAR uni54B7
ENCODING 21687
SWIDTH 1000 0
DWIDTH 24 0
BBX 23 24 1 -2
BITMAP
0019C0
001980
001980
8C1980
FE1988
CD198E
CC998C
CCD998
CCD9A0
CCD9C0
CC1980
CC1980
CC19A0
CC3998
CFD98C
FD9986
CD1986
C01980
003184
003184
006186
00C1FE
0180FC
060000
ENDCHAR
STARTCHAR uni54BA
ENCODING 21690
SWIDTH 1000 0
DWIDTH 24 0
BBX 23 22 1 -1
BITMAP
000018
01FFFC
8C0000
FE0000
CC0000
CC4030
CC7FF8
CC6030
CC6030
CC6030
CC6030
CC7FF0
CC6030
CC6030
FC6030
CC6030
C07FF0
006030
000000
000000
00000C
07FFFE
ENDCHAR
STARTCHAR uni54BF
ENCODING 21695
SWIDTH 1000 0
DWIDTH 24 0
BBX 23 24 1 -2
BITMAP
002000
003018
0037FC
8C6198
FE6198
CC6198
CCC198
CCC198
CDDFFE
CDC198
CEC198
CCC198
CCC198
CCC198
CCCFF8
FCC198
CCC180
C0C180
00C300
00C300
00C600
00C400
00C800
00D000
ENDCHAR
STARTCHAR uni54C3
ENCODING 21699
SWIDTH 1000 0
DWIDTH 24 0
BBX 23 24 1 -2
BITMAP
01000C
01FFFE
01800C
8D800C
FD80CC
CDBFEC
CD800C
CD800C
CD800C
CD90CC
CD9FEC
CD98CC
CD98CC
CD98CC
CD98CC
FD98CC
CD9FCC
C198CC
0198CC
01800C
01800C
01800C
01807C
018018
ENDCHAR
STARTCHAR uni54EC
ENCODING 21740
SWIDTH 1000 0
DWIDTH 24 0
BBX 23 24 1 -2
BITMAP
002000
00300C
003FFE
8C6018
FE6018
CC6018
CCC998
CCCFD8
CDC998
CDC998
CEC998
CCC998
CCC998
CCC998
CCCF98
FCC998
CCC018
C0C018
00C018
00C018
00C018
00C018
00C0F8
00C030
ENDCHAR
STARTCHAR uni54EF
ENCODING 21743
SWIDTH 1000 0
DWIDTH 24 0
BBX 23 24 1 -2
BITMAP
004018
007FFC
866018
FF6018
C66018
C67FF8
C66018
C66018
C66018
C67FF8
C66018
C66018
C66018
C66018
C67FF8
FE68D8
C60EC0
C00CC0
001CC4
0018C4
0030C4
0060C6
0180FE
06007C
ENDCHAR
STARTCHAR uni54F1
ENCODING 21745
SWIDTH 1000 0
DWIDTH 24 0
BBX 23 24 1 -2
BITMAP
000380
000300
00030C
86FFFE
FF0300
C64300
C6430C
C67FFE
C6C00C
C6C008
C6C030
C63FF8
C60060
C60040
C60280
FE030C
C6FFFE
C00300
000300
000300
000300
000300
001F00
000600
ENDCHAR
STARTCHAR uni54F3
ENCODING 21747
SWIDTH 1000 0
DWIDTH 24 0
BBX 23 24 1 -2
BITMAP
007018
00603C
006270
8C63C0
FE6300
CC6B00
CDFF00
CC630C
CC63FE
CC6330
CC6330
CC6330
CC6B30
CC7330
CCE330
FDE330
CC6330
C06230
006230
006630
006430
006430
01E830
00C830
ENDCHAR
STARTCHAR uni5500
ENCODING 21760
SWIDTH 1000 0
DWIDTH 24 0
BBX 23 24 1 -2
BITMAP
000060
0003F0
003F00
860300
FF030C
C67FFE
C60740
C60F20
C60B30
C61318
C6231E
C6C30C
C60060
C67FF0
C60C60
FE0C6C
C60CFE
C018CC
00180C
00100C
00301C
002018
0040F8
008030
ENDCHAR
STARTCHAR uni5501
ENCODING 21761
SWIDTH 1000 0
DWIDTH 24 0
BBX 23 24 1 -2
BITMAP
000030
007FF8
000000
860000
FF000C
C6FFFE
C60000
C60000
C60030
C67FF8
C60000
C60000
C60030
C67FF8
C60000
FE0000
C64018
C07FFC
006018
006018
006018
006018
007FF8
006018
ENDCHAR
STARTCHAR uni5509
ENCODING 21769
SWIDTH 1000 0
DWIDTH 24 0
BBX 23 24 1 -2
BITMAP
000800
000E00
000C40
8C0820
FE1030
CCFFF8
CC7C18
CC4018
CC0000
CC3800
CC3030
CC7FF8
CC4600
CC8600
CC060C
FDFFFE
CC0D00
C00D00
001880
0018C0
003070
00603E
01801C
06000C
ENDCHAR
STARTCHAR uni553C
ENCODING 21820
SWIDTH 1000 0
DWIDTH 24 0
BBX 23 24 1 -2
BITMAP
000380
000300
000318
867FFC
FF1040
C60870
C60C60
C60C40
C6008C
C6FFFE
C60000
C60800
C60E00
C60C0C
C6FFFE
FE1830
C63060
C03060
006EC0
006180
0003C0
000670
001838
00E018
ENDCHAR
STARTCHAR uni5541
ENCODING 21825
SWIDTH 1000 0
DWIDTH 24 0
BBX 23 23 1 -2
BITMAP
00800C
00FFFE
8CC00C
FEC38C
CCC30C
CCC30C
CCDFEC
CCC30C
CCC30C
CCDFEC
CCC30C
CCC30C
CCC00C
CCCFCC
FCCCCC
CCCCCC
C18CCC
018CCC
010FCC
01000C
02000C
02007C
040018
ENDCHAR
STARTCHAR uni5547
ENCODING 21831
SWIDTH 1000 0
DWIDTH 24 0
BBX 24 24 0 -2
BITMAP
001C00
001800
001806
FFFFFF
020100
0101C0
018180
018100
20020C
3FFFFE
30000C
30180C
3018CC
37FFEC
30180C
31198C
31FFCC
31818C
31818C
31818C
31FF8C
31818C
30007C
300018
ENDCHAR
STARTCHAR uni554A
ENCODING 21834
SWIDTH 1000 0
DWIDTH 24 0
BBX 23 24 1 -2
BITMAP
01180C
01FFFE
019818
8D9818
FD9018
CD9018
CDA018
CDA3D8
CD9258
CD9258
CD9A58
CD9A58
CD9A58
CD9A58
CD9BD8
FD9818
CDF818
C1B018
018018
018018
018018
018018
0180F8
018030
ENDCHAR
STARTCHAR uni5560
ENCODING 21856
SWIDTH 1000 0
DWIDTH 24 0
BBX 24 24 0 -2
BITMAP
00C00C
23E23E
3F03F0
300300
300300
306306
3FF3FF
318318
318318
318318
618618
618618
418418
818818
000000
080030
0FFFF8
0C0030
0C0030
0C0030
0C0030
0C0030
0FFFF0
0C0030
ENDCHAR
STARTCHAR uni5561
ENCODING 21857
SWIDTH 1000 0
DWIDTH 24 0
BBX 23 24 1 -2
BITMAP
000CE0
000CC0
000CC0
8C0CC0
FE0CCC
CCFCFE
CC0CC0
CC0CC0
CC0CC0
CC0CD8
CCFCFC
CC0CC0
CC0CC0
CC0CC0
CC0EC0
FDFCCC
CCECFE
C08CC0
000CC0
0018C0
0018C0
0030C0
0060C0
0180C0
ENDCHAR
STARTCHAR uni5564
ENCODING 21860
SWIDTH 1000 0
DWIDTH 24 0
BBX 23 24 1 -2
BITMAP
000200
000380
000300
864418
FF7FFC
C66318
C66318
C66318
C67FF8
C66318
C66618
C66618
C67FF8
C60C00
C619C0
FE3180
C6418C
C1FFFE
000180
000180
000180
000180
000180
000180
ENDCHAR
STARTCHAR uni557D
ENCODING 21885
SWIDTH 1000 0
DWIDTH 24 0
BBX 23 24 1 -2
BITMAP
000600
000700
000C80
8C18C0
FE3060
CC6038
CCDFDE
CF000C
CC7FF0
CC6030
CC6030
CC7FF0
CC6030
CC0000
CC1860
FC1864
CDFFFE
C01860
001860
003060
003060
006060
00C060
030060
ENDCHAR
STARTCHAR uni5582
ENCODING 21890
SWIDTH 1000 0
DWIDTH 24 0
BBX 22 24 1 -2
BITMAP
008030
00FFF8
00C630
8CC630
FEC630
CCFFF0
CCC630
CCC630
CCC630
CCFFF0
CCC030
CC0000
CC0018
CFFFFC
CC6420
FC6438
CC6270
C062C0
006100
006180
006CE0
03F07C
01C038
010018
ENDCHAR
STARTCHAR uni5588
ENCODING 21896
SWIDTH 1000 0
DWIDTH 24 0
BBX 23 24 1 -2
BITMAP
0038E0
0030C0
0030C8
8630CE
FF3EDC
C630E0
C630C4
C630C4
C636C6
C6F8FE
C6607C
C64200
C60380
C62318
C63FFC
FE3018
C63018
C03018
003FF8
003018
003018
003018
003FF8
003018
ENDCHAR
STARTCHAR uni5591
ENCODING 21905
SWIDTH 1000 0
DWIDTH 24 0
BBX 23 24 1 -2
BITMAP
000380
000300
000318
867FFC
FF0040
C61070
C60860
C60CC0
C60C80
C6010C
C6FFFE
C60000
C62030
C63FF8
C63030
FE3030
C63030
C03FF0
003030
003030
003030
003030
003FF0
003030
ENDCHAR
STARTCHAR uni55BF
ENCODING 21951
SWIDTH 1000 0
DWIDTH 24 0
BBX 24 24 0 -2
BITMAP
0200C0
03FFE0
0300C0
0300C0
0300C0
03FFC0
0300C0
40C206
7FE3FF
60C306
60C306
60C306
7FC3FE
60DB00
001806
FFFFFF
007C00
00FA00
01D900
0318C0
0C1870
30183F
C0181E
001806
ENDCHAR
STARTCHAR uni55C9
ENCODING 21961
SWIDTH 1000 0
DWIDTH 24 0
BBX 23 24 1 -2
BITMAP
000300
000318
00FFFC
860300
FF0318
C67FFC
C60300
C6030C
C6FFFE
C60200
C64C40
C63070
C618E0
C61D80
C60618
FFFFEC
C6FB06
C08306
002340
003B30
007318
00C31C
01830C
020300
ENDCHAR
STARTCHAR uni55CC
ENCODING 21964
SWIDTH 1000 0
DWIDTH 24 0
BBX 23 23 1 -1
BITMAP
000020
000FF0
002020
8C3010
FE6018
CC40CE
CC9FE4
CD0000
CC0000
CC0020
CC27F0
CC3020
CC6010
CC4018
CC800E
FCFFF4
CD4930
C04930
004930
004930
004930
004934
03FFFE
ENDCHAR
STARTCHAR uni55D1
ENCODING 21969
SWIDTH 1000 0
DWIDTH 24 0
BBX 23 23 1 -1
BITMAP
000700
000600
000630
8CFFF8
FE0600
CC0600
CC060C
CDFFFE
CC1800
CC1040
CC3020
CC2030
CDFFF8
CCF818
CC8018
FC0000
CCFFF0
C0C930
00C930
00C930
00C930
00C934
07FFFE
ENDCHAR
STARTCHAR uni55D2
ENCODING 21970
SWIDTH 1000 0
DWIDTH 24 0
BBX 23 24 1 -2
BITMAP
0038E0
0030C0
0030CC
8DFFFE
FE30C0
CC30C0
CC0600
CC0E00
CC0D00
CC18C0
CC3070
CC603E
CCDFCC
CF0000
CC0000
FC4030
CC7FF8
C06030
006030
006030
006030
007FF0
006030
006030
ENDCHAR
STARTCHAR uni55DD
ENCODING 21981
SWIDTH 1000 0
DWIDTH 24 0
BBX 23 24 1 -2
BITMAP
00000C
00FFFE
000000
862030
FF3FF8
C63030
C63030
C63030
C63FF0
C60000
C6800C
C6FFFE
C6CCCC
C6CCCC
C6CCCC
FED87C
C6E00C
C0C00C
00DFEC
00C30C
00C30C
00C30C
00C33C
00C318
ENDCHAR
STARTCHAR uni55E2
ENCODING 21986
SWIDTH 1000 0
DWIDTH 24 0
BBX 23 22 1 -1
BITMAP
008030
00FFF8
8CC030
FEC730
CCC630
CCCC30
CCDBB0
CCD1B0
CCC030
CCFFF0
CCC030
CC0000
CD0018
CDFFFC
FD9998
CD9998
C19998
019998
019998
019998
019998
07FFFE
ENDCHAR
STARTCHAR uni55E9
ENCODING 21993
SWIDTH 1000 0
DWIDTH 24 0
BBX 23 24 1 -2
BITMAP
002380
003B60
863338
FF631C
C6430C
C68300
C67FF8
C66018
C66018
C66018
C67FF8
C66018
C66018
C66018
C67FF8
FE6018
C66018
C06018
007FF8
002000
003860
00701C
00C00E
030006
ENDCHAR
STARTCHAR uni5607
ENCODING 22023
SWIDTH 1000 0
DWIDTH 24 0
BBX 23 24 1 -2
BITMAP
000800
000E00
000C40
8C1030
FEFFD8
CC7818
CC0000
CCC618
CC8610
CD2D24
CFECBE
CD1862
CC3230
CC671E
CCCE0C
FD1880
CC31C0
C0C388
000E1C
003038
00C0E0
000380
001C00
00E000
ENDCHAR
STARTCHAR uni5610
ENCODING 22032
SWIDTH 1000 0
DWIDTH 24 0
BBX 23 23 1 -2
BITMAP
000C0C
01FDFE
8C6C6C
FCCCCC
CD9D9C
CC3C3C
CC6C6C
CCCCCC
CD0D0C
CC0E00
CC1900
CC30C0
CC6070
CCC43E
FF0E0C
CC1880
C061C0
018310
001C38
00E0E0
000380
000E00
00F000
ENDCHAR
STARTCHAR uni5628
ENCODING 22056
SWIDTH 1000 0
DWIDTH 24 0
BBX 23 24 1 -2
BITMAP
000380
000318
8C7FFC
FE0318
CC0318
CCFFFE
CC0318
CC0318
CC7FF8
CC0300
CCE30E
CCD32C
CCDB6C
CCCB4C
CCC30C
FCFFFC
CCC70C
C0C78C
00CB4C
008B6C
00932C
01A32C
01030C
02030C
ENDCHAR
STARTCHAR uni5630
ENCODING 22064
SWIDTH 1000 0
DWIDTH 24 0
BBX 23 24 1 -2
BITMAP
002390
003318
006330
8D83C0
FED368
CC5B2C
CC3318
CC2310
CC4B24
CDFFFE
CCE572
CC8148
CC0104
CCFFFE
CCC100
FCC110
CCE198
C0D8B0
00CCE0
00CC44
0080E4
0181B4
01061E
021806
ENDCHAR
STARTCHAR uni5637
ENCODING 22071
SWIDTH 1000 0
DWIDTH 24 0
BBX 23 24 1 -2
BITMAP
000400
000700
004618
867FFC
FF6018
C67FF8
C66018
C67FF8
C66018
C66018
C67FF8
C66018
C60380
C6FB7C
C60300
FEFB7C
C60300
C0030C
01FFFE
000300
000300
000300
000300
000300
ENDCHAR
STARTCHAR uni563D
ENCODING 22077
SWIDTH 1000 0
DWIDTH 24 0
BBX 23 24 1 -2
BITMAP
008C8C
00FEFE
008C8C
8C8C8C
FE8C8C
CCFCFC
CC0000
CC7FF8
CC6318
CC6318
CC6318
CC7FF8
CC6318
CC6318
CC6318
FC7FF8
CC0300
C00300
00030C
00FFFE
000300
000300
000300
000300
ENDCHAR
STARTCHAR uni563F
ENCODING 22079
SWIDTH 1000 0
DWIDTH 24 0
BBX 23 24 1 -2
BITMAP
008018
00FFFC
00C618
8CE698
FEF6F8
CCDED8
CCDE98
CCCF18
CCC618
CCFFF8
CCC618
CC0600
CC0618
CCFFFC
CC0600
FC0600
CC060C
C1FFFE
000000
012210
01118C
0318C6
0718C6
0618C6
ENDCHAR
STARTCHAR uni5640
ENCODING 22080
SWIDTH 1000 0
DWIDTH 24 0
BBX 23 24 1 -2
BITMAP
008C8C
00FEFE
00CCCC
8CCCCC
FEFCFC
CCC0C0
CCC4C4
CCC4C4
CCFEFE
CC7C7C
CC0000
CC18C0
CC18C8
CCFFFC
CC18C0
FC18C0
CC18C4
C1FFFE
000000
002000
0038E0
007038
00C01C
03000C
ENDCHAR
STARTCHAR uni5647
ENCODING 22087
SWIDTH 1000 0
DWIDTH 24 0
BBX 22 23 1 -1
BITMAP
000700
000600
000630
8CFFF8
FE2080
CC18C0
CC0880
CC0118
CDFFFC
CC0000
CCFFF0
CCC630
CCC630
CCFFF0
CCC630
FCC630
CCFFF0
C00600
000630
00FFF8
000600
000618
03FFFC
ENDCHAR
STARTCHAR uni565E
ENCODING 22110
SWIDTH 1000 0
DWIDTH 24 0
BBX 23 24 1 -2
BITMAP
000600
000600
000D00
860C80
FF18C0
C63070
C6603E
C6DFDC
C7000C
C60000
C64C98
C67EFC
C64C98
C64C98
C64C98
FE7CF8
C60000
C02040
003870
003060
006CD0
004488
00810C
01020C
ENDCHAR
STARTCHAR uni5660
ENCODING 22112
SWIDTH 1000 0
DWIDTH 24 0
BBX 23 24 1 -2
BITMAP
0000E0
0080C0
0040C0
8C6FFC
FE60C0
CC00C0
CC9FFE
CC4210
CC6118
CC6110
CC6020
CC07FC
CC60C0
CFF0C0
CC67FC
FC60C0
CC60C0
C06FFE
0060C0
0060C0
0060C0
03D000
018FFE
0103FC
ENDCHAR
STARTCHAR uni566D
ENCODING 22125
SWIDTH 1000 0
DWIDTH 24 0
BBX 23 24 1 -2
BITMAP
004100
0061C0
00C180
8DF980
FD9980
CD998C
CDF9FE
CD9918
CD9B18
CDFA98
CC0498
CC6098
CC60B0
CFFEB0
CCC0B0
FCC060
CCFC60
C0CC40
00CCE0
018CA0
0199B0
03191E
047A1C
00340C
ENDCHAR
STARTCHAR uni5688
ENCODING 22152
SWIDTH 1000 0
DWIDTH 24 0
BBX 23 24 1 -2
BITMAP
02000C
03FFFE
030000
9B4638
FB7F30
DB6634
DB7E36
DB6632
DB6630
DB7EFE
DB0030
DB4630
DB7F30
DB6628
DB6668
FB7E68
DB6668
C2666C
067E4C
06664C
0466C6
046686
086684
006D00
ENDCHAR
STARTCHAR uni568C
ENCODING 22156
SWIDTH 1000 0
DWIDTH 24 0
BBX 23 24 1 -2
BITMAP
000380
000300
00030C
8DFFFE
FE0880
CC04CC
CDF6B8
CC5328
CC5328
CCD32C
CC9334
CCB366
CD0302
CC6018
CC6018
FC7FF8
CC6018
C06018
007FF8
006018
00C018
00C018
018018
020018
ENDCHAR
STARTCHAR uni5695
ENCODING 22165
SWIDTH 1000 0
DWIDTH 24 0
BBX 23 24 1 -2
BITMAP
002000
0030C0
007FE0
8C6180
FEC30C
CDFFFE
CCC30C
CCC30C
CCFFFC
CCC30C
CCC30C
CCFFFC
CC9108
CC99CC
CD98C6
FD8006
CC7FF8
C06018
006018
007FF8
006018
006018
007FF8
006018
ENDCHAR
STARTCHAR uni569A
ENCODING 22170
SWIDTH 1000 0
DWIDTH 24 0
BBX 22 24 2 -2
BITMAP
831060
FF9FF0
C31860
C31860
FF1FE0
C31860
000010
FFFFF8
C06000
C060C0
FFFFE0
C000C0
C000C0
FFFFC0
C060C0
C06018
FFFFFC
C00000
031060
FF9FF0
C31860
C31860
FF1FE0
C31860
ENDCHAR
STARTCHAR uni569D
ENCODING 22173
SWIDTH 1000 0
DWIDTH 24 0
BBX 23 24 1 -2
BITMAP
000380
000300
00830C
8CFFFE
FEC000
CCC630
CCDFFC
CCC630
CCC7F0
CCC004
CCFFFE
CCC080
CCDFFC
CCD88C
CCD88C
FCDFFC
CCD88C
C1988C
019FFC
010000
030420
020618
040C0C
00300C
ENDCHAR
STARTCHAR uni56A8
ENCODING 22184
SWIDTH 1000 0
DWIDTH 24 0
BBX 23 24 1 -2
BITMAP
0039C0
00318C
0031FE
8DFF80
FC8980
CC4DFC
CC480C
CC200C
CDFD0C
CC01FC
CC0180
CDFD88
CD8DFC
CD8D80
CDFD88
FD8DFC
CD8D80
C1FD88
018DFC
018D80
018D84
018D86
01BDFE
0198FC
ENDCHAR
STARTCHAR uni56AD
ENCODING 22189
SWIDTH 1000 0
DWIDTH 24 0
BBX 24 24 0 -2
BITMAP
070000
060001
0617FF
FFF830
060030
062060
7FF070
0000EC
0001E6
7FE263
606C63
606060
7FE060
20C206
1883FF
191306
FFFB06
000306
000306
7FE306
606306
6063FE
7FE306
606306
ENDCHAR
STARTCHAR uni56B2
ENCODING 22194
SWIDTH 1000 0
DWIDTH 24 0
BBX 24 24 0 -2
BITMAP
0E1326
0C1FBF
0CD326
FFF326
001F3E
000000
7F880C
618FFE
618CCC
7F8CCC
000CCC
000FFC
7FCCCC
018CCC
0A0CCC
0C0FFC
0CC0C0
FF00C6
7C1FFF
4C00C0
0C00C0
0C00C0
7C00C0
1800C0
ENDCHAR
STARTCHAR uni56C5
ENCODING 22213
SWIDTH 1000 0
DWIDTH 24 0
BBX 24 24 0 -2
BITMAP
4A5006
7BDFFF
4A5806
4A5806
4A5806
7BDFFE
001806
001888
7F9888
4C9888
4C9BFE
4C9888
7F9888
4C9888
4C9FFF
4C9920
7F9922
0C1937
0C511C
FFF110
0C2118
0C47EF
0C038E
0C0206
ENDCHAR
STARTCHAR uni56CD
ENCODING 22221
SWIDTH 1000 0
DWIDTH 24 0
BBX 24 24 0 -2
BITMAP
0E0070
0C0060
0C4062
FFEFFF
0C0060
0C8064
7FC7FE
000000
40C406
7FE7FF
60C606
60C606
7FC7FE
21820C
110188
120190
FFEFFF
000000
40C406
7FE7FF
60C606
60C606
7FC7FE
60C606
ENDCHAR
STARTCHAR uni56DF
ENCODING 22239
SWIDTH 1000 0
DWIDTH 24 0
BBX 21 24 2 -2
BITMAP
020000
030000
060000
840030
FFFFF8
C00030
C00430
C00730
CC0630
C30C30
C18C30
C0D830
C07030
C07030
C0D830
C18C30
C30630
C60730
CC0330
F00330
C00030
FFFFF0
C00030
C00000
ENDCHAR
STARTCHAR uni56E8
ENCODING 22248
SWIDTH 1000 0
DWIDTH 24 0
BBX 23 24 1 -2
BITMAP
80000C
FFFFFE
C0000C
C000CC
DFFFEC
C01C0C
C0180C
C0300C
C0300C
C0600C
C0F60C
C1B38C
C331CC
C630EC
D8306C
C0300C
C0300C
C0300C
C0300C
C0300C
C0300C
C0000C
FFFFFC
C0000C
ENDCHAR
STARTCHAR uni56F6
ENCODING 22262
SWIDTH 1000 0
DWIDTH 24 0
BBX 23 24 1 -2
BITMAP
80000C
FFFFFE
C0000C
C0040C
C0FE0C
C2040C
C3820C
C3030C
C601CC
CC00FC
D8386C
E0302C
C0300C
C0330C
C7FF8C
C0300C
C0300C
C0300C
C030CC
DFFFEC
C0000C
C0000C
FFFFFC
C0000C
ENDCHAR
STARTCHAR uni56F7
ENCODING 22263
SWIDTH 1000 0
DWIDTH 24 0
BBX 23 24 1 -2
BITMAP
80000C
FFFFFE
C0000C
C0060C
C01F0C
C0F00C
C7300C
C0300C
C0318C
CFFFCC
C0780C
C0780C
C0F40C
C0F40C
C1B20C
C1B30C
C3318C
C631EC
D830CC
C0300C
C0300C
C0000C
FFFFFC
C0000C
ENDCHAR
STARTCHAR uni5715
ENCODING 22293
SWIDTH 1000 0
DWIDTH 24 0
BBX 23 24 1 -2
BITMAP
80000C
FFFFFE
C0000C
C0380C
C0318C
C7FFCC
C0318C
DFFFEC
C0318C
C7FF8C
C0300C
CFFFCC
C0300C
DFFFEC
C0000C
C7FF8C
C6018C
C7FF8C
C6018C
C7FF8C
C6018C
C0000C
FFFFFC
C0000C
ENDCHAR
STARTCHAR uni5723
ENCODING 22307
SWIDTH 1000 0
DWIDTH 24 0
BBX 24 23 0 -1
BITMAP
000060
1FFFF0
010060
0080C0
004180
006300
003600
001C00
003700
0063E0
0180FF
0E003E
F01C0C
001800
001800
001830
1FFFF8
001800
001800
001800
001800
001806
FFFFFF
ENDCHAR
STARTCHAR uni5729
ENCODING 22313
SWIDTH 1000 0
DWIDTH 24 0
BBX 24 23 0 -2
BITMAP
1C000C
187FFE
180180
180180
180180
1B0180
FF8180
180180
180186
18FFFF
180180
180180
180180
180180
198180
1E0180
F80180
600180
400180
000180
000180
000F80
000300
ENDCHAR
STARTCHAR uni5745
ENCODING 22341
SWIDTH 1000 0
DWIDTH 24 0
BBX 24 24 0 -2
BITMAP
000300
1C0300
180680
180680
180C40
180C40
1B1820
FF9030
18201C
1840CF
189FE6
180000
180000
180030
183FF8
198030
1E0030
F80060
600060
400060
0000C0
0000C0
000180
000180
ENDCHAR
STARTCHAR uni5746
ENCODING 22342
SWIDTH 1000 0
DWIDTH 24 0
BBX 24 24 0 -2
BITMAP
000800
1C0E00
180C00
180C00
181800
181806
1B1FFF
FFB020
182838
184830
188830
180460
180460
180640
1802C0
198380
1E0180
F803C0
6006E0
400C70
001838
00301F
00C00E
070006
ENDCHAR
STARTCHAR uni574C
ENCODING 22348
SWIDTH 1000 0
DWIDTH 24 0
BBX 24 23 0 -1
BITMAP
000100
007F80
010100
01C0C0
038070
06003F
0FFFDE
3060C6
C060C0
00C0C0
00C1C0
018180
030F80
0C0300
700000
001C00
001800
001830
1FFFF8
001800
001800
00180C
7FFFFE
ENDCHAR
STARTCHAR uni574D
ENCODING 22349
SWIDTH 1000 0
DWIDTH 24 0
BBX 24 24 0 -2
BITMAP
002018
1C3FFC
183018
183018
183418
183318
1B3198
FFB198
183198
183018
183018
18301A
19FFFF
183018
183018
19B018
1E3018
F83018
606018
406018
004018
00C018
0080F8
010030
ENDCHAR
STARTCHAR uni5768
ENCODING 22376
SWIDTH 1000 0
DWIDTH 24 0
BBX 24 24 0 -2
BITMAP
000380
1C0300
180300
181300
181306
183FFF
1A3006
FF6004
186008
180E00
180C00
180C18
180C3C
180C70
180DC0
198E00
1E0C00
F80C00
600C04
400C04
000C04
000C06
000FFE
0007FC
ENDCHAR
STARTCHAR uni576F
ENCODING 22383
SWIDTH 1000 0
DWIDTH 24 0
BBX 24 22 0 -1
BITMAP
1C000C
187FFE
180180
1801C0
180380
1B0300
FF8700
180740
180F30
181B18
18330C
186306
188306
180300
198300
1E0300
F80300
600300
400300
000300
000006
01FFFF
ENDCHAR
STARTCHAR uni5773
ENCODING 22387
SWIDTH 1000 0
DWIDTH 24 0
BBX 24 24 0 -2
BITMAP
002070
383860
303060
303060
302060
302066
3049FF
354E66
FE8C66
30CC66
30D866
30D866
301066
303066
302066
302866
3644C6
F844C6
609EC6
43E68E
01C18C
01010C
00027C
000418
ENDCHAR
STARTCHAR uni5774
ENCODING 22388
SWIDTH 1000 0
DWIDTH 24 0
BBX 22 23 1 -1
BITMAP
003800
003000
003060
3FFFF0
003000
003000
003018
FFFFFC
018600
018600
030608
030608
0607FC
0C03F8
703800
003000
003060
3FFFF0
003000
003000
003000
003018
FFFFFC
ENDCHAR
STARTCHAR uni5775
ENCODING 22389
SWIDTH 1000 0
DWIDTH 24 0
BBX 24 23 0 -1
BITMAP
000018
1C007C
1823E0
183E00
183000
183000
1B3000
FFB000
183000
183004
183FFE
183060
183060
183060
183060
19B060
1E3060
F83060
603060
403060
003060
003066
03FFFF
ENDCHAR
STARTCHAR uni577B
ENCODING 22395
SWIDTH 1000 0
DWIDTH 24 0
BBX 24 24 0 -2
BITMAP
000018
1C41FC
187F80
186180
186180
186180
1A6180
FF6180
18618C
187FFE
186180
186180
186180
1860C0
1860C0
1B60C0
FC60C0
706662
43F862
01E032
01003A
00031F
01FF8F
000006
ENDCHAR
STARTCHAR uni579A
ENCODING 22426
SWIDTH 1000 0
DWIDTH 24 0
BBX 24 24 0 -2
BITMAP
001C00
001800
001800
0018C0
07FFE0
001800
001800
001800
00180C
7FFFFE
000000
0700E0
0600C0
0600C0
0600C0
0640CC
7FEFFE
0600C0
0600C0
0600C0
06E0C0
FF00C6
781FFF
400000
ENDCHAR
STARTCHAR uni579D
ENCODING 22429
SWIDTH 1000 0
DWIDTH 24 0
BBX 24 24 0 -2
BITMAP
000800
1C0E00
180C30
180FF8
181860
1810C0
1B3080
FFA106
187FFF
18B000
183000
183218
1833FC
183318
183318
19B318
1E3318
F83378
603330
402302
002302
004303
0043FF
0081FE
ENDCHAR
STARTCHAR uni579E
ENCODING 22430
SWIDTH 1000 0
DWIDTH 24 0
BBX 24 24 0 -2
BITMAP
0001C0
1C0180
180180
182186
183FFF
186006
1B6004
FF8020
1800F0
1807F8
183F00
180300
180300
180306
18FFFF
180300
1B0300
FC0300
700300
400304
000304
000306
0003FE
0001FC
ENDCHAR
STARTCHAR uni57A8
ENCODING 22440
SWIDTH 1000 0
DWIDTH 24 0
BBX 24 24 0 -2
BITMAP
0001C0
1C0180
180180
182186
183FFF
186006
1B6004
FF8070
180060
180060
180066
187FFF
180060
180060
181060
198C60
1E0660
F80660
600060
400060
000060
000060
0003E0
0000C0
ENDCHAR
STARTCHAR uni57AC
ENCODING 22444
SWIDTH 1000 0
DWIDTH 24 0
BBX 24 24 0 -2
BITMAP
000E70
1C0C60
180C60
180C60
180C60
180C6C
187FFE
1B0C60
FF8C60
180C60
180C60
180C60
180C60
180C66
18FFFF
180000
1B0000
FC0840
700E30
401C18
00180C
00300E
006006
018006
ENDCHAR
STARTCHAR uni57CC
ENCODING 22476
SWIDTH 1000 0
DWIDTH 24 0
BBX 24 24 0 -2
BITMAP
000380
1C0300
180300
184318
187FFC
186018
1A6018
FF6018
187FF8
186018
186018
186018
187FF8
186204
18620E
1B6118
FC6160
706080
4060C0
006060
006738
03F81F
01C00E
010006
ENDCHAR
STARTCHAR uni57D7
ENCODING 22487
SWIDTH 1000 0
DWIDTH 24 0
BBX 24 24 0 -2
BITMAP
0001C0
1C0180
180180
18398C
1831FE
183180
1A3180
FF3180
183186
19FFFF
180180
182180
183988
18318E
18619C
1B4198
FC8FB8
710330
400060
0000C0
000180
000600
001800
00E000
ENDCHAR
STARTCHAR uni57DE
ENCODING 22494
SWIDTH 1000 0
DWIDTH 24 0
BBX 24 24 0 -2
BITMAP
0001C0
1C0180
180180
182186
183FFF
186006
1B6004
FF8000
180006
187FFF
180180
180180
180180
18218C
1839FE
19B180
1E3180
F83180
603180
406980
006780
0043E0
0080FF
01001E
ENDCHAR
STARTCHAR uni57E6
ENCODING 22502
SWIDTH 1000 0
DWIDTH 24 0
BBX 24 24 0 -2
BITMAP
0001C0
1C0180
182180
182186
183FFF
186006
186004
1B0008
FFB000
18368C
183FFE
1826CC
1866CC
1876CC
185ECC
189ECC
180CDC
1B0CCC
FC18C0
7018C2
4030C2
0060C3
00C0FF
03007E
ENDCHAR
STARTCHAR uni57F0
ENCODING 22512
SWIDTH 1000 0
DWIDTH 24 0
BBX 24 24 0 -2
BITMAP
000018
1C10FC
181F80
181800
181908
181884
1B30C6
FFB0C6
1820C6
184000
1801C0
180180
180186
187FFF
1803C0
1987A0
1E07A0
F80D90
600D98
40198C
00318F
006186
018182
000180
ENDCHAR
STARTCHAR uni57F8
ENCODING 22520
SWIDTH 1000 0
DWIDTH 24 0
BBX 24 24 0 -2
BITMAP
002018
1C3FFC
183018
183018
183018
183FF8
1B3018
FFB018
183018
183FF8
183418
180600
180C06
181FFF
183336
1B6336
FC8666
710C66
4018C6
003186
00C30E
00060C
000C7C
000018
ENDCHAR
STARTCHAR uni57FB
ENCODING 22523
SWIDTH 1000 0
DWIDTH 24 0
BBX 24 24 0 -2
BITMAP
000380
1C0300
180306
19FFFF
180000
180000
1B3FF0
FFB030
183030
183FF0
180000
180018
18FFFC
180030
198060
1E0280
F80306
63FFFF
400300
000300
000300
000300
001F00
000600
ENDCHAR
STARTCHAR uni57FD
ENCODING 22525
SWIDTH 1000 0
DWIDTH 24 0
BBX 24 24 0 -2
BITMAP
000018
1C1FFC
180018
18001A
187FFF
180018
1B0018
FF9FF8
180000
184006
187FFF
18C184
18C180
18218C
183FFE
19B18C
1E318C
F8318C
60318C
40318C
0031BC
003198
000180
000180
ENDCHAR
STARTCHAR uni5804
ENCODING 22532
SWIDTH 1000 0
DWIDTH 24 0
BBX 24 24 0 -2
BITMAP
000300
1C278C
183C3E
18300C
18300C
18300C
1B3E7C
FFB00C
18300C
18300C
18300C
183FFC
18306C
180860
180E60
198C60
1E0C60
F80C60
601862
401862
003062
002063
00407F
01803E
ENDCHAR
STARTCHAR uni581E
ENCODING 22558
SWIDTH 1000 0
DWIDTH 24 0
BBX 24 24 0 -2
BITMAP
001998
1C1998
181998
18199A
187FFF
181998
1B1998
FF9998
1819F8
181800
181802
181FFF
181800
1801C0
180186
1B7FFF
FC03A0
7007A0
400590
000D98
00198F
00318E
004186
000180
ENDCHAR
STARTCHAR uni5820
ENCODING 22560
SWIDTH 1000 0
DWIDTH 24 0
BBX 24 24 0 -2
BITMAP
002018
1C3BFC
183018
183018
18301A
186FFF
1A6000
FF6200
186380
18E30C
18E3FE
196660
186460
186860
186066
1B6FFF
FC60D0
7060D0
4060D8
006088
00618C
00610E
006207
006C06
ENDCHAR
STARTCHAR uni5827
ENCODING 22567
SWIDTH 1000 0
DWIDTH 24 0
BBX 24 24 0 -2
BITMAP
000002
1CFFFF
180180
184106
187FFF
186666
1A6666
FF6666
186666
186666
186666
18666E
186004
1801C0
180180
1B0186
FC7FFF
700180
400340
000320
000630
000C1C
00180F
006006
ENDCHAR
STARTCHAR uni5832
ENCODING 22578
SWIDTH 1000 0
DWIDTH 24 0
BBX 22 23 1 -1
BITMAP
0C0418
5867FC
7FF618
606618
7FE618
606618
606618
7FE618
000618
60C6F8
63E630
7C0600
604600
606600
3FC600
003800
003000
003060
3FFFF0
003000
003000
003018
FFFFFC
ENDCHAR
STARTCHAR uni5839
ENCODING 22585
SWIDTH 1000 0
DWIDTH 24 0
BBX 24 23 0 -1
BITMAP
000018
1C01FC
183F80
180180
180186
18FFFF
1B0180
FF8180
183FFC
18318C
18318C
183FFC
18318C
18318C
18318C
19BFFC
1E0180
F8018C
607FFE
400180
000180
000186
00FFFF
ENDCHAR
STARTCHAR uni5849
ENCODING 22601
SWIDTH 1000 0
DWIDTH 24 0
BBX 24 24 0 -2
BITMAP
000380
1C0300
180300
18F31E
180680
180680
18F65E
1B0C60
FF8C30
18181C
18300F
18DFFE
181818
181818
181FF8
199818
1E1818
F81818
601FF8
401818
001818
001818
0018F8
001830
ENDCHAR
STARTCHAR uni584C
ENCODING 22604
SWIDTH 1000 0
DWIDTH 24 0
BBX 24 24 0 -2
BITMAP
002018
1C3FFC
183018
183018
183FF8
183018
1B3018
FFB018
183FF8
183018
180000
180606
18FEFF
181616
183E3E
1B3636
FC6666
70CECE
411E1E
003636
006666
008686
003E3E
000C0C
ENDCHAR
STARTCHAR uni5867
ENCODING 22631
SWIDTH 1000 0
DWIDTH 24 0
BBX 24 23 0 -1
BITMAP
000010
1C03F8
180810
180C08
18180C
181067
1B27F2
FF8000
180000
180010
1809F8
180C10
181808
18100C
182007
19BFFA
1E5248
F81248
601248
401248
001248
00124A
00FFFF
ENDCHAR
STARTCHAR uni588A
ENCODING 22666
SWIDTH 1000 0
DWIDTH 24 0
BBX 24 23 0 -1
BITMAP
0701C0
060180
7FE180
060198
060FFC
FFF198
30C598
108398
FFF11A
06038A
0602CE
7FE6C6
060407
060803
063000
001C00
001800
001830
1FFFF8
001800
001800
00180C
7FFFFE
ENDCHAR
STARTCHAR uni588B
ENCODING 22667
SWIDTH 1000 0
DWIDTH 24 0
BBX 24 24 0 -2
BITMAP
000400
1C0700
180620
180818
187FEC
183C0C
1A0000
FF630C
184308
189692
19F65F
188C31
181918
18338F
186706
1B0C40
FC18E0
7061C4
40070E
00181C
006070
0001C0
000E00
007000
ENDCHAR
STARTCHAR uni588D
ENCODING 22669
SWIDTH 1000 0
DWIDTH 24 0
BBX 23 23 1 -1
BITMAP
180818
B18FFC
FF8CC0
C18CC0
FF8CC0
C18CCC
C1BFFE
FF8180
0001E0
C30360
CF8364
F80664
C08466
FFC87E
7F903C
003800
003000
003060
3FFFF0
003000
003000
003018
FFFFFC
ENDCHAR
STARTCHAR uni588F
ENCODING 22671
SWIDTH 1000 0
DWIDTH 24 0
BBX 24 23 0 -1
BITMAP
01C100
39818C
3183FE
318E18
31B9B0
3F84E0
318780
019E38
018030
7FBFFF
198430
118630
318630
2180F0
418060
801C00
001800
001830
1FFFF8
001800
001800
00180C
7FFFFE
ENDCHAR
STARTCHAR uni5890
ENCODING 22672
SWIDTH 1000 0
DWIDTH 24 0
BBX 24 23 0 -1
BITMAP
001C70
1C1860
181864
19FFFE
181860
181860
1B1FE0
FF8300
184318
187FFC
186318
186318
186318
187FF8
186318
1B0304
FCFFFE
700300
400308
007FFC
000300
000302
03FFFF
ENDCHAR
STARTCHAR uni5894
ENCODING 22676
SWIDTH 1000 0
DWIDTH 24 0
BBX 24 24 0 -2
BITMAP
0001C0
1C398E
18318C
18318C
18318C
183FFC
181080
1B1CE0
FF98C0
18310C
183FFE
187180
18B180
193188
183FFC
19B180
1E3180
F83188
603FFC
403180
003180
003186
003FFF
003000
ENDCHAR
STARTCHAR uni589D
ENCODING 22685
SWIDTH 1000 0
DWIDTH 24 0
BBX 24 24 0 -2
BITMAP
0001C0
1C0188
183FFC
180180
180184
187FFE
1B0000
FF9818
181010
18FEFE
181010
181010
181C12
18F1FF
184000
1B0000
FC7FFE
700C60
400C60
001862
001862
003063
00607F
01803E
ENDCHAR
STARTCHAR uni58AA
ENCODING 22698
SWIDTH 1000 0
DWIDTH 24 0
BBX 24 23 0 -1
BITMAP
030100
0319C0
FFFD80
000306
1FE3FF
18661C
1FE518
000918
3FE110
00C0B0
0380A0
033840
FFC0B0
73011C
43020F
1F1C06
061800
001830
1FFFF8
001800
001800
00180C
7FFFFE
ENDCHAR
STARTCHAR uni58B1
ENCODING 22705
SWIDTH 1000 0
DWIDTH 24 0
BBX 24 23 0 -1
BITMAP
000188
1C3F8C
180358
186352
183627
18362C
180C10
1B0818
FF97EC
18200F
184006
181FF8
181818
181818
181818
199FF8
1E0010
F8201C
601818
400C30
000C20
000046
00FFFF
ENDCHAR
STARTCHAR uni58C3
ENCODING 22723
SWIDTH 1000 0
DWIDTH 24 0
BBX 24 23 0 -1
BITMAP
000006
1CFFFF
180000
183FFC
18318C
18318C
183FFC
1B318C
FFB18C
183FFC
180000
18FFFF
180000
183FFC
18318C
19B18C
1E3FFC
F8318C
60318C
403FFC
000000
000006
00FFFF
ENDCHAR
STARTCHAR uni58CD
ENCODING 22733
SWIDTH 1000 0
DWIDTH 24 0
BBX 24 23 0 -1
BITMAP
406006
30669F
1FFFF8
1860C0
83FCC0
636CC6
336CFF
33FCCC
0B6CCC
0B6CCC
13FCCC
30608C
E7FF8C
60610C
60620C
001C00
001800
001830
1FFFF8
001800
001800
00180C
7FFFFE
ENDCHAR
STARTCHAR uni58E2
ENCODING 22754
SWIDTH 1000 0
DWIDTH 24 0
BBX 24 23 0 -1
BITMAP
004006
1C7FFF
186108
18639C
186E70
186292
187FFF
1B6210
FFE7B8
1866B8
186A54
187297
186212
186210
1860E0
1B60C0
FCCECC
70CCFE
408CC0
018CC0
010CC0
020CC6
047FFF
ENDCHAR
STARTCHAR uni58F3
ENCODING 22771
SWIDTH 1000 0
DWIDTH 24 0
BBX 24 24 0 -2
BITMAP
001C00
00180C
7FFFFE
001800
001830
0FFFF8
200000
200006
7FFFFF
60000C
C00188
C7FFD0
000000
010300
01FF80
018300
018300
018300
030302
030302
060303
0C03FF
3001FE
C00000
ENDCHAR
STARTCHAR uni58F4
ENCODING 22772
SWIDTH 1000 0
DWIDTH 24 0
BBX 24 23 0 -1
BITMAP
001C00
001800
00180C
7FFFFE
001800
001800
001830
1FFFF8
000000
040060
07FFF0
060060
060060
060060
07FFE0
060060
000100
0101C0
018180
00C300
00C200
000406
FFFFFF
ENDCHAR
STARTCHAR uni5905
ENCODING 22789
SWIDTH 1000 0
DWIDTH 24 0
BBX 24 24 0 -2
BITMAP
004000
0060C0
00FFE0
0181C0
034380
062700
181C00
603E00
006380
0181F0
06007F
18071E
E00606
020630
03FFF8
030600
030600
03060C
7FFFFE
000600
000600
000600
000600
000600
ENDCHAR
STARTCHAR uni5906
ENCODING 22790
SWIDTH 1000 0
DWIDTH 24 0
BBX 24 24 0 -2
BITMAP
004000
0060C0
00FFE0
0181C0
034380
062700
181C00
603600
00E3C0
0300FF
1C1C3E
E0180E
001830
1FFFF8
001800
001860
0FFFF0
001800
001818
3FFFFC
001800
001800
001800
001800
ENDCHAR
STARTCHAR uni590B
ENCODING 22795
SWIDTH 1000 0
DWIDTH 24 0
BBX 24 24 0 -2
BITMAP
004000
007000
00E100
00C0C0
018070
3FFFB8
1FE318
10631A
00C302
018303
0303FF
0C41FE
707000
00E0C0
00FFE0
0181C0
034380
0C2700
301C00
003600
00E3C0
0380FF
1E003E
E00006
ENDCHAR
STARTCHAR uni590D
ENCODING 22797
SWIDTH 1000 0
DWIDTH 24 0
BBX 17 24 4 -2
BITMAP
100000
1C0000
180600
3FFF00
300000
600000
9FFC00
180C00
180C00
1FFC00
180C00
180C00
1FFC00
030000
060000
07FC00
0C1800
1A3000
316000
C1C000
037000
063F80
180F00
E00300
ENDCHAR
STARTCHAR uni5914
ENCODING 22804
SWIDTH 1000 0
DWIDTH 24 0
BBX 24 24 0 -2
BITMAP
00C1C0
006180
006306
7FFFFF
001800
0E107E
0C7F66
0C6366
0F7F7E
6C6360
6C7F60
6F6362
7C7F7E
70223C
C06208
00DBF8
033000
047FE0
00C1C0
032380
1C1E00
006780
0380FE
3C001C
ENDCHAR
STARTCHAR uni5924
ENCODING 22820
SWIDTH 1000 0
DWIDTH 24 0
BBX 23 24 1 -2
BITMAP
00C000
018180
03FFC0
0F0380
718E00
00F800
03E000
FC3800
20300C
3FFFFE
60000C
EFFFC8
C03000
1FFFE0
183060
183060
1FFFE0
183060
183060
1FFFE0
020000
0783C0
1E00F8
F00038
ENDCHAR
STARTCHAR uni593D
ENCODING 22845
SWIDTH 1000 0
DWIDTH 24 0
BBX 24 24 0 -2
BITMAP
003800
003000
007000
006006
FFFFFF
00C100
018080
0300C0
060060
0C0338
1BFF9F
300006
C00000
000000
000018
3FFFFC
006000
006100
00C0C0
008070
0103B8
3FFC1C
1F800C
10000C
ENDCHAR
STARTCHAR uni5946
ENCODING 22854
SWIDTH 1000 0
DWIDTH 24 0
BBX 24 23 0 -1
BITMAP
003800
003000
007000
006006
FFFFFF
00C100
018080
0300C0
060360
0FFFB8
1E001F
360006
C60060
07FFF0
060060
060060
060060
07FFE0
060060
060000
060000
06000C
7FFFFE
ENDCHAR
STARTCHAR uni595B
ENCODING 22875
SWIDTH 1000 0
DWIDTH 24 0
BBX 24 24 0 -2
BITMAP
003800
003000
007000
006006
FFFFFF
00C100
018080
0300C0
060060
0C0038
18641F
3FF7FE
D86618
186618
1FE7F8
186618
186618
1867F8
1FE618
186618
180418
000418
0008F8
001030
ENDCHAR
STARTCHAR uni595F
ENCODING 22879
SWIDTH 1000 0
DWIDTH 24 0
BBX 24 24 0 -2
BITMAP
003800
003000
007000
006006
FFFFFF
00C100
018080
0300C0
060060
0C0038
18641F
3FF7FE
D86618
1E6798
1B66D8
196658
186618
1E6798
1B66D8
196658
106418
106418
23E8F8
40D030
ENDCHAR
STARTCHAR uni5975
ENCODING 22901
SWIDTH 1000 0
DWIDTH 24 0
BBX 24 24 0 -2
BITMAP
0E0000
0C0006
0CFFFF
0C0180
0C0180
0D8180
FFC180
198180
198180
198180
198180
198180
310180
310180
330180
330180
6A0180
660180
070180
0D8180
098180
100180
201F80
C00300
ENDCHAR
STARTCHAR uni5976
ENCODING 22902
SWIDTH 1000 0
DWIDTH 24 0
BBX 24 24 0 -2
BITMAP
0E0000
0C0030
0C7FF8
0C0C30
0C0C30
0D8C30
FFCC60
198C60
198C66
198CFF
198CC6
198CC6
310C06
310C06
330C06
330C06
6A1806
661806
071806
0D900E
09B00C
10201C
2040F8
C08030
ENDCHAR
STARTCHAR uni597C
ENCODING 22908
SWIDTH 1000 0
DWIDTH 24 0
BBX 24 24 0 -2
BITMAP
0E0018
0C007C
0C03E0
0C3F00
0C0300
0D8300
FFC300
198300
198300
198300
198306
19BFFF
310300
310300
330300
330300
6A0300
660300
070302
0D8302
098302
100303
2003FF
C001FE
ENDCHAR
STARTCHAR uni599F
ENCODING 22943
SWIDTH 1000 0
DWIDTH 24 0
BBX 24 24 0 -2
BITMAP
080030
0FFFF8
0C0030
0C0030
0C0030
0FFFF0
0C0030
0C0030
0C0030
0FFFF0
0C4030
007000
00E000
00C006
FFFFFF
018180
030180
070300
0EE600
0C1C00
003380
00C0F0
070038
780018
ENDCHAR
STARTCHAR uni59AE
ENCODING 22958
SWIDTH 1000 0
DWIDTH 24 0
BBX 24 24 0 -2
BITMAP
1C200C
183FFE
18300C
18300C
18300C
1B300C
FFBFFC
33300C
333000
333380
333300
333308
62330E
62331C
663330
6633C0
D42300
CC6300
0E6302
1B4302
13C302
208303
4103FF
8001FE
ENDCHAR
STARTCHAR uni59BC
ENCODING 22972
SWIDTH 1000 0
DWIDTH 24 0
BBX 24 24 0 -2
BITMAP
1C0400
180300
180188
1800CE
1800CC
1B0E1C
FF8C18
330C18
330C30
330C30
332C60
332C68
622CC4
626C86
664D83
66CF03
D4CE03
CC0C00
0E0C10
1B1C10
132C10
204C18
408FF8
8007F0
ENDCHAR
STARTCHAR uni59C8
ENCODING 22984
SWIDTH 1000 0
DWIDTH 24 0
BBX 24 24 0 -2
BITMAP
1C0300
180300
180680
180680
180C40
1B0C60
FF9838
33101F
3320CE
335FE6
338000
330000
620018
627FFC
660618
660618
D40618
CC0618
0E0618
1B0618
1306F8
200630
400600
800600
ENDCHAR
STARTCHAR uni59CD
ENCODING 22989
SWIDTH 1000 0
DWIDTH 24 0
BBX 24 24 0 -2
BITMAP
1C200C
183FFE
18324C
18324C
18324C
1B324C
FFB24C
33324C
33324C
33324C
33324C
33FFFF
63324C
62324C
66324C
66324C
D4324C
CC324C
0E324C
1B324C
13324C
20324C
40327C
803018
ENDCHAR
STARTCHAR uni59DE
ENCODING 23006
SWIDTH 1000 0
DWIDTH 24 0
BBX 24 24 0 -2
BITMAP
1C01C0
180180
180180
180180
180186
1B7FFF
FF8180
330180
330180
330180
33018C
333FFE
620000
620000
66100C
661FFE
D4180C
CC180C
0E180C
1B180C
13180C
201FFC
40180C
80180C
ENDCHAR
STARTCHAR uni59E3
ENCODING 23011
SWIDTH 1000 0
DWIDTH 24 0
BBX 24 24 0 -2
BITMAP
1C01C0
180180
180180
180186
18FFFF
1B0000
FF9020
331C18
33180C
333006
332006
334020
620838
620830
661470
663460
D402E0
CC03C0
0E0180
1B03C0
130670
200C3F
40301E
80C006
ENDCHAR
STARTCHAR uni59E4
ENCODING 23012
SWIDTH 1000 0
DWIDTH 24 0
BBX 24 24 0 -2
BITMAP
1C000C
18003E
1821F0
183F00
183000
1B3000
FFB000
333006
333FFF
333000
333000
333000
62340C
6237FE
66360C
66360C
D4360C
CC360C
0E360C
1B260C
13260C
2047FC
40460C
80860C
ENDCHAR
STARTCHAR uni59E7
ENCODING 23015
SWIDTH 1000 0
DWIDTH 24 0
BBX 24 24 0 -2
BITMAP
0E0000
0C000C
18DFFE
FFE0C0
18C0C0
3180C0
7180C0
6F00C0
03C0C0
06C0C0
1800C6
E03FFF
0E00C0
0C00C0
18C0C0
FFE0C0
18C0C0
3180C0
7180C0
6F00C0
03C0C0
06E0C0
1860C0
E000C0
ENDCHAR
STARTCHAR uni59EE
ENCODING 23022
SWIDTH 1000 0
DWIDTH 24 0
BBX 24 24 0 -2
BITMAP
1C0000
18000C
18FFFE
180000
180000
1B0000
FFA018
333FFC
333018
333018
333018
333018
623FF8
623018
663018
663018
D43018
CC3FF8
0E3018
1B0000
130000
200006
41FFFF
800000
ENDCHAR
STARTCHAR uni5A0C
ENCODING 23052
SWIDTH 1000 0
DWIDTH 24 0
BBX 24 24 0 -2
BITMAP
1C0000
18200C
183FFE
18318C
18318C
1B318C
FFB18C
333FFC
33318C
33318C
33318C
33318C
623FFC
62318C
660180
660180
D40198
CC3FFC
0E0180
1B0180
130180
200186
40FFFF
800000
ENDCHAR
STARTCHAR uni5A0D
ENCODING 23053
SWIDTH 1000 0
DWIDTH 24 0
BBX 24 24 0 -2
BITMAP
1801C0
180190
18018C
180184
180180
1A8186
FEFFFF
32C180
32C180
32C088
32C68E
22FF8C
62CCCC
64CC48
64CC58
64CC50
D4CC70
C8CC22
0C8C72
16BC52
16989A
21010E
410207
820C03
ENDCHAR
STARTCHAR uni5A17
ENCODING 23063
SWIDTH 1000 0
DWIDTH 24 0
BBX 24 24 0 -2
BITMAP
18000C
18183E
19FDF0
181830
181830
1A3030
FF3030
323030
326036
3263FF
32FC30
22CC30
620C30
640830
649830
649830
D55030
C97036
0C23FF
163000
165800
204F00
4083FF
81007E
ENDCHAR
STARTCHAR uni5A27
ENCODING 23079
SWIDTH 1000 0
DWIDTH 24 0
BBX 24 24 0 -2
BITMAP
1C0020
1807F0
181020
181C20
181810
1B3018
FF200C
337FFF
33B01E
333018
333018
333018
623018
623FF8
6600C0
660EC0
D40CC0
CC0CC0
0E0CC4
1B18C4
1318C4
2030C6
4060FE
81807C
ENDCHAR
STARTCHAR uni5A2D
ENCODING 23085
SWIDTH 1000 0
DWIDTH 24 0
BBX 24 24 0 -2
BITMAP
1C0400
180700
180620
180410
180818
1B7FFC
FFBE0C
33200C
330000
331C00
331818
333FFC
622300
624300
660306
66FFFF
D40680
CC0680
0E0C40
1B0C60
131838
20301F
40600E
818006
ENDCHAR
STARTCHAR uni5A55
ENCODING 23125
SWIDTH 1000 0
DWIDTH 24 0
BBX 24 24 0 -2
BITMAP
1C0380
180300
18030C
187FFE
180300
1B0318
FFBFFC
330318
33031A
337FFF
330318
330318
623FF8
620318
662300
663B00
D4330C
CC33FE
0E3300
1B2B00
136700
2043C0
4080FF
81003E
ENDCHAR
STARTCHAR uni5A65
ENCODING 23141
SWIDTH 1000 0
DWIDTH 24 0
BBX 24 24 0 -2
BITMAP
1C01C0
180180
18018C
1801FE
180180
1B0180
FFA18C
333FFE
33300C
33300C
333FFC
33300C
62300C
623FFC
66318C
660180
D40186
CCFFFF
0E0180
1B0180
130180
200180
400180
800180
ENDCHAR
STARTCHAR uni5A7A
ENCODING 23162
SWIDTH 1000 0
DWIDTH 24 0
BBX 24 24 0 -2
BITMAP
004100
3FE180
00C306
0983FF
060618
032918
FFF130
0760B0
0F4060
1B00C0
3301B8
6F061F
861806
006000
006006
FFFFFF
00C180
01C180
038300
077600
060FC0
0038F8
01E03C
7E000C
ENDCHAR
STARTCHAR uni5A8B
ENCODING 23179
SWIDTH 1000 0
DWIDTH 24 0
BBX 24 24 0 -2
BITMAP
1C0380
180300
18030C
183FFE
180300
1B0300
FF8308
333FFC
330640
330640
330C26
337FFF
621810
621018
66200C
663FFF
D45836
CC9832
0E1FF0
1B1830
131830
201830
401FF0
801830
ENDCHAR
STARTCHAR uni5A9C
ENCODING 23196
SWIDTH 1000 0
DWIDTH 24 0
BBX 24 24 0 -2
BITMAP
1C01C0
180180
180186
1801FF
180180
1B218C
FFBFFE
33300C
33300C
33300C
333FFC
33300C
62300C
62300C
663FFC
66300C
D4300C
CC300C
0E3FFC
1B1000
131C30
20380E
406007
818003
ENDCHAR
STARTCHAR uni5A9F
ENCODING 23199
SWIDTH 1000 0
DWIDTH 24 0
BBX 24 24 0 -2
BITMAP
1C1998
181998
181998
18199A
187FFF
1B1998
FF9998
331998
3319F8
331800
331802
331FFF
621800
6201C0
660186
667FFF
D403A0
CC07A0
0E0590
1B0D98
13198F
20318E
404186
800180
ENDCHAR
STARTCHAR uni5AA0
ENCODING 23200
SWIDTH 1000 0
DWIDTH 24 0
BBX 24 24 0 -2
BITMAP
1C0400
180700
180606
187FFF
180C00
1B0818
FF9FFC
331180
33218C
335FFE
338000
33100C
621FFE
62180C
66180C
661FFC
D4180C
CC180C
0E1FFC
1B180C
13180C
20180C
40187C
801818
ENDCHAR
STARTCHAR uni5AA2
ENCODING 23202
SWIDTH 1000 0
DWIDTH 24 0
BBX 24 24 0 -2
BITMAP
1C4006
187FFF
186006
186026
186FF6
1B6006
FF6006
336026
336FF6
336006
330000
33200C
623FFE
62300C
66300C
663FFC
D4300C
CC300C
0E3FFC
1B300C
13300C
20300C
403FFC
80300C
ENDCHAR
STARTCHAR uni5AB1
ENCODING 23217
SWIDTH 1000 0
DWIDTH 24 0
BBX 24 24 0 -2
BITMAP
1C0100
1801C0
18038C
1807FE
180C1C
1B1B38
FF6170
3318E0
330980
330700
331C00
337018
621FFC
621180
662180
660186
D4FFFF
CC0180
0E0180
1B7187
136186
206186
407FFE
806006
ENDCHAR
STARTCHAR uni5AB3
ENCODING 23219
SWIDTH 1000 0
DWIDTH 24 0
BBX 24 24 0 -2
BITMAP
1C0200
180380
18230C
183FFE
18300C
1B300C
FFBFFC
33300C
33300C
333FFC
33300C
33300C
62300C
623FFC
66300C
660100
D40CC8
CC0C64
0E2C66
1B2C13
132C13
206C18
41CFF8
8187F0
ENDCHAR
STARTCHAR uni5AB5
ENCODING 23221
SWIDTH 1000 0
DWIDTH 24 0
BBX 24 24 0 -2
BITMAP
2311D0
3F1D8C
331986
333183
332FFB
334340
3B0340
3F0626
377FFF
330C18
33180C
33338F
3B4306
3F0600
37FFFF
330C30
331830
331860
333E60
3331C0
2301F0
630318
4F0E0C
86700C
ENDCHAR
STARTCHAR uni5ABA
ENCODING 23226
SWIDTH 1000 0
DWIDTH 24 0
BBX 24 24 0 -2
BITMAP
181020
181038
189230
189230
189220
1A9262
FE927F
32FEC8
32008E
32014C
32004C
23FF4C
624C4C
644C28
644C28
644C38
D44C10
C84D38
0C8E28
16BC6C
16984E
211087
410106
820602
ENDCHAR
STARTCHAR uni5ABF
ENCODING 23231
SWIDTH 1000 0
DWIDTH 24 0
BBX 24 24 0 -2
BITMAP
1C0200
180380
18230C
183FFE
18310C
1B310C
FFB10C
333FFC
33310C
33310C
33310C
333FFC
6200C8
6208CC
660EC8
660CD8
D40CD2
CC18FF
0E18D9
1B10C0
1330C2
2020C3
4040FF
81807E
ENDCHAR
STARTCHAR uni5ADA
ENCODING 23258
SWIDTH 1000 0
DWIDTH 24 0
BBX 24 24 0 -2
BITMAP
1C1030
181FF8
181830
181830
181FF0
1B1830
FF9830
331FF0
330000
337FFC
334444
334444
627FFC
620000
660030
667FF8
D41030
CC0860
0E06C0
1B0380
1306E0
200C7F
40301E
81C006
ENDCHAR
STARTCHAR uni5ADC
ENCODING 23260
SWIDTH 1000 0
DWIDTH 24 0
BBX 24 24 0 -2
BITMAP
1C01C0
180180
18018C
183FFE
180820
1B0430
FF8620
330246
337FFF
330000
333FFC
33300C
62300C
623FFC
66300C
66300C
D43FFC
CC0180
0E0186
1B7FFF
130180
200180
400180
800180
ENDCHAR
STARTCHAR uni5AE0
ENCODING 23264
SWIDTH 1000 0
DWIDTH 24 0
BBX 24 24 0 -2
BITMAP
070380
064306
7FE3FF
060618
FFF518
0E08B0
1F8060
36E0B8
C6631F
060C06
200000
3FFFFE
301800
303000
30300C
37FFFE
3060C0
30C180
30C180
21FB00
218700
401DE0
407038
838018
ENDCHAR
STARTCHAR uni5AE5
ENCODING 23269
SWIDTH 1000 0
DWIDTH 24 0
BBX 24 24 0 -2
BITMAP
1C01C0
180186
18FFFF
180180
18218C
1B3FFE
FFB18C
33318C
333FFC
33318C
33318C
333FFC
620188
620186
66FFFB
663C03
D40018
CCFFFF
0E1018
1B0C18
130618
200618
4000F8
800030
ENDCHAR
STARTCHAR uni5AEE
ENCODING 23278
SWIDTH 1000 0
DWIDTH 24 0
BBX 24 24 0 -2
BITMAP
180018
181FFC
184180
184183
187FFF
1AC183
FEC182
323DBC
320180
323DBC
320180
220000
623FFC
640000
640000
64FFFF
D40C00
C80C18
0C1FFC
161818
160038
200030
4003F0
8000E0
ENDCHAR
STARTCHAR uni5AF0
ENCODING 23280
SWIDTH 1000 0
DWIDTH 24 0
BBX 24 24 0 -2
BITMAP
181C20
181838
181930
19FFB0
181823
1A187F
FE9B43
32FF82
32DB34
32DB30
32DB30
22DB30
62FF30
64DB30
643830
643C30
D43A28
C87B68
0C5B68
16D84C
16984C
2118CE
421887
801906
ENDCHAR
STARTCHAR uni5AF5
ENCODING 23285
SWIDTH 1000 0
DWIDTH 24 0
BBX 24 24 0 -2
BITMAP
180800
180E00
180C00
181800
181006
1A3FFF
FF7248
325248
329248
32124A
32FFFF
221248
621248
641248
641248
64124A
D4FFFF
C80000
0C0000
162488
162444
204666
41C663
818663
ENDCHAR
STARTCHAR uni5B00
ENCODING 23296
SWIDTH 1000 0
DWIDTH 24 0
BBX 24 24 0 -2
BITMAP
1C0030
1811F8
181F80
181A10
18318C
1B2084
FFA000
331FF0
331830
331830
331830
331FFC
62180C
62180C
66180C
661FFF
D43003
CC3023
0E2093
1B2A53
134946
205906
40983E
80000C
ENDCHAR
STARTCHAR uni5B08
ENCODING 23304
SWIDTH 1000 0
DWIDTH 24 0
BBX 24 24 0 -2
BITMAP
1801C0
180188
183FFC
180180
180184
1A7FFE
FF0000
321818
321010
32FEFE
321010
221010
621C12
64F1FF
644000
640000
D47FFE
C80C60
0C0C60
161862
161862
203063
40607F
81803E
ENDCHAR
STARTCHAR uni5B17
ENCODING 23319
SWIDTH 1000 0
DWIDTH 24 0
BBX 24 24 0 -2
BITMAP
1C01C0
180186
187FFF
180000
183FFC
1B300C
FFB7EC
33366C
33366C
3337EC
33300C
333FFC
620000
621FF8
661818
661818
D41FF8
CC1818
0E1818
1B1FF8
131818
200002
407FFF
800000
ENDCHAR
STARTCHAR uni5B2D
ENCODING 23341
SWIDTH 1000 0
DWIDTH 24 0
BBX 24 24 0 -2
BITMAP
180000
180006
19FFFF
181100
183910
1A310C
FF6106
32FFFF
334107
324104
325554
224924
624924
645554
644104
644104
D45554
C84924
0C4924
165554
164104
204104
40413C
804118
ENDCHAR
STARTCHAR uni5B34
ENCODING 23348
SWIDTH 1000 0
DWIDTH 24 0
BBX 24 24 0 -2
BITMAP
201C00
301806
3FFFFF
300000
300000
1FFFF8
000000
0FFFF0
0C0030
0C0030
0FFFF0
000000
3E23F8
222098
22FC98
3E2898
224BF8
224898
3ED09A
22B09A
22189A
622D1A
4E451F
86820F
ENDCHAR
STARTCHAR uni5B4C
ENCODING 23372
SWIDTH 1000 0
DWIDTH 24 0
BBX 24 24 0 -2
BITMAP
080008
0C7E0C
580058
64FF64
260026
0C7E0C
120012
FF7EFF
690069
087E08
6A424C
49426A
897E4B
082089
003000
006006
FFFFFF
018180
030300
06E600
041F00
0071E0
038078
3C0018
ENDCHAR
STARTCHAR uni5B52
ENCODING 23378
SWIDTH 1000 0
DWIDTH 24 0
BBX 21 23 3 -2
BITMAP
000180
FFFFC0
000380
000700
000C00
001800
00A000
00C000
00C000
00C030
00FFF8
00C000
00C000
00C000
00C000
00C000
00C000
00C000
00C000
00C000
00C000
07C000
018000
ENDCHAR
STARTCHAR uni5B68
ENCODING 23400
SWIDTH 1000 0
DWIDTH 24 0
BBX 24 24 0 -2
BITMAP
0000C0
07FFE0
000180
000600
001818
3FFFFC
001800
001800
001800
00F800
003000
00C00C
7FE7FE
00C00C
010010
063060
07C066
FF0FFF
660060
060060
060060
060060
3E03E0
0C00C0
ENDCHAR
STARTCHAR uni5B6F
ENCODING 23407
SWIDTH 1000 0
DWIDTH 24 0
BBX 24 24 0 -2
BITMAP
20300C
3FFBFE
31010C
31010C
3FF098
303098
303070
3FF060
3100F8
31019F
3FF30E
300C06
0000C0
07FFE0
000180
000600
001806
FFFFFF
001800
001800
001800
001800
00F800
003000
ENDCHAR
STARTCHAR uni5B7C
ENCODING 23420
SWIDTH 1000 0
DWIDTH 24 0
BBX 24 24 0 -2
BITMAP
0C00E0
6CC0C4
6CDFFE
7FC418
1B0230
360322
7FDFFF
E0C0C0
7FC0C4
601FFE
7FC0C0
60C0C0
7FC0C0
000000
07FFE0
000180
000600
001806
FFFFFF
001800
001800
001800
00F800
003000
ENDCHAR
STARTCHAR uni5B7F
ENCODING 23423
SWIDTH 1000 0
DWIDTH 24 0
BBX 24 24 0 -2
BITMAP
080008
0C7E0C
580058
64FF64
260026
0C7E0C
120012
FF7EFF
690069
087E08
6A424C
49426A
897E4B
080089
07FFE0
000180
000600
001806
FFFFFF
001800
001800
001800
00F800
003000
ENDCHAR
STARTCHAR uni5B81
ENCODING 23425
SWIDTH 1000 0
DWIDTH 24 0
BBX 22 24 1 -2
BITMAP
003800
003000
203000
203018
7FFFFC
600018
C00010
C00020
000000
000018
FFFFFC
003000
003000
003000
003000
003000
003000
003000
003000
003000
003000
003000
01F000
006000
ENDCHAR
STARTCHAR uni5B84
ENCODING 23428
SWIDTH 1000 0
DWIDTH 24 0
BBX 24 24 0 -2
BITMAP
001C00
001800
201800
201806
7FFFFF
600006
C00004
C07008
006000
006000
0060C0
3FFFE0
0060C0
0060C0
0060C0
0060C0
0060C0
00C0C0
00C0C0
0180C2
0300C2
0600C3
1800FF
60007E
ENDCHAR
STARTCHAR uni5B96
ENCODING 23446
SWIDTH 1000 0
DWIDTH 24 0
BBX 24 24 0 -2
BITMAP
001C00
201800
201806
7FFFFF
600006
C00004
C0C088
3FE0E0
00C0C0
00C0C0
20C0C0
3FC180
30C180
300180
30C100
7FE300
60C310
60C208
00C60C
00C406
01C43E
01BFE7
0F9E03
031003
ENDCHAR
STARTCHAR uni5BAC
ENCODING 23468
SWIDTH 1000 0
DWIDTH 24 0
BBX 24 24 0 -2
BITMAP
001C00
201800
201806
7FFFFF
600006
C01CC4
C01868
001860
20180C
3FFFFE
300C00
300C00
300C20
306638
3FF630
30C660
30C360
30C3C4
31C184
2183C4
2F86E4
43187E
40603E
80000C
ENDCHAR
STARTCHAR uni5BC0
ENCODING 23488
SWIDTH 1000 0
DWIDTH 24 0
BBX 24 24 0 -2
BITMAP
001C00
101800
101806
3FFFFF
300006
600084
6007C8
043FE0
07E080
063040
0C1860
081830
100030
001800
00180C
7FFFFE
007A00
00D900
01D8C0
039870
0E183F
38181E
C01806
001800
ENDCHAR
STARTCHAR uni5BCE
ENCODING 23502
SWIDTH 1000 0
DWIDTH 24 0
BBX 24 24 0 -2
BITMAP
001C00
101800
101806
3FFFFF
300006
600004
670018
067FFC
660300
660300
660300
66430C
7E7FFE
66630C
06630C
06668C
FE66CC
666C6C
66686C
66700C
46600C
46600C
86607C
866018
ENDCHAR
STARTCHAR uni5BD6
ENCODING 23510
SWIDTH 1000 0
DWIDTH 24 0
BBX 24 24 0 -2
BITMAP
001C00
101800
101806
3FFFFF
300006
600004
603FF0
180030
0CFFFE
0C0030
000030
623FF0
320000
34FFFF
058006
0D8064
087FF0
181060
3808C0
F00780
700DC0
3018FE
30603C
31800C
ENDCHAR
STARTCHAR uni5BF1
ENCODING 23537
SWIDTH 1000 0
DWIDTH 24 0
BBX 24 24 0 -2
BITMAP
001C00
101800
101806
3FFFFF
300206
600384
672318
063FFC
663018
663FF8
663018
663FF8
7E3018
663018
063FF8
063198
FE0186
66FFFF
6603C0
6607A0
460D90
46199C
86318F
86C186
ENDCHAR
STARTCHAR uni5BFD
ENCODING 23549
SWIDTH 1000 0
DWIDTH 24 0
BBX 24 24 0 -2
BITMAP
000020
0000F0
040FF8
07FE00
060020
061010
0C1818
0C0C0C
080C0C
180C0C
1000E0
2000C0
0000C6
FFFFFF
0000C0
0200C0
0100C0
0180C0
00C0C0
00C0C0
00C0C0
0000C0
0007C0
000180
ENDCHAR
STARTCHAR uni5C03
ENCODING 23555
SWIDTH 1000 0
DWIDTH 24 0
BBX 24 24 0 -2
BITMAP
001CC0
001860
00182C
7FFFFE
001800
081830
0FFFF8
0C1830
0C1830
0FFFF0
0C1830
0C1830
0FFFF0
0C1830
0C19B0
000186
FFFFFF
000180
060180
018180
00C180
00C180
000F80
000300
ENDCHAR
STARTCHAR uni5C29
ENCODING 23593
SWIDTH 1000 0
DWIDTH 24 0
BBX 24 23 0 -1
BITMAP
220030
393FF8
318300
318300
60C300
60C300
40C300
800300
B70320
363FF0
360300
360300
360300
360300
360300
360300
360300
260332
267FFA
660002
460003
47FFFF
83FFFE
ENDCHAR
STARTCHAR uni5C30
ENCODING 23600
SWIDTH 1000 0
DWIDTH 24 0
BBX 24 23 0 -1
BITMAP
180060
1803F0
183F00
180318
1B7FFC
FF8300
180300
183FF0
183330
183330
1E3FF0
1E3330
163330
163FF0
360300
360330
267FF8
260302
66031A
46FFFE
460003
87FFFF
83FFFE
ENDCHAR
STARTCHAR uni5C5F
ENCODING 23647
SWIDTH 1000 0
DWIDTH 24 0
BBX 23 24 0 -2
BITMAP
10000C
1FFFFE
18000C
18000C
18000C
1FFFFC
18000C
198C60
198C6C
1FFFFE
198C60
198FE0
198000
198018
19FFFC
318600
30060C
37FFFE
200F00
601E80
403660
806638
01861E
06060C
ENDCHAR
STARTCHAR uni5C63
ENCODING 23651
SWIDTH 1000 0
DWIDTH 24 0
BBX 24 24 0 -2
BITMAP
10000C
1FFFFE
18000C
18000C
18000C
1FFFFC
1840CC
1860C0
18CECC
198CFE
190CC0
1A4CC0
1C6CC6
18DFFF
1980C0
318EC0
338CCC
358CFE
218CC0
618AC0
4193C0
8191FF
01A07E
018000
ENDCHAR
STARTCHAR uni5C67
ENCODING 23655
SWIDTH 1000 0
DWIDTH 24 0
BBX 24 24 0 -2
BITMAP
10000C
1FFFFE
18000C
18000C
18000C
1FFFFC
18000C
184DB0
186DB6
18DFFF
198DB0
190DB0
1A4DF0
1C6C00
18CC0C
318FFE
318CC0
3380C6
25BFFF
6181E0
4183D0
8186CC
018CC7
01B0C2
ENDCHAR
STARTCHAR uni5C68
ENCODING 23656
SWIDTH 1000 0
DWIDTH 24 0
BBX 24 24 0 -2
BITMAP
10000C
1FFFFE
18000C
18000C
18000C
1FFFFC
1840C0
1867F8
18C4CA
199FFF
1904C8
1A47F8
1C60C0
18CFFC
198CCC
318FFC
338182
35BFFF
218318
618630
4187F0
8180D8
01838E
019C06
ENDCHAR
STARTCHAR uni5C69
ENCODING 23657
SWIDTH 1000 0
DWIDTH 24 0
BBX 24 24 0 -2
BITMAP
10000C
1FFFFE
18000C
18000C
18000C
1FFFFC
184060
1861F0
18CF80
19818C
191FFE
1A4320
1C67FC
18CE1F
1993F6
31A000
339FFE
359806
2199E6
619926
4199E6
819806
01983E
01980C
ENDCHAR
STARTCHAR uni5C70
ENCODING 23664
SWIDTH 1000 0
DWIDTH 24 0
BBX 22 24 1 -2
BITMAP
000100
0401C0
030180
018300
018200
000418
FFFFFC
003000
003000
1C3070
183060
183060
183060
183060
1FFFE0
183060
183060
003000
006000
006000
00C000
018000
060000
380000
ENDCHAR
STARTCHAR uni5C7C
ENCODING 23676
SWIDTH 1000 0
DWIDTH 24 0
BBX 23 22 1 -1
BITMAP
1C0018
18FFFC
180000
181CE0
DB18C0
DB18C0
DB18C0
DB18C0
DB18C0
DB18C0
DB18C0
DB18C0
DB18C0
DB18C0
DB18C0
FF30C0
C330C0
C060C4
0060C4
00C0C6
0180FE
06007C
ENDCHAR
STARTCHAR uni5C88
ENCODING 23688
SWIDTH 1000 0
DWIDTH 24 0
BBX 23 23 1 -2
BITMAP
1C0818
180FFC
180C60
180C60
DB0C60
DB0C60
DB0C60
DB0C60
DB0C6C
DB7FFE
DB00E0
DB01E0
DB01E0
DB0360
DB0360
FF0660
C30660
C00C60
001860
003060
00C060
0303E0
0000C0
ENDCHAR
STARTCHAR uni5C8A
ENCODING 23690
SWIDTH 1000 0
DWIDTH 24 0
BBX 22 24 2 -2
BITMAP
400060
7FFFF0
606060
606060
606060
606060
7FFFE0
600060
600008
600008
60000C
7FFFFC
3FFFF8
000000
007000
006000
E06038
C06030
C06030
C06030
C06030
C06030
FFFFF0
C00030
ENDCHAR
STARTCHAR uni5CA0
ENCODING 23712
SWIDTH 1000 0
DWIDTH 24 0
BBX 23 23 1 -1
BITMAP
1C0018
18FFFC
183000
183000
183000
DB3000
DB3018
DB3FFC
DB3018
DB3018
DB3018
DB3018
DB3018
DB3018
DB3FF8
DB3018
DB3000
FF3000
C33000
C03000
003000
00300C
01FFFE
ENDCHAR
STARTCHAR uni5CA2
ENCODING 23714
SWIDTH 1000 0
DWIDTH 24 0
BBX 24 24 0 -2
BITMAP
001C00
1C181C
181818
181818
181818
181818
1FFFF8
180018
000000
000006
FFFFFF
000060
000060
081860
0FFC60
0C1860
0C1860
0C1860
0FF860
0C1860
0C0060
000060
0003E0
0000C0
ENDCHAR
STARTCHAR uni5CA6
ENCODING 23718
SWIDTH 1000 0
DWIDTH 24 0
BBX 24 23 0 -1
BITMAP
001C00
38180E
30180C
30180C
30180C
30180C
3FFFFC
30000C
001C00
001800
001800
00180C
7FFFFE
000080
0200E0
0100C0
0180C0
008080
00C180
00C100
00C100
000206
FFFFFF
ENDCHAR
STARTCHAR uni5CA7
ENCODING 23719
SWIDTH 1000 0
DWIDTH 24 0
BBX 21 24 2 -2
BITMAP
007000
E06038
C06030
C06030
C06030
FFFFF0
C00030
000000
FFFFF0
00C030
00C030
018030
030060
060060
1807C0
E00180
400060
7FFFF0
600060
600060
600060
600060
7FFFE0
600060
ENDCHAR
STARTCHAR uni5CAD
ENCODING 23725
SWIDTH 1000 0
DWIDTH 24 0
BBX 23 24 1 -2
BITMAP
000300
1C0300
180680
180680
180C40
DB0C60
DB1838
DB101E
DB206C
DB5FF4
DB8000
DB0000
DB0030
DB7FF8
DB0C30
DB0C30
FF0C30
C30C30
C00C30
000C30
000DF0
000C60
000C00
000C00
ENDCHAR
STARTCHAR uni5CB5
ENCODING 23733
SWIDTH 1000 0
DWIDTH 24 0
BBX 23 24 1 -2
BITMAP
000380
1C0300
180300
180300
180300
DB030C
DB7FFE
DB0300
DB0300
DB0300
DB0300
DB0300
DB2318
DB3FFC
DB3018
DB3018
FF3018
C33018
C03018
003018
003018
003FF8
003018
003018
ENDCHAR
STARTCHAR uni5CC9
ENCODING 23753
SWIDTH 1000 0
DWIDTH 24 0
BBX 24 24 0 -2
BITMAP
001C00
38180E
30180C
30180C
30180C
3FFFFC
30600C
00C180
01FFC0
030380
0C8700
304C00
003800
006E00
01C3E0
0700FF
1C001E
E7FFE0
060060
060060
060060
060060
07FFE0
060060
ENDCHAR
STARTCHAR uni5D06
ENCODING 23814
SWIDTH 1000 0
DWIDTH 24 0
BBX 23 23 1 -1
BITMAP
0001C0
1C0180
182180
182186
183FFE
DB6666
DB6664
DB6668
DB0C60
DB0C62
DB087E
DB103C
DB2000
DB0000
DB0018
DB1FFC
FF0180
C30180
C00180
000180
000180
00018C
007FFE
ENDCHAR
STARTCHAR uni5D10
ENCODING 23824
SWIDTH 1000 0
DWIDTH 24 0
BBX 23 24 1 -2
BITMAP
002030
1C3FF8
183030
183030
183030
DB3FF0
DB3030
DB3030
DB3030
DB3FF0
DB3030
DB0000
DB38E0
DB30C4
DB30CE
DB3EDC
FF30F0
C330C0
C030C0
0030C4
003EC4
01F8C6
00E0FE
00807C
ENDCHAR
STARTCHAR uni5D1D
ENCODING 23837
SWIDTH 1000 0
DWIDTH 24 0
BBX 23 24 1 -2
BITMAP
000380
1C0300
180308
187FFC
180300
DB0310
DB3FF8
DB0300
DB0304
DBFFFE
DB0000
DB2030
DB3FF8
DB3330
DB3330
DB3330
FF3330
C33FF0
C03030
003030
003030
003030
0031F0
003060
ENDCHAR
STARTCHAR uni5D20
ENCODING 23840
SWIDTH 1000 0
DWIDTH 24 0
BBX 23 24 1 -2
BITMAP
000380
1C0300
18030C
18FFFE
180300
DB4318
DB7FFC
DB6318
DB6318
DB6318
DB7FF8
DB6318
DB6318
DB6318
DB7FF8
DB6798
FF0F40
C30F40
C01B20
003330
006318
00C31E
03030C
000300
ENDCHAR
STARTCHAR uni5D24
ENCODING 23844
SWIDTH 1000 0
DWIDTH 24 0
BBX 23 24 1 -2
BITMAP
000020
1C3078
180CE0
180380
1806E0
DB1838
DB6018
DB0700
DB060C
DBFFFE
DB0C00
DB1800
DB1FF8
DB3818
DB5818
DB9FF8
FF1818
C31818
C01FF8
001818
001818
001818
0018F8
001830
ENDCHAR
STARTCHAR uni5D26
ENCODING 23846
SWIDTH 1000 0
DWIDTH 24 0
BBX 23 24 1 -2
BITMAP
000400
1C0700
180600
18060C
18FFFE
DB0480
DB0C40
DB0860
DB1B38
DB331E
DB7FFC
DBB330
DB3330
DB3330
DB3FF0
DB3330
FF3330
C33330
C03FF0
003304
000304
000306
0003FE
0001FC
ENDCHAR
STARTCHAR uni5D2B
ENCODING 23851
SWIDTH 1000 0
DWIDTH 24 0
BBX 23 24 0 -2
BITMAP
001C00
38180E
30180C
30180C
3FFFFC
30000C
000000
1FFFFC
18000C
18000C
1FFFFC
18000C
180700
19C61C
198618
198618
19FFF8
198618
300600
33860E
63060C
43060C
83FFFC
03000C
ENDCHAR
STARTCHAR uni5D31
ENCODING 23857
SWIDTH 1000 0
DWIDTH 24 0
BBX 23 24 0 -2
BITMAP
001C00
38180E
30180C
30180C
30180C
3FFFFC
30000C
000000
3FF00E
3031CC
30318C
3FF18C
30318C
30318C
3FF18C
30318C
30318C
30318C
3FF00C
08000C
0E400C
1C300C
30187C
C01818
ENDCHAR
STARTCHAR uni5D39
ENCODING 23865
SWIDTH 1000 0
DWIDTH 24 0
BBX 23 24 1 -2
BITMAP
000380
1C0300
180318
187FFC
181040
DB0870
DB0C60
DB4C84
DB7FFE
DBC00C
DBC390
DB0300
DB4318
DB7FFC
DB6318
DB6318
FF6318
C36318
C06318
006318
006378
006330
000300
000300
ENDCHAR
STARTCHAR uni5D42
ENCODING 23874
SWIDTH 1000 0
DWIDTH 24 0
BBX 24 24 0 -2
BITMAP
001C00
38180E
30180C
30180C
3FFFFC
30000C
080380
0E0318
1C7FFC
180318
32031A
63FFFF
870318
060318
0C7FF8
180300
380308
58FFFC
980302
19FFFF
180300
180300
180300
180300
ENDCHAR
STARTCHAR uni5D61
ENCODING 23905
SWIDTH 1000 0
DWIDTH 24 0
BBX 24 24 0 -2
BITMAP
001C00
38180E
30180C
30180C
3FFFFC
30008C
027FC0
030080
063060
0C6238
30419F
C7FEC6
0380C0
000000
7FF7FE
04608C
0E61CC
18E31C
61EC3C
03606C
0C618C
10620C
03E07C
00C018
ENDCHAR
STARTCHAR uni5D6A
ENCODING 23914
SWIDTH 1000 0
DWIDTH 24 0
BBX 23 24 1 -2
BITMAP
000380
1C0300
18030C
18FFFE
180000
DB0000
DB1FF0
DB1830
DB1830
DB1FF0
DB0000
DB400C
DB7FFE
DB600C
DB600C
DB6FEC
FF6C6C
C36C6C
C06C6C
006FEC
00600C
00600C
00603C
006018
ENDCHAR
STARTCHAR uni5D70
ENCODING 23920
SWIDTH 1000 0
DWIDTH 24 0
BBX 23 24 1 -2
BITMAP
000310
1C0638
183DE0
180CC0
18FFFC
DB0CC0
DB0CC8
DB7FFC
DB0CC8
DB0CC8
DBFFFE
DB0CC8
DB0CC8
DB7FF8
DB0CC8
DB1CC0
FF1CE0
C33CE0
C02CD0
006CD8
004CCE
008CCC
010CC4
000CC0
ENDCHAR
STARTCHAR uni5D88
ENCODING 23944
SWIDTH 1000 0
DWIDTH 24 0
BBX 24 24 0 -2
BITMAP
001C00
38180E
30180C
30180C
3FFFFC
30000C
0300C0
73018C
6303FE
63071C
631DB8
7F6CF0
6306C0
0307B8
033C30
FF0036
337FFF
331030
330C30
330630
630630
630030
4301F0
830060
ENDCHAR
STARTCHAR uni5D92
ENCODING 23954
SWIDTH 1000 0
DWIDTH 24 0
BBX 23 24 1 -2
BITMAP
001FC0
1C0040
181860
181830
18301C
DB200E
DB7FFE
DBE318
DB7378
DB6B58
DB6F98
DB6318
DB7FF8
DB0000
DB2030
DB3FF8
FF3030
C33030
C03FF0
003030
003030
003030
003FF0
003030
ENDCHAR
STARTCHAR uni5D94
ENCODING 23956
SWIDTH 1000 0
DWIDTH 24 0
BBX 24 24 0 -2
BITMAP
001C00
38180E
30180C
30180C
3FFFFC
30040C
060700
070600
0CC60C
0867FE
10658C
3F8988
460990
86D180
7FE180
060180
466340
26C340
368220
370620
066410
FF881C
78100F
406006
ENDCHAR
STARTCHAR uni5D97
ENCODING 23959
SWIDTH 1000 0
DWIDTH 24 0
BBX 23 24 1 -2
BITMAP
000C18
1C2952
182B56
186AD4
1858B0
DB142C
DB2646
DB4282
DB200C
DB3FFE
DB600C
DB6388
DB0300
DB0318
DB3FFC
DB0318
FF0618
C30618
C00C18
000C18
001838
003030
0061F0
018060
ENDCHAR
STARTCHAR uni5D99
ENCODING 23961
SWIDTH 1000 0
DWIDTH 24 0
BBX 23 24 1 -2
BITMAP
0021D0
1C119C
181998
1819A0
180184
DB3FFE
DB07A0
DB05A0
DB0D90
DB099C
DB118E
DB6184
DB1018
DB1E98
DB12FE
DB3298
FF2698
C35498
C09C98
000BFE
001818
003018
006018
018018
ENDCHAR
STARTCHAR uni5DB0
ENCODING 23984
SWIDTH 1000 0
DWIDTH 24 0
BBX 23 24 1 -2
BITMAP
00800C
20C9FE
20FC4C
20884C
21984C
A5104C
A524CC
A5FEBC
A52518
A52400
A52438
A5FCB0
A524B0
A524FE
A52530
A52430
FDFC30
8505FE
810430
010430
030430
020430
023C30
040C30
ENDCHAR
STARTCHAR uni5DB2
ENCODING 23986
SWIDTH 1000 0
DWIDTH 24 0
BBX 23 24 0 -2
BITMAP
001C00
38180E
30180C
30180C
3FFFFC
34080C
070E00
0E0C18
1FFFFC
381800
DFFFF0
181800
1FFFF0
181804
1FFFFE
180000
00C20C
3FE3FE
30C30C
30FF0C
30C30C
30000C
30007C
300018
ENDCHAR
STARTCHAR uni5DB4
ENCODING 23988
SWIDTH 1000 0
DWIDTH 24 0
BBX 24 24 0 -2
BITMAP
00E000
10C018
1FFFFC
180718
19FF98
189B18
18DA18
1BFFD8
183C18
187B18
18D998
1B1998
003002
FFFFFF
006100
01C0C0
070078
1C1C1F
E01806
181818
181818
181818
1FFFF8
180018
ENDCHAR
STARTCHAR uni5DB9
ENCODING 23993
SWIDTH 1000 0
DWIDTH 24 0
BBX 23 24 1 -2
BITMAP
000380
1C0310
187FF8
180300
180320
DB3FF0
DB0004
DBFFFE
DB0004
DB3FE8
DB0300
DB0320
DB7FF0
DB0004
DBFFFE
DB0018
DB0018
FF7DFE
C36C18
C06D98
006C98
007C18
000078
000030
ENDCHAR
STARTCHAR uni5DD1
ENCODING 24017
SWIDTH 1000 0
DWIDTH 24 0
BBX 23 24 1 -2
BITMAP
0058B0
1C50A0
18FDFC
189120
181020
DBFFFE
DB2850
DB2A54
DB6C96
DB491E
DB8000
DB3FF8
DB3018
DB3FF8
DB3018
DB3018
FF3FF8
C33018
C03018
003FF8
000800
001C70
00381C
00C00C
ENDCHAR
STARTCHAR uni5DD7
ENCODING 24023
SWIDTH 1000 0
DWIDTH 24 0
BBX 23 24 1 -2
BITMAP
008D18
20FDFC
208D18
208D18
20FDF8
A80000
AA000C
ABFFFE
AB0040
AB7C70
AB1060
ABFEC4
AB44FE
AB458C
AB7D0C
AB4688
AB4498
FB7C50
8A4470
824420
027C78
05E45E
04848C
080504
ENDCHAR
STARTCHAR uni5DD8
ENCODING 24024
SWIDTH 1000 0
DWIDTH 24 0
BBX 23 24 1 -2
BITMAP
007070
206060
207C68
22626C
23FF6C
AB4260
ABF86C
AB45FE
AB3C60
AB0060
ABFE60
AB0070
AB7C50
AB4450
AB7C50
AB0050
FAFE50
8AAA48
82EE48
028288
04BA8C
04928E
089304
009704
ENDCHAR
STARTCHAR uni5DE0
ENCODING 24032
SWIDTH 1000 0
DWIDTH 24 0
BBX 24 23 0 -1
BITMAP
00000C
7FFFFE
000000
071C70
061860
0C30C0
186180
30C300
186180
0C30C0
061860
071C70
030C30
030C30
000008
3FFFFC
001800
001800
001800
001800
001800
001806
FFFFFF
ENDCHAR
STARTCHAR uni5DE4
ENCODING 24036
SWIDTH 1000 0
DWIDTH 24 0
BBX 24 24 0 -2
BITMAP
061860
0C30C0
186180
0E38E0
061860
100018
1FFFFC
18E398
181E18
187C18
19C318
1FFFF8
000000
1C3870
1A3460
19B360
18B160
1A3460
19B362
18B132
183032
FEFE1A
70700F
404007
ENDCHAR
STARTCHAR uni5DE9
ENCODING 24041
SWIDTH 1000 0
DWIDTH 24 0
BBX 24 23 0 -2
BITMAP
000030
007FF8
030030
FF8C30
180C30
180C30
180C30
180C30
180C30
180DB0
187FF0
180C30
180C30
180C30
198C30
1E0830
F81812
60181A
40101A
00300E
00200E
004007
008003
ENDCHAR
STARTCHAR uni5E00
ENCODING 24064
SWIDTH 1000 0
DWIDTH 24 0
BBX 23 23 1 -2
BITMAP
00000C
FFFFFE
003000
003000
003000
403018
7FFFFC
603018
603018
603018
603018
603018
603018
603018
603018
603018
603018
6030F8
603030
003000
003000
003000
003000
ENDCHAR
STARTCHAR uni5E12
ENCODING 24082
SWIDTH 1000 0
DWIDTH 24 0
BBX 24 24 0 -2
BITMAP
041C80
071860
0E1820
0C180C
180FFE
39FC00
580600
980700
180382
1801C2
1800F3
18003F
181C0E
001800
101818
1FFFFC
181818
181818
181818
181818
181818
1818F8
181830
001800
ENDCHAR
STARTCHAR uni5E15
ENCODING 24085
SWIDTH 1000 0
DWIDTH 24 0
BBX 23 24 1 -2
BITMAP
1C0200
180380
180300
180300
9B0200
FFA40C
DB3FFE
DB300C
DB300C
DB300C
DB300C
DB300C
DB300C
DB3FFC
DB300C
DF300C
DA300C
D8300C
18300C
18300C
18300C
183FFC
18300C
18300C
ENDCHAR
STARTCHAR uni5E1F
ENCODING 24095
SWIDTH 1000 0
DWIDTH 24 0
BBX 24 24 0 -2
BITMAP
001C00
001800
001806
FFFFFF
00C300
10C300
1CC330
18C30C
318306
218307
430303
860300
181C00
001800
101818
1FFFFC
181818
181818
181818
181818
181818
1818F8
181830
001800
ENDCHAR
STARTCHAR uni5E2E
ENCODING 24110
SWIDTH 1000 0
DWIDTH 24 0
BBX 23 24 1 -2
BITMAP
07020C
0663FE
7FF30C
060318
066330
7FF320
060310
063308
FFFB0C
0E030C
0C037C
180318
300300
C03B00
003000
203030
3FFFF8
303030
303030
303030
303030
3031F0
303060
003000
ENDCHAR
STARTCHAR uni5E3E
ENCODING 24126
SWIDTH 1000 0
DWIDTH 24 0
BBX 23 24 1 -2
BITMAP
1C0700
180608
18060E
18066C
9B7FF8
FF0618
DB0630
DB0660
DB06CC
DBFFFE
DB0360
DB0630
DB0C30
DB1FFC
DB7818
DF9818
DA1818
D81FF8
181818
181818
181818
181FF8
181818
181818
ENDCHAR
STARTCHAR uni5E49
ENCODING 24137
SWIDTH 1000 0
DWIDTH 24 0
BBX 23 24 1 -2
BITMAP
1C1920
181920
181920
18192C
9B7FFE
FF9920
DB1920
DB1920
DB19E0
DB1800
DB1818
DB1FFC
DB1800
DB0380
DB030C
DF7FFE
DA0740
D80F40
180B20
181B30
18331E
18631C
19830C
180300
ENDCHAR
STARTCHAR uni5E56
ENCODING 24150
SWIDTH 1000 0
DWIDTH 24 0
BBX 23 24 1 -2
BITMAP
1C0018
18FFFC
180480
180480
9B4498
FF7FFC
DB6498
DB6498
DB6498
DB6498
DB7FF8
DB6018
DB0000
DB3FF0
DB0000
DF000C
DAFFFE
D80300
182300
183320
186318
18430C
189F0C
180600
ENDCHAR
STARTCHAR uni5E6B
ENCODING 24171
SWIDTH 1000 0
DWIDTH 24 0
BBX 24 24 0 -2
BITMAP
070038
060030
7FE036
060FFF
FFF030
060630
7FE330
060330
07F030
FF81F0
781860
043000
07FFE0
060060
07FFE0
060060
07FFE0
101818
1FFFFC
181818
181818
1818F8
181830
001800
ENDCHAR
STARTCHAR uni5E6C
ENCODING 24172
SWIDTH 1000 0
DWIDTH 24 0
BBX 23 24 1 -2
BITMAP
1C0380
180310
187FF8
180300
9B0320
FFBFF0
DB0004
DBFFFE
DB0004
DB3FE8
DB0300
DB0320
DB7FF0
DB0004
DBFFFE
DF0018
DA0018
D87DFE
186C18
186D98
186C98
187C18
180078
180030
ENDCHAR
STARTCHAR uni5E6D
ENCODING 24173
SWIDTH 1000 0
DWIDTH 24 0
BBX 23 24 1 -2
BITMAP
1C0E70
180C64
18FFFE
180C60
9B0C60
FF8000
DB7FFC
DB4444
DB4444
DB7FFC
DB0020
DB0198
DB4188
DB7FFE
DB6180
DF6188
DA608C
D85898
184CF0
18C444
1880E4
1883B4
191C1E
1A0006
ENDCHAR
STARTCHAR uni5E6E
ENCODING 24174
SWIDTH 1000 0
DWIDTH 24 0
BBX 23 24 1 -2
BITMAP
380380
300300
30830C
30FFFE
B6C000
FEC60E
B6C60C
B6FFCC
B6C60C
B6C67E
B6DF8C
B6C00C
B6DF4C
B6DB6C
B6DB6C
BEDF0C
B4DB0C
B0C00C
30930C
309A0C
310ACC
317F0C
323C3C
342018
ENDCHAR
STARTCHAR uni5EA5
ENCODING 24229
SWIDTH 1000 0
DWIDTH 24 0
BBX 24 24 0 -2
BITMAP
000E00
000C00
000C00
100C06
1FFFFF
180000
1840E0
1870C0
1860C0
18C0C6
18DFFF
1981E0
1981E0
1B83D0
1B83D0
1D86D8
3186C8
318CCC
3188C6
2190C7
61A0C2
4180C0
8180C0
0180C0
ENDCHAR
STARTCHAR uni5EAA
ENCODING 24234
SWIDTH 1000 0
DWIDTH 24 0
BBX 24 24 0 -2
BITMAP
001C00
001800
201806
3FFFFF
300000
31C0E0
3180C0
3180C0
3180C6
31AFFF
3FF0C0
3180C0
3180CC
318FFE
31E20C
3F8118
378118
2580B0
618060
6180E0
4181B0
41831C
8F8C0F
033006
ENDCHAR
STARTCHAR uni5EAC
ENCODING 24236
SWIDTH 1000 0
DWIDTH 24 0
BBX 24 24 0 -2
BITMAP
001C00
001800
201806
3FFFFF
300000
30E300
30C180
30C186
3FFFFF
30C008
30C01C
30F070
31F1C4
31B60E
31B038
31B0E2
31B787
21301C
6330F2
623782
463003
443FFF
881FFE
100000
ENDCHAR
STARTCHAR uni5EB9
ENCODING 24249
SWIDTH 1000 0
DWIDTH 24 0
BBX 24 24 0 -2
BITMAP
000E00
000C00
100C06
1FFFFF
180000
1871C0
18618C
1FFFFE
186180
186180
187F80
186180
190030
19FFF8
198030
198030
19FFF0
198130
318080
3100C0
230060
420038
84001F
080006
ENDCHAR
STARTCHAR uni5EBF
ENCODING 24255
SWIDTH 1000 0
DWIDTH 24 0
BBX 24 24 0 -2
BITMAP
000E00
000C00
000C00
100C06
1FFFFF
180000
1838E0
1830C0
1830C6
1FFFFF
1830C0
1830C0
190018
19FFFC
198618
198618
318618
31FFF8
318618
218618
618618
418618
81FFF8
018018
ENDCHAR
STARTCHAR uni5EC6
ENCODING 24262
SWIDTH 1000 0
DWIDTH 24 0
BBX 24 24 0 -2
BITMAP
001C00
001800
101806
1FFFFF
181000
181800
193018
19FFFC
198618
198618
19FFF8
198618
198618
198618
19FFF8
19B320
303320
303360
306348
2063FA
60C34A
418303
8303FF
0C01FE
ENDCHAR
STARTCHAR uni5ED2
ENCODING 24274
SWIDTH 1000 0
DWIDTH 24 0
BBX 24 24 0 -2
BITMAP
001C00
001800
101806
1FFFFF
180000
186080
1860E0
1BFCC0
1860C6
1860FF
1FFD8C
18610C
18628C
1FFC98
188058
189850
30FC30
309820
319870
211850
6118D8
42308C
84F10F
006206
ENDCHAR
STARTCHAR uni5ED9
ENCODING 24281
SWIDTH 1000 0
DWIDTH 24 0
BBX 24 24 0 -2
BITMAP
001C00
001800
101806
1FFFFF
180000
190018
19FFFC
198618
198618
19FFF8
198618
198618
19FFF8
1830C0
1830CC
1BFFFE
3030C0
3030C6
37FFFF
202000
6038E0
40703C
81C00E
0E0006
ENDCHAR
STARTCHAR uni5EFD
ENCODING 24317
SWIDTH 1000 0
DWIDTH 24 0
BBX 24 24 0 -2
BITMAP
064006
FF7FFF
066666
0C6666
0C6666
186666
1867E6
336666
7F6666
636666
036666
036666
2367E6
266666
566666
566666
0C6666
0C7FFE
0A6006
198000
10F000
203FFF
400FFE
800000
ENDCHAR
STARTCHAR uni5F08
ENCODING 24328
SWIDTH 1000 0
DWIDTH 24 0
BBX 24 24 0 -2
BITMAP
001C00
001800
001806
FFFFFF
006300
086300
0E6320
0C6318
18C30C
10C306
218306
431F00
060600
18E1C0
00C180
00C186
FFFFFF
00C180
018180
018180
030180
060180
180180
600180
ENDCHAR
STARTCHAR uni5F0E
ENCODING 24334
SWIDTH 1000 0
DWIDTH 24 0
BBX 24 24 0 -2
BITMAP
000720
000610
000618
000618
000600
000606
FFFFFF
000600
000600
000600
006300
3FF300
000300
000300
000180
00C180
1FE180
0000C4
0000C4
000064
003074
7FF83E
00001E
00000C
ENDCHAR
STARTCHAR uni5F1C
ENCODING 24348
SWIDTH 1000 0
DWIDTH 24 0
BBX 23 24 1 -2
BITMAP
00C00C
FFEFFE
00C00C
00C00C
00C00C
40C40C
7FC7FC
60C60C
600600
600600
600600
60C60C
FFEFFE
C0CC0C
C0CC0C
00C00C
00C00C
00C00C
00C00C
01C01C
018018
038038
1F01F0
060060
ENDCHAR
STARTCHAR uni5F1E
ENCODING 24350
SWIDTH 1000 0
DWIDTH 24 0
BBX 24 24 0 -2
BITMAP
018400
FFC700
018600
018600
018600
418C06
7F8FFF
618986
601986
601184
602188
61A180
7FC180
C18180
C18340
018340
018340
018220
018620
038430
030C18
07081F
3E100E
0C6006
ENDCHAR
STARTCHAR uni5F47
ENCODING 24391
SWIDTH 1000 0
DWIDTH 24 0
BBX 24 24 0 -2
BITMAP
0601C0
FF018C
063FFE
06018C
06018C
467FFF
7E018C
66018C
603FFC
600180
606DB7
666DB6
7F6DB6
C67DBE
C66186
067FFE
066186
066DB6
067DBE
064DB6
0E4DB6
0CCDB6
7C8DB6
190186
ENDCHAR
STARTCHAR uni5F63
ENCODING 24419
SWIDTH 1000 0
DWIDTH 24 0
BBX 24 24 0 -2
BITMAP
070000
060010
06001C
060038
063070
FFF8C0
10C188
10C60E
10D81C
28C038
688060
2980C4
098307
0D8C0E
05001C
070030
030060
078180
04C600
0C7000
083E00
100FC0
2001FF
C0003E
ENDCHAR
STARTCHAR uni5F72
ENCODING 24434
SWIDTH 1000 0
DWIDTH 24 0
BBX 24 24 0 -2
BITMAP
020408
7F7E0E
00000C
3E7C18
224410
2A5420
2A5444
018087
21840E
3FFE0C
222018
222010
3FFC20
222444
222487
3FFC06
20000E
28440C
2F4E18
487010
484420
8F4640
BC7E80
103D00
ENDCHAR
STARTCHAR uni5F7E
ENCODING 24446
SWIDTH 1000 0
DWIDTH 24 0
BBX 24 24 0 -2
BITMAP
040600
070600
0E0D00
0C0C80
1818C0
301860
443038
87201F
0E40CE
0CBFE6
190000
380000
580018
99FFFC
180C18
180C18
180C18
180C18
180C18
180C18
180CF8
180C30
180C00
180C00
ENDCHAR
STARTCHAR uni5F8F
ENCODING 24463
SWIDTH 1000 0
DWIDTH 24 0
BBX 24 24 0 -2
BITMAP
0401C0
070180
0E0180
0C398C
1831FE
303180
443180
873180
0E3186
0DFFFF
180180
382180
583988
98318E
18619C
184198
188FB8
190330
180060
1800C0
180180
180600
181800
18E000
ENDCHAR
STARTCHAR uni5FA2
ENCODING 24482
SWIDTH 1000 0
DWIDTH 24 0
BBX 24 24 0 -2
BITMAP
040380
070300
0E030C
0CFFFE
180300
300318
443FFC
870318
0E031A
0CFFFF
180318
380318
583FF8
980318
184300
187300
18630C
1863FE
186300
185300
18CB00
188700
1903FF
1A00FE
ENDCHAR
STARTCHAR uni5FA4
ENCODING 24484
SWIDTH 1000 0
DWIDTH 24 0
BBX 24 24 0 -2
BITMAP
0801C0
1C0180
180198
37CFFC
20C198
48C19A
8DBFFF
1D8198
1B0198
330FF8
37E198
766180
B06188
326FFC
326180
356182
357FFF
30C180
30C180
31A180
313800
321FFF
3407FE
300000
ENDCHAR
STARTCHAR uni5FB8
ENCODING 24504
SWIDTH 1000 0
DWIDTH 24 0
BBX 24 24 0 -2
BITMAP
040380
070300
0E0318
0CFFFC
181040
300860
440840
87008C
0EFFFE
0C0000
187FF8
386318
586318
987FF8
186318
186318
187FF8
180300
180308
18FFFC
180300
180302
1BFFFF
180000
ENDCHAR
STARTCHAR uni5FC4
ENCODING 24516
SWIDTH 1000 0
DWIDTH 24 0
BBX 13 24 5 -2
BITMAP
0380
0300
0300
0300
0340
1320
1330
1318
3318
3300
6300
E300
C300
0300
0300
0300
0300
0300
0300
0300
0300
0300
0300
0300
ENDCHAR
STARTCHAR uni5FC7
ENCODING 24519
SWIDTH 1000 0
DWIDTH 24 0
BBX 24 24 0 -2
BITMAP
0E0380
0C0300
0C0300
0C0300
0E0300
2D0300
2D8306
2DBFFF
6C0306
6C0306
CC0306
CC0306
0C0706
0C0606
0C0606
0C0606
0C0606
0C0C06
0C0C0E
0C080C
0C180C
0C101C
0C20F8
0CC030
ENDCHAR
STARTCHAR uni5FCB
ENCODING 24523
SWIDTH 1000 0
DWIDTH 24 0
BBX 23 24 0 -2
BITMAP
0E0000
0C0018
0C3FFC
0C0018
0E0018
2D0018
2D8018
2D8018
6C0018
6C2018
CC3FF8
CC3018
0C3018
0C3000
0C3000
0C3000
0C3000
0C3000
0C3000
0C3004
0C3004
0C3006
0C3FFE
0C1FFC
ENDCHAR
STARTCHAR uni5FD2
ENCODING 24530
SWIDTH 1000 0
DWIDTH 24 0
BBX 24 24 0 -2
BITMAP
000720
000610
000618
000618
000600
000606
FFFFFF
000600
040600
030600
018600
00C300
00C300
0E0300
0C2180
2C1180
2C1980
6C0CC4
6C4CC4
CC4C64
CC6074
0FE03E
07C01E
00000C
ENDCHAR
STARTCHAR uni5FD3
ENCODING 24531
SWIDTH 1000 0
DWIDTH 24 0
BBX 24 24 0 -2
BITMAP
0E0000
0C000C
0C7FFE
0C0180
0E0180
2D0180
2D8180
2D8180
6C0180
6C0180
CC0186
CCFFFF
0C0180
0C0180
0C0180
0C0180
0C0180
0C0180
0C0180
0C0180
0C0180
0C0180
0C0180
0C0180
ENDCHAR
STARTCHAR uni5FD4
ENCODING 24532
SWIDTH 1000 0
DWIDTH 24 0
BBX 24 24 0 -2
BITMAP
0E0800
0C0E00
0C0C00
0C0C00
0E0C06
2D1FFF
2D9800
2D9800
6C3000
6C2018
CC5FFC
CC8038
0C0070
0C00E0
0C01C0
0C0380
0C0700
0C0E02
0C1C02
0C1802
0C3802
0C3007
0C3FFF
0C1FFE
ENDCHAR
STARTCHAR uni5FE2
ENCODING 24546
SWIDTH 1000 0
DWIDTH 24 0
BBX 24 24 0 -2
BITMAP
000018
3FFFFC
003000
003000
006000
0060C0
1FFFE0
00C0C0
00C0C0
00C0C0
0180C0
0180C6
FFFFFF
000000
001000
01CC20
118618
11860E
318007
618043
E18043
C18060
01FFE0
00FFC0
ENDCHAR
STARTCHAR uni5FEE
ENCODING 24558
SWIDTH 1000 0
DWIDTH 24 0
BBX 24 24 0 -2
BITMAP
0E01C0
0C0180
0C0180
0C0186
0E7FFF
2D0180
2D8180
2D8180
6C0180
6C018C
CC7FFE
CC080C
0C0818
0C0418
0C0430
0C0260
0C03C0
0C0180
0C03C0
0C0660
0C0C38
0C181F
0C600E
0D8002
ENDCHAR
STARTCHAR uni5FEF
ENCODING 24559
SWIDTH 1000 0
DWIDTH 24 0
BBX 24 24 0 -2
BITMAP
0E000C
0C003E
0C21F0
0C3FC0
0E30C0
2D30C0
2DB0C0
2DB0C0
6C30C0
6C30C6
CC3FFF
CC30C0
0C30C0
0C30C0
0C30C0
0C3060
0C3060
0C3062
0C3032
0C3032
0C331A
0DFC1F
0CE00F
0C8006
ENDCHAR
STARTCHAR uni5FF3
ENCODING 24563
SWIDTH 1000 0
DWIDTH 24 0
BBX 24 24 0 -2
BITMAP
0E01C0
0C0180
0C0186
0C019F
0E01F0
2D7F80
2D8180
2D8180
6C398E
6C318C
CC318C
CC318C
0C318C
0C318C
0C318C
0C3FFC
0C318C
0C3180
0C0182
0C0182
0C0182
0C0183
0C01FF
0C00FE
ENDCHAR
STARTCHAR uni5FFC
ENCODING 24572
SWIDTH 1000 0
DWIDTH 24 0
BBX 24 24 0 -2
BITMAP
0E0380
0C0300
0C0300
0C0300
0E0306
2D7FFF
2D8000
2D8000
6C1060
6C1FF0
CC1860
CC1860
0C1860
0C1860
0C1860
0C1860
0C1860
0C1860
0C1862
0C3062
0C3062
0C6063
0CC07F
0D003E
ENDCHAR
STARTCHAR uni6017
ENCODING 24599
SWIDTH 1000 0
DWIDTH 24 0
BBX 24 24 0 -2
BITMAP
0E0380
0C0300
0C0300
0C0300
0E0300
2D0306
2D83FF
2D8300
6C0300
6C0300
CC0300
CC0300
0C430C
0C7FFE
0C600C
0C600C
0C600C
0C600C
0C600C
0C600C
0C600C
0C7FFC
0C600C
0C600C
ENDCHAR
STARTCHAR uni6022
ENCODING 24610
SWIDTH 1000 0
DWIDTH 24 0
BBX 24 24 0 -2
BITMAP
0E01C0
0C1180
0C1D80
0C1980
0E1980
2D118C
2DBFFE
2DA180
6C2180
6C4180
CC0180
CC0186
0C7FFF
0C0180
0C0340
0C0340
0C0360
0C0620
0C0630
0C0C18
0C181C
0C300F
0C6006
0C8002
ENDCHAR
STARTCHAR uni6024
ENCODING 24612
SWIDTH 1000 0
DWIDTH 24 0
BBX 24 24 0 -2
BITMAP
020070
038060
070066
067FFF
0E0060
1E2060
361860
C60C60
060C60
060060
060060
060060
0603E0
0600C0
001000
01C800
118C10
11860C
318606
618043
E18043
C18060
01FFE0
00FFC0
ENDCHAR
STARTCHAR uni604C
ENCODING 24652
SWIDTH 1000 0
DWIDTH 24 0
BBX 24 24 0 -2
BITMAP
0E0670
0C0660
0C0660
0C0660
0E4664
2D2667
2DA666
2DB66C
6C3670
6C3660
CC0660
CC0660
0C0E70
0C366C
0CE666
0C6663
0C4663
0C0660
0C0E60
0C0C62
0C0C62
0C1863
0C307F
0CC03E
ENDCHAR
STARTCHAR uni607F
ENCODING 24703
SWIDTH 1000 0
DWIDTH 24 0
BBX 24 24 0 -2
BITMAP
000060
1FFFF0
0001C0
006700
103818
1FFFFC
181818
181818
1FFFF8
181818
181818
1FFFF8
181818
181818
1818F8
000030
01D000
118C10
11860C
318646
618043
E18063
C1FFE0
00FFC0
ENDCHAR
STARTCHAR uni608A
ENCODING 24714
SWIDTH 1000 0
DWIDTH 24 0
BBX 24 24 0 -2
BITMAP
0E000C
0C087E
0CCFE0
FFEC00
0C0C00
0C0C06
0C0FFF
0F8C30
FE0C30
7C0C30
4C1830
0C1830
0C1030
7C2030
184030
000000
01D000
118C10
11860C
318646
618043
E18063
C1FFE0
00FFC0
ENDCHAR
STARTCHAR uni6095
ENCODING 24725
SWIDTH 1000 0
DWIDTH 24 0
BBX 24 24 0 -2
BITMAP
0E0010
0C183C
0C0770
0C01E0
0E03B8
2D0E1C
2DB38C
2D8300
6C0306
6CFFFF
CC0600
CC0DC0
0C0D80
0C1986
0C3FFF
0C7186
0CB186
0C3186
0C3186
0C3186
0C31BE
0C318C
0C0180
0C0180
ENDCHAR
STARTCHAR uni60A8
ENCODING 24744
SWIDTH 1000 0
DWIDTH 24 0
BBX 24 24 0 -2
BITMAP
020800
038E00
071C00
061806
0E3FFF
0C2186
1C4188
3C91A0
6C1D90
8C1998
0C1998
0C318C
0C218C
0C418C
0C0F80
0C0300
01D000
118C10
11860C
318646
618043
E18063
C1FFE0
00FFC0
ENDCHAR
STARTCHAR uni60B0
ENCODING 24752
SWIDTH 1000 0
DWIDTH 24 0
BBX 24 24 0 -2
BITMAP
0E01C0
0C0180
0C0180
0C1186
0F1FFF
2DB006
2D7004
2C6030
6C1FF8
6C0000
CC0000
CC0006
0C7FFF
0C0180
0C0180
0C1190
0C1D88
0C398C
0C3186
0C6187
0C4183
0C8183
0C0F80
0C0300
ENDCHAR
STARTCHAR uni60B1
ENCODING 24753
SWIDTH 1000 0
DWIDTH 24 0
BBX 24 24 0 -2
BITMAP
0E0670
0C0660
0C0660
0C0660
0E0666
2D7E7F
2D8660
2D8660
6C0660
6C066C
CC7E7E
CC0660
0C0660
0C0660
0C0660
0CFE66
0C767F
0C4660
0C0660
0C0C60
0C0C60
0C1860
0C3060
0CC060
ENDCHAR
STARTCHAR uni60BE
ENCODING 24766
SWIDTH 1000 0
DWIDTH 24 0
BBX 24 24 0 -2
BITMAP
0E01C0
0C0180
0C0180
0C1186
0F1FFF
2DB666
2D7664
2C6668
6C0C62
6C0C62
CC087F
CC103E
0C6000
0C0000
0C000C
0C3FFE
0C0180
0C0180
0C0180
0C0180
0C0180
0C0186
0CFFFF
0C0000
ENDCHAR
STARTCHAR uni60C8
ENCODING 24776
SWIDTH 1000 0
DWIDTH 24 0
BBX 24 24 0 -2
BITMAP
0E200C
0C3FFE
0C318C
0C318C
0E318C
2D3FFC
2DB18C
2DB18C
6C318C
6C318C
CC3FFC
CC318C
0C0180
0C0182
0CFFFF
0C07C0
0C07A0
0C0DA0
0C0D90
0C1998
0C318C
0C618F
0C8186
0D0182
ENDCHAR
STARTCHAR uni60D9
ENCODING 24793
SWIDTH 1000 0
DWIDTH 24 0
BBX 24 24 0 -2
BITMAP
0E0306
0CFFFF
0C0306
0C060C
0E76CC
2D1C38
2D8E1C
2D9B36
6C1063
6C20C3
CCC100
CC0000
0C0606
0CFFFF
0C0686
0C0C8C
0CCC8C
0C2858
0C1870
0C1C20
0C3670
0C66DC
0CC18F
0D0606
ENDCHAR
STARTCHAR uni60DB
ENCODING 24795
SWIDTH 1000 0
DWIDTH 24 0
BBX 24 24 0 -2
BITMAP
0E0018
0C20FC
0C3FC0
0C30C0
0E30C0
2D30C6
2DBFFF
2DB060
6C3060
6C3032
CC31B2
CC3E1B
0CF80F
0C6006
0C0000
0C3FFC
0C300C
0C300C
0C3FFC
0C300C
0C300C
0C300C
0C3FFC
0C300C
ENDCHAR
STARTCHAR uni60EE
ENCODING 24814
SWIDTH 1000 0
DWIDTH 24 0
BBX 24 24 0 -2
BITMAP
0E0408
0C430E
0C318C
0C1998
0E1810
2D0020
2DBFFC
2DB18C
6C318C
6C318C
CC3FFC
CC318C
0C318C
0C318C
0C3FFC
0C318C
0C0180
0C0186
0CFFFF
0C0180
0C0180
0C0180
0C0180
0C0180
ENDCHAR
STARTCHAR uni60F2
ENCODING 24818
SWIDTH 1000 0
DWIDTH 24 0
BBX 24 24 0 -2
BITMAP
0E1000
0C1006
0C3FFF
0C7006
0E61C4
2D0180
2DBFFE
2D8180
6C218C
6C3FFE
CC318C
CC318C
0C3FFC
0C318C
0C318C
0C3FFC
0C318C
0C0180
0C0186
0CFFFF
0C0180
0C0180
0C0180
0C0180
ENDCHAR
STARTCHAR uni60F5
ENCODING 24821
SWIDTH 1000 0
DWIDTH 24 0
BBX 24 24 0 -2
BITMAP
0E1998
0C1998
0C1998
0C199A
0E7FFF
2D1998
2D9998
2D9998
6C19F8
6C1800
CC1804
CC1FFE
0C1800
0C01C0
0C0186
0C7FFF
0C03A0
0C07A0
0C0590
0C0D98
0C198F
0C318E
0CC186
0C0180
ENDCHAR
STARTCHAR uni6110
ENCODING 24848
SWIDTH 1000 0
DWIDTH 24 0
BBX 24 24 0 -2
BITMAP
0E0000
0C0006
0CFFFF
0C0180
0F0100
2D8300
2D8206
2C7FFF
6C6666
6C6666
CC6666
CC67E6
0C6666
0C6666
0C6666
0C6666
0C67E6
0C6666
0C6666
0C6666
0C6666
0C7FFE
0C6006
0C6006
ENDCHAR
STARTCHAR uni6112
ENCODING 24850
SWIDTH 1000 0
DWIDTH 24 0
BBX 24 24 0 -2
BITMAP
0E1018
0C1FFC
0C1818
0C1818
0E1FF8
2D1818
2D9818
2D9818
6C1FF8
6C0400
CC0700
CC0E06
0C0FFF
0C1806
0C31C6
0C7186
0DB306
0C36E6
0C3466
0C3006
0C3FEE
0C300C
0C007C
0C0018
ENDCHAR
STARTCHAR uni6113
ENCODING 24851
SWIDTH 1000 0
DWIDTH 24 0
BBX 24 24 0 -2
BITMAP
0E1030
0C1FF8
0C1830
0C1830
0E1FF0
2D1830
2D9830
2D9830
6C1FF0
6C0000
CC0006
CCFFFF
0C1800
0C1006
0C3FFF
0C4446
0C8CC6
0D0886
0C1186
0C210E
0CC20C
0C041C
0C18F8
0C0030
ENDCHAR
STARTCHAR uni6119
ENCODING 24857
SWIDTH 1000 0
DWIDTH 24 0
BBX 24 24 0 -2
BITMAP
001800
101806
1FFFFF
307006
70E0C4
61FFE8
034180
062300
181E00
007780
01C1F0
0F007F
F3FFDE
0300C2
0300C0
03FFC0
0300C0
01D000
118C10
11860C
318646
618043
61FFE3
00FFC0
ENDCHAR
STARTCHAR uni611E
ENCODING 24862
SWIDTH 1000 0
DWIDTH 24 0
BBX 24 24 0 -2
BITMAP
1C0002
18FFFF
180180
184106
1C7FFF
5A6666
5B6666
5B6666
586666
D86666
D86666
D8666E
186004
1801C0
180180
180186
187FFF
180180
180340
180320
180630
180C1C
18180F
186006
ENDCHAR
STARTCHAR uni613A
ENCODING 24890
SWIDTH 1000 0
DWIDTH 24 0
BBX 24 24 0 -2
BITMAP
0E0E70
0C0C60
0C0C66
0C7FFF
0E0C60
2D0C60
2DA00C
2DBFFE
6C300C
6C300C
CC3FFC
CC300C
0C300C
0C300C
0C3FFC
0C318C
0C0180
0C0186
0CFFFF
0C0180
0C0180
0C0180
0C0180
0C0180
ENDCHAR
STARTCHAR uni6141
ENCODING 24897
SWIDTH 1000 0
DWIDTH 24 0
BBX 24 24 0 -2
BITMAP
20000C
3FFFFE
30000C
37FFEC
30380C
30F0CC
3719EC
307F0C
31CC0C
361F0C
307DCC
31CCEC
363C6C
30080C
3FFFFC
30000C
01D000
118C10
11860C
318646
618043
E18063
C1FFE0
00FFC0
ENDCHAR
STARTCHAR uni6146
ENCODING 24902
SWIDTH 1000 0
DWIDTH 24 0
BBX 24 24 0 -2
BITMAP
1C0018
1821FC
183FC0
183208
1C3104
5A6186
5B6186
5B4186
588000
D80600
D84F06
D8787F
186006
186006
186006
186406
187E7E
186006
186006
186006
186006
186006
187FFE
186006
ENDCHAR
STARTCHAR uni6160
ENCODING 24928
SWIDTH 1000 0
DWIDTH 24 0
BBX 24 24 0 -2
BITMAP
1C3880
1830E0
1830C0
19FEC0
1E30C0
5B3086
5930FF
5BFF88
58010E
D8314C
D8324C
D8304C
19FF48
186028
186028
187E38
186610
186610
18C638
18C628
188C2C
198C6F
193C46
1A1986
ENDCHAR
STARTCHAR uni617C
ENCODING 24956
SWIDTH 1000 0
DWIDTH 24 0
BBX 24 24 0 -2
BITMAP
000330
200316
3FFFFF
300300
304310
307B1C
304318
37FDB8
3041B0
3251E0
3358C0
264CE2
244DB2
69C33B
40C61F
80180E
000000
01D000
118C10
11860C
318646
618043
E1FFE3
C0FFC0
ENDCHAR
STARTCHAR uni6192
ENCODING 24978
SWIDTH 1000 0
DWIDTH 24 0
BBX 24 24 0 -2
BITMAP
1C0380
184318
187FFC
186318
1C6318
5A7FF8
5B0300
5B0306
58FFFF
D80000
D87FF8
D86018
186018
187FF8
186018
186018
187FF8
186018
186018
187FF8
181000
183870
18701C
19800C
ENDCHAR
STARTCHAR uni6193
ENCODING 24979
SWIDTH 1000 0
DWIDTH 24 0
BBX 24 24 0 -2
BITMAP
1C0380
18030C
18FFFE
180300
1C7FF8
5A6318
5B6318
5B7FF8
586318
D86318
D87FF8
D80310
180308
18FFFC
187E0E
180106
180C80
184CC8
184CC6
18CC03
18CC13
198C10
198FF8
1807F0
ENDCHAR
STARTCHAR uni6197
ENCODING 24983
SWIDTH 1000 0
DWIDTH 24 0
BBX 24 24 0 -2
BITMAP
070080
0600E0
0630C0
FFF9C6
0601FF
36610C
26430C
56B298
561498
8F0070
0EC020
1E6070
36309C
66330F
860C06
060002
001000
01CC10
11860C
318646
618043
E18063
C1FFE0
00FFC0
ENDCHAR
STARTCHAR uni6198
ENCODING 24984
SWIDTH 1000 0
DWIDTH 24 0
BBX 24 24 0 -2
BITMAP
1C01C0
180180
180186
18FFFF
1C0180
5A0180
5B7FFE
5B0000
580000
D83FFC
D8300C
D8300C
183FFC
180830
180630
180646
18FFFF
180000
180000
183FFC
18300C
18300C
183FFC
18300C
ENDCHAR
STARTCHAR uni61A5
ENCODING 24997
SWIDTH 1000 0
DWIDTH 24 0
BBX 24 24 0 -2
BITMAP
0180C0
092488
1B6DBC
128940
046230
282416
3FFFFF
603806
C03004
C03018
3FFFFC
006018
006018
00C018
018030
0301F0
0C0060
01D000
118C10
11860C
318646
618043
E1FFE3
C0FFC0
ENDCHAR
STARTCHAR uni61A8
ENCODING 25000
SWIDTH 1000 0
DWIDTH 24 0
BBX 24 24 0 -2
BITMAP
003100
7FF9C0
030180
031B06
FFFFFF
18630C
18660C
1FE518
186918
1860B0
1FE0F0
186060
1860E0
1BE0B0
FE611C
78620F
406C06
000000
11CC10
11860C
318646
618043
E1FFE3
C0FFC0
ENDCHAR
STARTCHAR uni61AD
ENCODING 25005
SWIDTH 1000 0
DWIDTH 24 0
BBX 24 24 0 -2
BITMAP
1C0380
180300
180306
18FFFF
1C0684
5A8446
5B6C68
5B2830
58101C
D83FFF
D85836
D89830
181FF0
181830
181830
181FF0
180180
182190
18398C
183186
186187
18C183
190780
180300
ENDCHAR
STARTCHAR uni61D5
ENCODING 25045
SWIDTH 1000 0
DWIDTH 24 0
BBX 24 24 0 -2
BITMAP
200006
3FFFFF
300000
37F86C
361866
37F866
361860
37FBFF
300060
37F860
3618D0
37F8D0
361898
27F98C
66190F
661A06
463000
800000
11CC10
11860C
318646
618043
E1FFE3
C0FFC0
ENDCHAR
STARTCHAR uni61DD
ENCODING 25053
SWIDTH 1000 0
DWIDTH 24 0
BBX 24 24 0 -2
BITMAP
1C0006
18E3FF
18C006
18CC84
1CDE68
5AE030
5AC430
5AC603
58FFFF
D87C33
D88032
D8C034
18FC30
18A130
1921B6
1825BF
1BFFB0
1821B0
1871B0
1859B0
18D970
188338
19061F
1A1806
ENDCHAR
STARTCHAR uni61DF
ENCODING 25055
SWIDTH 1000 0
DWIDTH 24 0
BBX 24 24 0 -2
BITMAP
8CC818
4CCE18
6CCC18
2CD018
FFFC1A
3033FF
186018
184218
FFFD18
030198
030198
7FF998
030018
030018
03F818
FF80F8
780030
41D000
118C10
11860C
318646
618043
E1FFE3
C0FFC0
ENDCHAR
STARTCHAR uni61F5
ENCODING 25077
SWIDTH 1000 0
DWIDTH 24 0
BBX 24 24 0 -2
BITMAP
1C1C70
181866
19FFFF
181860
1C1860
5A0000
5AFFFC
5ACCCC
58CCCC
D8FFFC
D80000
D88006
19FFFF
198006
1B2034
1B3FF8
183030
183FF0
183030
183FF0
183030
183030
183FF0
183030
ENDCHAR
STARTCHAR uni6215
ENCODING 25109
SWIDTH 1000 0
DWIDTH 24 0
BBX 24 24 0 -2
BITMAP
038390
73030C
630306
630306
630300
630300
63030C
6303FE
7F7F00
630300
030308
03030E
03030C
FF0118
330118
3301B0
3300B0
3300E2
2300C2
2301E2
630372
43063F
43181F
836006
ENDCHAR
STARTCHAR uni6223
ENCODING 25123
SWIDTH 1000 0
DWIDTH 24 0
BBX 24 24 0 -2
BITMAP
0621C0
FE7198
0DC186
0D1986
D8B180
58E182
10418F
3061F0
202F80
40B188
BFD98E
06118C
06008C
0630D8
FFF8D8
060050
0E0070
0D0062
0C80E2
18C1B2
18631A
30661F
60180F
806006
ENDCHAR
STARTCHAR uni6229
ENCODING 25129
SWIDTH 1000 0
DWIDTH 24 0
BBX 24 24 0 -2
BITMAP
000060
00186C
7FFC66
102066
183060
102062
10206F
244878
2245E0
FFFE64
62C467
000066
FFFE66
00002C
00002C
3FF828
301838
301812
3FF832
30183A
30186A
3018CF
3FF987
301A02
ENDCHAR
STARTCHAR uni6246
ENCODING 25158
SWIDTH 1000 0
DWIDTH 24 0
BBX 24 24 0 -2
BITMAP
000060
0003F0
107E00
1FC000
180018
1FFFFC
180018
180018
1FFFF8
180018
180E00
180C00
180C0C
1FFFFE
183A00
187208
30E11C
31E130
2360C0
6C60C0
407C60
83F038
01C01F
010006
ENDCHAR
STARTCHAR uni624C
ENCODING 25164
SWIDTH 1000 0
DWIDTH 24 0
BBX 15 24 4 -2
BITMAP
01C0
0180
0180
0180
0180
018C
FFFE
0180
0180
0180
0180
018E
01F0
0F80
FF80
7180
4180
0180
0180
0180
0180
0180
3F80
0700
ENDCHAR
STARTCHAR uni6251
ENCODING 25169
SWIDTH 1000 0
DWIDTH 24 0
BBX 24 24 0 -2
BITMAP
0E0380
0C0300
0C0300
0C0300
0C0300
0CC300
FFE300
0C0300
0C0300
0C03C0
0C0330
0CC31C
0F030E
FC0307
7C0303
4C0300
0C0300
0C0300
0C0300
0C0300
0C0300
0C0300
7C0300
180300
ENDCHAR
STARTCHAR uni6252
ENCODING 25170
SWIDTH 1000 0
DWIDTH 24 0
BBX 24 24 0 -2
BITMAP
0E0080
0C3FC0
0C0080
0C0080
0C1080
0D9C80
FFD880
0C1880
0C18C0
0C1840
0C1840
0D9840
1E1840
FC1060
6C1020
4C3020
0C2030
0C2030
0C6018
0C4018
0C401C
0C800E
7C800F
190004
ENDCHAR
STARTCHAR uni6261
ENCODING 25185
SWIDTH 1000 0
DWIDTH 24 0
BBX 24 24 0 -2
BITMAP
1C01C0
180180
183980
183180
18318C
1A319E
FF31AC
1831CC
18338C
18358C
1B398C
1C718C
39B18C
F8318C
D8318C
1831BC
183198
183180
183180
183002
183002
183003
F83FFF
301FFE
ENDCHAR
STARTCHAR uni6264
ENCODING 25188
SWIDTH 1000 0
DWIDTH 24 0
BBX 24 24 0 -2
BITMAP
0E0000
0C000C
0C7FFE
0C0C60
0C0C60
0D8C60
FFCC60
0C0C60
0C0C60
0C0C60
0C0C60
0D8C60
1E0C60
FC0C60
6C0C60
4C0C60
0C0C60
0C1860
0C1862
0C3062
0C3063
0C607F
7CC03E
190000
ENDCHAR
STARTCHAR uni626D
ENCODING 25197
SWIDTH 1000 0
DWIDTH 24 0
BBX 24 24 0 -2
BITMAP
0E0000
0C0030
0C7FF8
0C0C30
0C0C30
0D8C30
FFCC30
0C0C30
0C0C30
0C8C30
0D0C36
0E7FFF
1C0C30
FC0C30
6C0C30
4C0C30
0C0C30
0C0C30
0C0C30
0C0C30
0C0C30
0C0C36
7CFFFF
180000
ENDCHAR
STARTCHAR uni6273
ENCODING 25203
SWIDTH 1000 0
DWIDTH 24 0
BBX 24 24 0 -2
BITMAP
0E2006
0C3FFF
0C3000
0C3000
0C3000
0DB000
FFF018
0C3FFC
0C3418
0C3418
0C3418
0DB230
1E3230
FC3230
6C3160
4C2160
0C20C0
0C60C0
0C41E0
0C4370
0C8638
0C8C1F
7D180E
186006
ENDCHAR
STARTCHAR uni627B
ENCODING 25211
SWIDTH 1000 0
DWIDTH 24 0
BBX 24 24 0 -2
BITMAP
0E0800
0C0E00
0C0C00
0C0C00
0C0C0C
0D8FFE
FFDB0C
0C1318
0C1310
0C2320
0C2300
0D8300
1E0300
FC0680
6C0680
4C0680
0C0C40
0C0C40
0C1820
0C1830
0C3018
0C601F
7CC00E
190006
ENDCHAR
STARTCHAR uni6299
ENCODING 25241
SWIDTH 1000 0
DWIDTH 24 0
BBX 24 24 0 -2
BITMAP
0E0030
0C00F8
0C07C0
0C3980
0C0180
0D8180
FFC180
0C018C
0C7FFE
0C0180
0C0180
0D8180
1E0180
FC0186
6CFFFF
4C0180
0C0180
0C0180
0C0180
0C0180
0C0180
0C0180
7C0F80
180300
ENDCHAR
STARTCHAR uni62A6
ENCODING 25254
SWIDTH 1000 0
DWIDTH 24 0
BBX 24 24 0 -2
BITMAP
1C0000
180006
18FFFF
180300
180300
1A0300
FF430C
187FFE
18630C
18630C
18630C
1B628C
3C664C
F8646C
D8686C
18706C
18600C
18600C
18600C
18600C
18600C
18600C
F8607C
306018
ENDCHAR
STARTCHAR uni62D5
ENCODING 25301
SWIDTH 1000 0
DWIDTH 24 0
BBX 24 24 0 -2
BITMAP
1C0380
180300
180300
182300
182306
1A7FFF
FF6006
18C004
18C008
181C00
181810
1B181C
3C1838
F81870
D819C0
181E00
181800
181800
181800
181804
181804
181806
F81FFE
300FFC
ENDCHAR
STARTCHAR uni62FD
ENCODING 25341
SWIDTH 1000 0
DWIDTH 24 0
BBX 24 24 0 -2
BITMAP
1C0380
180300
180300
18430C
187FFE
1A630C
FF630C
18630C
187FFC
18630C
18630C
1B630C
3C7FFC
F86300
D80310
18031C
180198
1801B0
1800E2
1801C2
180762
181C3B
F9E01F
300006
ENDCHAR
STARTCHAR uni6303
ENCODING 25347
SWIDTH 1000 0
DWIDTH 24 0
BBX 24 24 0 -2
BITMAP
0E0000
0C0006
0C7FFF
0C0300
0C0300
0D8610
FFC608
0C040C
0C0876
0C7F86
0C3C06
0DA000
1E01C0
FC0180
6C0180
4C018C
0C3FFE
0C0180
0C0180
0C0180
0C0180
0C0186
7CFFFF
180000
ENDCHAR
STARTCHAR uni630D
ENCODING 25357
SWIDTH 1000 0
DWIDTH 24 0
BBX 24 24 0 -2
BITMAP
1C01C0
180180
180180
180186
187FFF
1B0000
FF8800
180E20
180C18
18180C
18104E
1B2876
1C4860
F81460
D834C0
1802C0
180380
180100
180380
1806C0
180C70
18183F
F8601E
318006
ENDCHAR
STARTCHAR uni6310
ENCODING 25360
SWIDTH 1000 0
DWIDTH 24 0
BBX 24 24 0 -2
BITMAP
070000
060000
063206
FFFBFF
0C3306
186306
186306
36C306
318306
03C3FE
06C306
1C0000
E00300
001F80
03F800
001818
3FFFFC
001800
001806
FFFFFF
001800
001800
00F800
003000
ENDCHAR
STARTCHAR uni6332
ENCODING 25394
SWIDTH 1000 0
DWIDTH 24 0
BBX 24 24 0 -2
BITMAP
0801C0
061180
031D90
43198C
301986
183183
192183
024790
0C8338
F800F0
3007C0
387800
1801C0
001FE0
07F800
001818
3FFFFC
001800
001806
FFFFFF
001800
001800
00F800
003000
ENDCHAR
STARTCHAR uni6335
ENCODING 25397
SWIDTH 1000 0
DWIDTH 24 0
BBX 24 24 0 -2
BITMAP
0E000C
0C3FFE
0C0180
0C0180
0C0198
0D9FFC
FFC180
0C0180
0C0186
0C7FFF
0C0000
0D8000
1E0E38
FC0C30
6C0C36
4CFFFF
0C0C30
0C0C30
0C1830
0C1830
0C3030
0C2030
7C4030
198030
ENDCHAR
STARTCHAR uni633B
ENCODING 25403
SWIDTH 1000 0
DWIDTH 24 0
BBX 24 24 0 -2
BITMAP
1C000C
18183E
18FDF0
181830
181030
1A3030
FF31B0
1821B0
1861B2
184DBF
187DB0
1B4DB0
3C0DB0
F80DB0
D80DB0
1829B0
1829B0
1868FF
18D07F
189000
182C00
1827FF
F843FE
318000
ENDCHAR
STARTCHAR uni633C
ENCODING 25404
SWIDTH 1000 0
DWIDTH 24 0
BBX 24 24 0 -2
BITMAP
1C001C
1811FE
181FC0
181800
181908
1B3084
FFB0C6
1820C6
184200
180380
180300
1B0600
3C7FFF
F80618
D80C18
180C18
181830
181C30
183760
1831E0
1801B8
18031C
F80E0E
307006
ENDCHAR
STARTCHAR uni6341
ENCODING 25409
SWIDTH 1000 0
DWIDTH 24 0
BBX 24 24 0 -2
BITMAP
1C01C0
181180
181D80
181980
18198C
1B3FFE
FFB180
182180
184180
180186
18FFFF
180180
1B0180
3C0180
F8200C
D83FFE
18300C
18300C
18300C
18300C
18300C
18300C
F83FFC
30300C
ENDCHAR
STARTCHAR uni6344
ENCODING 25412
SWIDTH 1000 0
DWIDTH 24 0
BBX 24 24 0 -2
BITMAP
1C01D8
18018C
18018C
180180
180186
1B7FFF
FF8180
180180
182188
18118E
1819CC
1819C8
1B19D0
3C01A0
F801A0
D805A0
180990
181998
18319C
18718F
18E18E
182186
F80F80
300300
ENDCHAR
STARTCHAR uni634E
ENCODING 25422
SWIDTH 1000 0
DWIDTH 24 0
BBX 24 24 0 -2
BITMAP
0E00E0
0C08C0
0C0ED8
0C0CCE
0C0CC7
0D98C3
FFD0C0
0C20C6
0C1FFF
0C1806
0C1806
0C1806
0D9FFE
1E1806
FC1806
6C1806
4C1FFE
0C1806
0C1806
0C1806
0C1806
0C1806
7C183E
18180C
ENDCHAR
STARTCHAR uni6359
ENCODING 25433
SWIDTH 1000 0
DWIDTH 24 0
BBX 24 24 0 -2
BITMAP
1C0380
180300
18030C
18FFFE
180300
1A4318
FF7FFC
186318
186318
186318
187FF8
186318
1B6318
3C6318
F87FF8
D86318
180300
180306
19FFFF
180300
180300
180300
F80300
300300
ENDCHAR
STARTCHAR uni636C
ENCODING 25452
SWIDTH 1000 0
DWIDTH 24 0
BBX 24 24 0 -2
BITMAP
1C01C0
180180
184186
187FFF
186000
1B6400
FFE71C
186618
186618
18661A
186DFF
186C18
1B6C18
3C7D18
F86C98
D86CD8
18CCD8
18CC18
188C18
198C18
190C18
1A0C18
F80C78
300C30
ENDCHAR
STARTCHAR uni6384
ENCODING 25476
SWIDTH 1000 0
DWIDTH 24 0
BBX 24 24 0 -2
BITMAP
0E0300
0C0300
0C0680
0C0680
0C0C40
0D8C60
FFD838
0C101F
0C2FEE
0C4006
0C0000
0C200C
0DBFFE
1E324C
FC324C
6C324C
4C324C
0C3FFC
0C324C
0C324C
0C324C
0C324C
7C325C
18300C
ENDCHAR
STARTCHAR uni6394
ENCODING 25492
SWIDTH 1000 0
DWIDTH 24 0
BBX 24 24 0 -2
BITMAP
40600C
7FF7FE
62020C
62020C
7FE118
606118
6060B0
7FE060
6200F8
62019F
7FF30E
600C06
0001C0
001FE0
07F800
001818
3FFFFC
001800
001806
FFFFFF
001800
001800
00F800
003000
ENDCHAR
STARTCHAR uni6399
ENCODING 25497
SWIDTH 1000 0
DWIDTH 24 0
BBX 24 24 0 -2
BITMAP
1C0030
1811F8
181F80
181A10
183108
1B318C
FFA18C
184000
183FF8
180318
180318
18031A
1B7FFF
3C0318
F80318
D80318
183FF8
180318
180300
180300
180300
180300
F81F00
300600
ENDCHAR
STARTCHAR uni63BD
ENCODING 25533
SWIDTH 1000 0
DWIDTH 24 0
BBX 24 24 0 -2
BITMAP
1C0010
18101C
180C18
180630
180620
1A0046
FF7FFF
180660
180660
187667
186666
186666
1B6666
3C6666
F86666
D87E7E
186666
180660
180660
180660
180660
180666
F8FFFF
300000
ENDCHAR
STARTCHAR uni63D4
ENCODING 25556
SWIDTH 1000 0
DWIDTH 24 0
BBX 24 24 0 -2
BITMAP
1C1000
181C00
181800
183006
183FFF
1A6666
FF4446
1888C6
193C86
18178E
1821CC
1842CC
1B041C
3C0878
F81030
D80100
181C80
1898C4
1898C2
199813
199813
1B1818
FB1FF8
300FF0
ENDCHAR
STARTCHAR uni63D5
ENCODING 25557
SWIDTH 1000 0
DWIDTH 24 0
BBX 24 24 0 -2
BITMAP
1C1C70
181860
181864
18FFFE
181860
1B1860
FF9FE0
181860
181860
181860
181FE0
181860
1B1860
3C1866
F9FFFF
D86660
186660
186462
186C7E
18683C
187000
186006
F87FFF
306000
ENDCHAR
STARTCHAR uni63DC
ENCODING 25564
SWIDTH 1000 0
DWIDTH 24 0
BBX 24 24 0 -2
BITMAP
1C0300
180380
180640
180C60
181830
1A301C
FF6FEF
18C006
193FF8
183018
183018
183FF8
1B3018
3C0000
F80C30
D80C32
18FFFF
180C30
180C30
181830
181830
183030
F86030
318030
ENDCHAR
STARTCHAR uni63E0
ENCODING 25568
SWIDTH 1000 0
DWIDTH 24 0
BBX 24 24 0 -2
BITMAP
1C8006
18FFFF
18C000
18C7F8
18C618
1AC618
FFC7F8
18C618
18C618
18C7F8
18C180
18C186
1BDFFF
3CC318
F8C318
D8C6B0
18C660
18C0D8
18C18C
18CE0C
18C000
18C006
F8FFFF
30C000
ENDCHAR
STARTCHAR uni63EB
ENCODING 25579
SWIDTH 1000 0
DWIDTH 24 0
BBX 24 24 0 -2
BITMAP
00C0E0
07E0C4
7E04C7
0664C6
FFF4C4
060DA8
0F0DA0
0EC110
1E6318
36620F
C6040E
061806
0001C0
001FE0
07F800
001818
3FFFFC
001800
001806
FFFFFF
001800
001800
00F800
003000
ENDCHAR
STARTCHAR uni63EC
ENCODING 25580
SWIDTH 1000 0
DWIDTH 24 0
BBX 24 24 0 -2
BITMAP
1C0380
182300
182306
187FFF
186006
1ACC64
FFCC6A
181863
18187F
18303E
184380
180360
1B0330
3C0316
F9FFFF
D80300
180300
180680
180640
180C60
181830
18301C
F8C00F
330006
ENDCHAR
STARTCHAR uni63F2
ENCODING 25586
SWIDTH 1000 0
DWIDTH 24 0
BBX 24 24 0 -2
BITMAP
0E1998
0C1998
0C1998
0C199A
0C7FFF
0D1998
FF9998
0C1998
0C19F8
0C1800
0C1802
0C1FFF
0D9800
1E01C0
FC0186
6C7FFF
4C03A0
0C07A0
0C0590
0C0D98
0C198F
0C318E
7C4186
180180
ENDCHAR
STARTCHAR uni63F7
ENCODING 25591
SWIDTH 1000 0
DWIDTH 24 0
BBX 24 24 0 -2
BITMAP
1C0018
1801FC
183F80
180180
180186
1A7FFF
FF0180
180180
184D86
1879BF
186186
186186
1B6186
3C7DBE
F86186
D86186
186186
187FFE
186186
180180
180180
180180
F80180
300180
ENDCHAR
STARTCHAR uni6409
ENCODING 25609
SWIDTH 1000 0
DWIDTH 24 0
BBX 24 24 0 -2
BITMAP
1C0200
182380
182306
183FFF
186606
1AE604
FFCC48
180CE0
1818C0
181184
183FFE
1830C0
1B70C0
3C70C4
F8BFFE
D830C0
1830C0
1830C4
183FFE
1830C0
1830C0
1830C6
F83FFF
303000
ENDCHAR
STARTCHAR uni641E
ENCODING 25630
SWIDTH 1000 0
DWIDTH 24 0
BBX 24 24 0 -2
BITMAP
0E01C0
0C0180
0C0186
0C7FFF
0C0000
0D8000
FFCFF8
0C0C18
0C0C18
0C0FF8
0C0000
0C2006
0DBFFF
1E3006
FC3006
6C37F6
4C3636
0C3636
0C3636
0C37F6
0C3006
0C3006
7C301E
18300C
ENDCHAR
STARTCHAR uni6425
ENCODING 25637
SWIDTH 1000 0
DWIDTH 24 0
BBX 24 24 0 -2
BITMAP
1C0080
1880E0
1862CC
1833FE
18330C
1B330C
FF830C
18030C
1863FC
183300
183300
183306
1B03FF
3C3306
F8FB06
D83306
183306
1833FE
183306
183000
186800
19C7FF
F8C1FE
308000
ENDCHAR
STARTCHAR uni6429
ENCODING 25641
SWIDTH 1000 0
DWIDTH 24 0
BBX 24 24 0 -2
BITMAP
1C100E
181C0C
18180C
181F4C
18337F
1A234C
FF764C
189E4C
180DFF
180C0C
18100C
18200C
1B41CC
3C0180
F80186
D87FFF
1807C0
1805A0
180DB0
180998
18119F
18218E
F8C186
300180
ENDCHAR
STARTCHAR uni642F
ENCODING 25647
SWIDTH 1000 0
DWIDTH 24 0
BBX 24 24 0 -2
BITMAP
0E0018
0C08FC
0C0FC0
0C0D08
0C0C84
0D98C6
FFD8C3
0C10C3
0C2000
0C0100
0C2786
0C3C3F
0DB006
1E3006
FC3006
6C3006
4C3E3E
0C3006
0C3006
0C3006
0C3006
0C3006
7C3FFE
183006
ENDCHAR
STARTCHAR uni645A
ENCODING 25690
SWIDTH 1000 0
DWIDTH 24 0
BBX 24 24 0 -2
BITMAP
0E01C8
0C218E
0C198C
0C0D98
0C0DA0
0D2186
FFBFFF
0C6006
0C6004
0C1FF8
0C1818
0C1818
0D9818
1E1FF8
FC1998
6C0180
4C018C
0C3FFE
0C0180
0C0180
0C0180
0C0186
7CFFFF
180000
ENDCHAR
STARTCHAR uni645B
ENCODING 25691
SWIDTH 1000 0
DWIDTH 24 0
BBX 24 24 0 -2
BITMAP
1C01C0
180180
180186
18FFFF
180000
1B304C
FFB6EC
18318C
18326C
18342C
18300C
183FFC
1B0180
3C4106
F87FFF
D86106
186246
186226
186FF6
186736
186406
186006
F8603E
30600C
ENDCHAR
STARTCHAR uni645D
ENCODING 25693
SWIDTH 1000 0
DWIDTH 24 0
BBX 24 24 0 -2
BITMAP
1C01C0
180180
188186
18FFFF
18C000
1AC440
FFC446
18FFFF
18C446
18C446
18C446
18FFFE
1BC000
3CCE70
F8CC62
D8CC67
188F6C
188C70
198C60
190C62
190F62
1AFC63
F8707F
30403E
ENDCHAR
STARTCHAR uni6473
ENCODING 25715
SWIDTH 1000 0
DWIDTH 24 0
BBX 24 24 0 -2
BITMAP
1C400C
187FFE
186000
186000
1863F0
1B6210
FFE210
186210
186210
1863F0
186000
186000
1B6F3C
3C6924
F86924
D86924
186924
186924
186F3C
186000
186000
186006
F87FFF
306000
ENDCHAR
STARTCHAR uni647D
ENCODING 25725
SWIDTH 1000 0
DWIDTH 24 0
BBX 24 24 0 -2
BITMAP
1C0006
18FFFF
180240
180240
18224C
1B3FFE
FFB24C
18324C
18324C
18324C
183FFC
18300C
1B0000
3C3FFC
F80000
D80006
18FFFF
180180
182190
183988
18318C
186186
F88F86
300300
ENDCHAR
STARTCHAR uni6487
ENCODING 25735
SWIDTH 1000 0
DWIDTH 24 0
BBX 24 24 0 -2
BITMAP
303040
202070
202060
212860
21A660
21A362
FB237F
222046
2620C6
2BFE86
2222C6
22234C
3AAA4C
72AA2C
E2AA28
A2AA38
22AA10
22AA38
22AA28
22222C
222266
222247
E22E82
620502
ENDCHAR
STARTCHAR uni6491
ENCODING 25745
SWIDTH 1000 0
DWIDTH 24 0
BBX 24 24 0 -2
BITMAP
1C21C4
18198E
180D9C
180D90
1841A2
1A7FFF
FFC006
18C004
181FF8
181818
181818
181FF8
1B0018
3C01FC
F83F80
D8018C
187FFE
180180
180186
18FFFF
180180
180180
F80F80
300300
ENDCHAR
STARTCHAR uni649D
ENCODING 25757
SWIDTH 1000 0
DWIDTH 24 0
BBX 24 24 0 -2
BITMAP
1C0060
1843F0
187F80
186410
18430C
1AC104
FF8020
197FF0
186060
186060
186068
187FFC
1B6018
3C6018
F8601A
D87FFF
18C006
18C046
18C136
189496
19928E
19320C
FA30FC
300038
ENDCHAR
STARTCHAR uni649F
ENCODING 25759
SWIDTH 1000 0
DWIDTH 24 0
BBX 24 24 0 -2
BITMAP
1C0070
1803F8
187F00
180600
180606
1AFFFF
FF0C40
180820
181FF8
182CDF
18CCC6
180FC0
1B0000
3C800C
F8FFFE
D8C00C
18C00C
18CFCC
18CCCC
18CCCC
18CFCC
18C00C
F8C03C
30C018
ENDCHAR
STARTCHAR uni64CB
ENCODING 25803
SWIDTH 1000 0
DWIDTH 24 0
BBX 24 24 0 -2
BITMAP
1C21C4
18198E
180D9C
180D90
1841A2
1A7FFF
FFC006
18D004
181FF8
181818
181818
181FF8
1B1818
3C4006
F87FFF
D86186
186186
186186
187FFE
186186
186186
186186
F87FFE
306006
ENDCHAR
STARTCHAR uni64CC
ENCODING 25804
SWIDTH 1000 0
DWIDTH 24 0
BBX 24 24 0 -2
BITMAP
1C1020
181C38
181832
183F7F
182868
1A4848
FF4484
188584
180180
18FFFF
180180
181998
1B1998
3C1998
F835B4
D827A6
184746
180340
180220
180630
180418
18081F
F8100E
306006
ENDCHAR
STARTCHAR uni64D5
ENCODING 25813
SWIDTH 1000 0
DWIDTH 24 0
BBX 24 24 0 -2
BITMAP
1C2080
1838E0
1830C0
186108
187FFC
18E300
FEE300
197FF8
1A6300
186300
187FF8
186300
1E6304
387FFE
F80000
D91886
19FCFF
1998C6
1998C6
199FC6
198006
198006
F9803E
31800C
ENDCHAR
STARTCHAR uni64D7
ENCODING 25815
SWIDTH 1000 0
DWIDTH 24 0
BBX 24 24 0 -2
BITMAP
1C0038
188C30
18FE30
18CC32
18CFFF
18CC00
FECD08
18CC8E
18FCCC
18CCC8
18C012
1883FF
1E8030
38FC30
F8CC30
D94C32
194FFF
194C30
1A4C30
1A4C30
187C30
184C30
F80030
300030
ENDCHAR
STARTCHAR uni64E4
ENCODING 25828
SWIDTH 1000 0
DWIDTH 24 0
BBX 24 24 0 -2
BITMAP
1C0200
181330
181FF8
181830
181FF0
1B1830
FF9FF0
181830
181FF0
180000
187FFC
18610C
1B610C
3C7FFC
F8610C
D8610C
187FFC
180000
19FFFF
181830
181830
183030
F86030
318030
ENDCHAR
STARTCHAR uni64E5
ENCODING 25829
SWIDTH 1000 0
DWIDTH 24 0
BBX 24 24 0 -2
BITMAP
406400
7FF606
6207FF
620400
7FE808
6073FC
606000
7FE7FE
620492
620492
7FF7FE
600000
0001C0
001FE0
07F800
001818
3FFFFC
001800
001806
FFFFFF
001800
001800
00F800
003000
ENDCHAR
STARTCHAR uni64FF
ENCODING 25855
SWIDTH 1000 0
DWIDTH 24 0
BBX 24 24 0 -2
BITMAP
1C00C0
1800C0
1980C6
18DFFF
18C218
1A0310
FF1126
181FFF
1998C6
18D8C6
18DBF6
1B18C6
3C18C6
F8DBF6
DBDB36
18DB36
18DBF6
18D806
18D81E
18D804
18C000
1BBFFF
F91FFE
300000
ENDCHAR
STARTCHAR uni6504
ENCODING 25860
SWIDTH 1000 0
DWIDTH 24 0
BBX 24 24 0 -2
BITMAP
1C0700
180630
1807F8
190602
19FFFF
198C06
FFBFC4
198C10
198FF8
1987F0
198000
1B9FF8
3D9998
F99998
D99FF8
199998
199998
199FF8
190000
190D96
192CD3
1A6C1B
FACFF8
3007F0
ENDCHAR
STARTCHAR uni650F
ENCODING 25871
SWIDTH 1000 0
DWIDTH 24 0
BBX 24 24 0 -2
BITMAP
3838E0
3030C6
3030FF
33FEC0
3108C0
348CFE
FE8806
301006
33FE86
3000FE
3000C0
37FCC4
798CFE
F18CC0
B1FCC4
318CFE
318CC0
31FCC4
318CFE
318CC0
318CC2
318CC3
F1BCFF
61987E
ENDCHAR
STARTCHAR uni6514
ENCODING 25876
SWIDTH 1000 0
DWIDTH 24 0
BBX 24 24 0 -2
BITMAP
1C86C6
18FEFF
18C6C6
18C6C6
18FEFE
1AC6C6
FFC6C6
18FEFE
18C6C6
18C006
18C126
1BDFF6
3CC106
F8DFF6
D8D556
18D396
18DFF6
18C306
18C786
18C566
18C926
18D106
F8C13E
30C00C
ENDCHAR
STARTCHAR uni6516
ENCODING 25878
SWIDTH 1000 0
DWIDTH 24 0
BBX 24 24 0 -2
BITMAP
0E2244
0C3F7E
0C2244
0C2244
0C3E7C
0D2244
FFA244
0C3E7C
0C2244
0C2244
0C3E7C
0D9428
1E3264
FC62C4
6C0000
4C0606
0CFFFF
0C0C30
0C1830
0C3F60
0C31C0
0C0378
7C0C1E
187006
ENDCHAR
STARTCHAR uni651E
ENCODING 25886
SWIDTH 1000 0
DWIDTH 24 0
BBX 24 24 0 -2
BITMAP
1C8006
18FFFF
18C446
18C446
18C446
1AFFFE
FF1040
181868
18104C
18A8C8
184C92
1B49FF
3C1290
F82490
D8FEFE
187290
181090
185090
1874FE
185290
18D290
189092
F910FF
301080
ENDCHAR
STARTCHAR uni6532
ENCODING 25906
SWIDTH 1000 0
DWIDTH 24 0
BBX 24 24 0 -2
BITMAP
070070
060060
063060
FFF860
060066
0D0FFF
08C060
106060
606060
000066
FFF7FF
006206
006206
46610C
7F610C
666098
666098
666070
7E6060
6660F0
0061B8
00631F
03E60E
00C806
ENDCHAR
STARTCHAR uni6544
ENCODING 25924
SWIDTH 1000 0
DWIDTH 24 0
BBX 24 24 0 -2
BITMAP
00C200
7FE380
018300
010300
120600
0C0606
0607FF
064C18
FFE818
06D418
069430
0E2230
0E0230
0E0360
1E0160
1601C0
360080
2601C0
460360
860630
060C3C
06181F
3E200E
0C4006
ENDCHAR
STARTCHAR uni6554
ENCODING 25940
SWIDTH 1000 0
DWIDTH 24 0
BBX 24 24 0 -2
BITMAP
00C100
7FE1C0
180180
180180
180300
198306
7FE3FF
31860C
31860C
31850C
31891C
31A118
FFF198
0000B8
0000B0
40C0F0
7FE060
60C060
60C0F0
60C198
60C31C
60C60F
7FC806
60D002
ENDCHAR
STARTCHAR uni656B
ENCODING 25963
SWIDTH 1000 0
DWIDTH 24 0
BBX 24 24 0 -2
BITMAP
080100
0E01C0
4C6180
7FF180
606300
606306
7FE3FF
60660C
60660C
7FE50C
66691C
060118
063198
FFF8B8
0C00B0
0C60F0
0FF060
186060
1860F0
106198
30E31C
20C60F
47C806
819002
ENDCHAR
STARTCHAR uni657A
ENCODING 25978
SWIDTH 1000 0
DWIDTH 24 0
BBX 23 24 1 -2
BITMAP
8060E0
FFF0C0
C000C0
C000C0
CFC0CC
C840FE
C840C0
C840C0
CFC0C0
C000CC
C00FFE
C0020C
DEF20C
D29218
D29118
D29130
D290B0
DEF0E0
C00040
C000E0
C031B0
FFFB1E
C0060C
001804
ENDCHAR
STARTCHAR uni6581
ENCODING 25985
SWIDTH 1000 0
DWIDTH 24 0
BBX 24 24 0 -2
BITMAP
402100
7FF1C0
492180
492180
492300
7FE306
0603FF
06460C
7FE60C
06050C
06291C
FFF118
20C198
1080B8
1920B0
FFF0F0
060060
060060
0640F0
7FE198
06031C
06060F
061806
066002
ENDCHAR
STARTCHAR uni6584
ENCODING 25988
SWIDTH 1000 0
DWIDTH 24 0
BBX 24 24 0 -2
BITMAP
070380
064306
7FE3FF
060618
FFF518
0E08B0
1F8060
36E0B8
C6631F
060C06
200000
3FFFFE
300600
30060C
37FFFE
30C630
308620
31C670
316F58
221F88
2036E0
40C678
43061F
8C0606
ENDCHAR
STARTCHAR uni6585
ENCODING 25989
SWIDTH 1000 0
DWIDTH 24 0
BBX 24 24 0 -2
BITMAP
080070
2C2060
307060
252060
222066
35607F
202060
252060
326060
252066
2027FF
7FF906
401906
C0D10C
DFE08C
00C098
018058
033870
03C020
7F0070
7300D8
03018F
0F0306
060C02
ENDCHAR
STARTCHAR uni658A
ENCODING 25994
SWIDTH 1000 0
DWIDTH 24 0
BBX 24 24 0 -2
BITMAP
001C00
001800
001806
FFFFFF
0101C0
028380
066700
003C00
00F7C0
0781FF
F8001E
0FFFF8
0180C0
0180C0
01FFC0
0180C0
0180C0
01FFC0
0180C0
0180FC
3FFFC0
1FC0C0
1000C0
0000C0
ENDCHAR
STARTCHAR uni65B2
ENCODING 26034
SWIDTH 1000 0
DWIDTH 24 0
BBX 24 24 0 -2
BITMAP
080000
5C9806
70FD1F
6699F0
649980
649980
7CF980
649980
048186
4499FF
7CFD98
649998
601998
601998
649998
7EF998
649B18
048318
049B18
04E218
078618
FE0418
780818
600018
ENDCHAR
STARTCHAR uni65B5
ENCODING 26037
SWIDTH 1000 0
DWIDTH 24 0
BBX 24 24 0 -2
BITMAP
040000
4E0C06
79FD1F
60CDF0
68CD80
66CD80
6A8D80
F0BD80
C11986
0001FF
7FF998
0CC198
4CD998
7CFD98
649998
601998
601918
649918
7EF918
6CDA18
0CC218
0CD418
7FF818
000018
ENDCHAR
STARTCHAR uni65B8
ENCODING 26040
SWIDTH 1000 0
DWIDTH 24 0
BBX 24 24 0 -2
BITMAP
600C00
7FFE06
600D1F
600DF0
7FFD80
600180
6EB980
608180
6EB986
6001FF
6FF998
6D5998
6D5998
6FF998
620198
67FD98
6D0D98
77ED98
652D18
47ED18
414918
4FDA18
867218
001418
ENDCHAR
STARTCHAR uni65BF
ENCODING 26047
SWIDTH 1000 0
DWIDTH 24 0
BBX 24 24 0 -2
BITMAP
0E0400
0C0700
0C0600
0C0600
0CCC06
FFEFFF
180800
181000
180018
198FFC
1FC018
198030
198060
1980C0
1980C6
19BFFF
1980C0
3180C0
3180C0
3180C0
2300C0
6300C0
4F07C0
860180
ENDCHAR
STARTCHAR uni65C2
ENCODING 26050
SWIDTH 1000 0
DWIDTH 24 0
BBX 24 24 0 -2
BITMAP
0E0400
0C0700
0C0600
0C0600
0CCC06
FFEFFF
180800
181018
18007C
1989E0
1FCF00
198C00
198C0C
198FFE
198C60
198C60
198C60
318C60
318860
318860
231060
631060
4F2060
864060
ENDCHAR
STARTCHAR uni65C9
ENCODING 26057
SWIDTH 1000 0
DWIDTH 24 0
BBX 22 24 1 -2
BITMAP
003980
0030C0
003058
FFFFFC
003000
1FFFE0
183060
1FFFE0
183060
1FFFE0
183060
183060
001800
001818
FFFFFC
003000
006060
007FF0
00C060
018060
0300E0
0600C0
1807C0
600180
ENDCHAR
STARTCHAR uni65D4
ENCODING 26068
SWIDTH 1000 0
DWIDTH 24 0
BBX 24 24 0 -2
BITMAP
1C0038
180C30
187C32
180DFF
198832
FFD832
301BFF
301032
301032
3331FE
3FBC32
330C30
330C32
330DFF
330C30
332C30
332832
237BFF
635830
635C30
461630
463380
9E21FF
0C407E
ENDCHAR
STARTCHAR uni65F2
ENCODING 26098
SWIDTH 1000 0
DWIDTH 24 0
BBX 24 24 0 -2
BITMAP
080030
0FFFF8
0C0030
0C0030
0C0030
0FFFF0
0C0030
0C0030
0C0030
0FFFF0
0C0030
001C00
001800
001800
001806
FFFFFF
003400
006200
006300
00C180
0180E0
07007F
1C001E
E00006
ENDCHAR
STARTCHAR uni65F9
ENCODING 26105
SWIDTH 1000 0
DWIDTH 24 0
BBX 24 24 0 -2
BITMAP
001C00
1C181C
181818
181818
181818
1FFFF8
181818
001800
001806
FFFFFF
000000
000000
040060
07FFF0
060060
060060
060060
07FFE0
060060
060060
060060
060060
07FFE0
060060
ENDCHAR
STARTCHAR uni65FC
ENCODING 26108
SWIDTH 1000 0
DWIDTH 24 0
BBX 23 24 1 -2
BITMAP
000380
000300
860300
FF0300
C6030C
C6FFFE
C60030
C61030
C61030
C61020
FE2860
C66840
C628C0
C60480
C60480
C60300
C60200
FE0300
C60580
C008C0
001070
00203E
00C01C
03000C
ENDCHAR
STARTCHAR uni6604
ENCODING 26116
SWIDTH 1000 0
DWIDTH 24 0
BBX 23 23 1 -2
BITMAP
00400C
867FFE
FF6000
C66000
C66000
C66000
C66030
C67FF8
C66830
FE6830
C66C70
C66460
C66460
C662C0
C642C0
C64180
FEC180
C683C0
C086E0
010C70
01183E
02301C
00C00C
ENDCHAR
STARTCHAR uni6608
ENCODING 26120
SWIDTH 1000 0
DWIDTH 24 0
BBX 22 23 1 -2
BITMAP
000030
8643F8
FF7E00
C66000
C66000
C66018
C67FFC
C66018
C66018
FE6018
C66018
C66018
C67FF8
C66018
C66018
C66000
FE6000
C6C000
C0C000
008000
018000
010000
020000
ENDCHAR
STARTCHAR uni6621
ENCODING 26145
SWIDTH 1000 0
DWIDTH 24 0
BBX 22 24 1 -2
BITMAP
000700
000600
860600
FF0600
C60618
C6FFFC
C60400
C60700
C60600
C60400
FE4840
C63070
C618E0
C60CC0
C60DC0
C60180
C60300
FE0600
C60420
C00810
001018
01FFEC
00FC0C
00800C
ENDCHAR
STARTCHAR uni662A
ENCODING 26154
SWIDTH 1000 0
DWIDTH 24 0
BBX 24 24 0 -2
BITMAP
080030
0FFFF8
0C0030
0C0030
0FFFF0
0C0030
0C0030
0FFFF0
0C6030
00F100
01C0C0
030060
3FFFF0
1FE038
10C198
00C180
00C186
FFFFFF
018180
018180
030180
060180
0C0180
300180
ENDCHAR
STARTCHAR uni6645
ENCODING 26181
SWIDTH 1000 0
DWIDTH 24 0
BBX 22 22 1 -1
BITMAP
000030
8DFFF8
FE0000
CC0000
CC0000
CC8060
CCFFF0
CCC060
CCC060
FCC060
CCC060
CCFFE0
CCC060
CCC060
CCC060
CCC060
FCFFE0
CCC060
C00000
000000
000018
07FFFC
ENDCHAR
STARTCHAR uni664E
ENCODING 26190
SWIDTH 1000 0
DWIDTH 24 0
BBX 23 24 1 -2
BITMAP
001CE0
0018C0
8618C0
FF18C0
C618C0
C618D8
C6FFFC
C618C0
C618C0
C618C0
FE18C0
C618C0
C618C0
C618CC
C7FFFE
C60000
C60000
FE1080
C61C60
C03830
003018
00601C
00C00C
03000C
ENDCHAR
STARTCHAR uni6651
ENCODING 26193
SWIDTH 1000 0
DWIDTH 24 0
BBX 21 24 2 -2
BITMAP
2000C0
3FFFE0
3000C0
3000C0
3FFFC0
3000C0
3000C0
3FFFC0
31C0C0
018000
810030
FFFFF8
C00030
C00030
C7FE30
C60630
C60630
C60630
C7FE30
C60630
C00030
C00030
C001F0
C00060
ENDCHAR
STARTCHAR uni6657
ENCODING 26199
SWIDTH 1000 0
DWIDTH 24 0
BBX 23 24 1 -2
BITMAP
000600
000600
860D00
FF0D80
C618C0
C63060
C66038
C680DE
C73FEC
C60000
FE0060
C67FF0
C60060
C600C0
C600C0
C64198
C67FFC
FE6018
C66018
C06018
006018
006018
007FF8
006018
ENDCHAR
STARTCHAR uni665B
ENCODING 26203
SWIDTH 1000 0
DWIDTH 24 0
BBX 23 24 1 -2
BITMAP
004018
007FFC
866018
FF6018
C66018
C67FF8
C66018
C66018
C66018
FE7FF8
C66018
C66018
C66018
C66018
C67FF8
C668D8
FE0EC0
C60CC0
C01CC4
0018C4
0030C4
0060C6
0180FE
06007C
ENDCHAR
STARTCHAR uni6663
ENCODING 26211
SWIDTH 1000 0
DWIDTH 24 0
BBX 23 24 1 -2
BITMAP
007018
00603C
8C6270
FE63C0
CC6300
CC6B00
CDFF00
CC630C
CC63FE
FC6330
CC6330
CC6330
CC6B30
CC7330
CCE330
CDE330
FC6330
CC6230
C06230
006630
006430
006430
01E830
00C830
ENDCHAR
STARTCHAR uni666A
ENCODING 26218
SWIDTH 1000 0
DWIDTH 24 0
BBX 23 24 1 -2
BITMAP
000D80
000900
8C0900
FE8930
CCFFF8
CCC930
CCC930
CCC930
CCC930
CCC930
FCFFF0
CCC930
CCC930
CCC930
CCC930
CCC934
CFFFFE
FC0000
CC2000
C03880
003060
006030
00C038
010018
ENDCHAR
STARTCHAR uni666B
ENCODING 26219
SWIDTH 1000 0
DWIDTH 24 0
BBX 23 24 1 -2
BITMAP
000380
000300
860318
FF03FC
C60300
C60300
C64318
C67FFC
C66018
C66018
FE7FF8
C66018
C66018
C66018
C67FF8
C66318
C60300
C6030C
FEFFFE
C60300
C00300
000300
000300
000300
ENDCHAR
STARTCHAR uni666C
ENCODING 26220
SWIDTH 1000 0
DWIDTH 24 0
BBX 23 24 1 -2
BITMAP
000380
000300
860300
FF0318
C6FFFC
C60000
C62040
C63870
C63060
FE3860
C66CD8
C6448C
C6810C
C60000
C60300
C6030C
FEFFFE
C60300
C00300
000300
000300
000300
000300
000300
ENDCHAR
STARTCHAR uni666D
ENCODING 26221
SWIDTH 1000 0
DWIDTH 24 0
BBX 23 23 1 -2
BITMAP
00800C
8CFFFE
FEC00C
CCC38C
CCC30C
CCC30C
CCDFEC
CCC30C
CCC30C
FCDFEC
CCC30C
CCC30C
CCC00C
CCCFCC
CCCCCC
CCCCCC
FD8CCC
CD8CCC
C10FCC
01000C
02000C
02007C
040018
ENDCHAR
STARTCHAR uni667B
ENCODING 26235
SWIDTH 1000 0
DWIDTH 24 0
BBX 23 24 1 -2
BITMAP
000800
000E00
8C0C00
FE0C0C
CDFFFE
CC1880
CC3040
CC3060
CC6638
CCC61E
FDFFFC
CEC630
CCC630
CCC630
CCFFF0
CCC630
CCC630
CCC630
FCFFF0
CCC604
C00604
000606
0007FE
0003FC
ENDCHAR
STARTCHAR uni6680
ENCODING 26240
SWIDTH 1000 0
DWIDTH 24 0
BBX 23 24 1 -2
BITMAP
0041C0
006180
8CC180
FEC180
CC8198
CD9FFC
CD21C0
CE3180
CC6180
CC6180
FCC180
CCC180
CDC198
CDDFFC
CEC180
CCC180
CCC180
CCC180
FCC180
CCC180
C0C180
00C18C
00FFFE
00C000
ENDCHAR
STARTCHAR uni6690
ENCODING 26256
SWIDTH 1000 0
DWIDTH 24 0
BBX 23 24 1 -2
BITMAP
000E00
000C00
8C0C60
FEFFF0
CC1860
CC1864
CDFFFE
CC0000
CC4030
CC7FF8
FC6030
CC6030
CC7FF0
CC6000
CC01C0
CC4190
CC7FF8
CC6180
FC6180
CC618C
C3FFFE
000180
000180
000180
ENDCHAR
STARTCHAR uni6692
ENCODING 26258
SWIDTH 1000 0
DWIDTH 24 0
BBX 23 23 1 -1
BITMAP
004018
007FFC
8C6018
FE6018
CC7FF8
CC6018
CC6018
CC6018
CC7FF8
CC0000
FC2380
CC3B00
CC3318
CC7FFC
CC6300
CCC300
CC8308
CD7FFC
FC0300
CC0300
C00300
00030C
01FFFE
ENDCHAR
STARTCHAR uni6699
ENCODING 26265
SWIDTH 1000 0
DWIDTH 24 0
BBX 23 24 1 -2
BITMAP
000700
000600
8C0618
FEFFFC
CC0600
CC0600
CC0620
CCFFF0
CC0D00
CC0D00
FC188C
CFFFFE
CC3040
CC6060
CC4030
CCBFFE
CD30DC
CE30CC
FC3FC0
CC30C0
C030C0
0030C0
003FC0
0030C0
ENDCHAR
STARTCHAR uni66AD
ENCODING 26285
SWIDTH 1000 0
DWIDTH 24 0
BBX 23 24 1 -2
BITMAP
000400
000700
8C4618
FE7FFC
CC6018
CC6018
CC7FF8
CC6018
CC6018
CC7FF8
FC6318
CC0300
CCFB7C
CC0300
CC0300
CCFB7C
CC0300
CC030C
FDFFFE
CC0300
C00300
000300
000300
000300
ENDCHAR
STARTCHAR uni66B1
ENCODING 26289
SWIDTH 1000 0
DWIDTH 24 0
BBX 23 24 1 -2
BITMAP
01000C
01FFFE
8D8000
FD8C60
CD8C6C
CDFFFE
CD8C60
CD8C60
CD8300
CD830C
FDFFFE
CD8600
CD8C00
CD8818
CD9FFC
CDAC18
CDCC18
CD8C18
FD8FF8
CD8C18
C18000
01800C
01FFFE
018000
ENDCHAR
STARTCHAR uni66B5
ENCODING 26293
SWIDTH 1000 0
DWIDTH 24 0
BBX 23 24 1 -2
BITMAP
0038E0
0030C0
8C30CC
FDFFFE
CC30C0
CC30C0
CC3FC0
CC8630
CCFFF8
CCC630
FCC630
CCFFF0
CCC630
CC0600
CCFFF8
CC0600
CC0604
CDFFFE
FC0D00
CC1880
C030C0
006070
01803E
06000C
ENDCHAR
STARTCHAR uni66BF
ENCODING 26303
SWIDTH 1000 0
DWIDTH 24 0
BBX 23 24 1 -2
BITMAP
000380
000300
8C030C
FDFFFE
CC0300
CC0318
CCFFFC
CC0000
CC0000
CC7FF8
FC6018
CC6018
CC7FF8
CC1060
CC0C60
CC0C8C
CDFFFE
CC0000
FC4018
CC7FFC
C06018
006018
007FF8
006018
ENDCHAR
STARTCHAR uni66EC
ENCODING 26348
SWIDTH 1000 0
DWIDTH 24 0
BBX 23 24 1 -2
BITMAP
00180C
01FCFE
8C0000
FEF87C
CC8844
CCA854
CCAB54
CC0300
CDFFFE
CD8CC0
FD8CC0
CDFFFC
CD8CCC
CD8CCC
CDFFFC
CD8000
CDB8C0
CDB0C8
FDBEDC
CD30F0
C130C4
02FEC6
0278FE
04407C
ENDCHAR
STARTCHAR uni6701
ENCODING 26369
SWIDTH 1000 0
DWIDTH 24 0
BBX 24 24 0 -2
BITMAP
038070
030060
234464
3FE7FE
330660
330660
330662
FFEFFF
0600C0
0790F0
0DA1B2
19C333
318C1E
C00000
07FFE0
060060
060060
060060
07FFE0
060060
060060
060060
07FFE0
060060
ENDCHAR
STARTCHAR uni6705
ENCODING 26373
SWIDTH 1000 0
DWIDTH 24 0
BBX 24 24 0 -2
BITMAP
0C1018
0C1FFC
0C1818
0C1818
0D9FF8
7FD818
0C1818
0C1818
0C1FF8
0C0600
0CC600
FFEC06
1C0FFF
181806
1839C6
185986
121B06
311AE6
219C66
26D806
F8DFE6
60180C
40007C
000018
ENDCHAR
STARTCHAR uni6712
ENCODING 26386
SWIDTH 1000 0
DWIDTH 24 0
BBX 24 24 0 -2
BITMAP
2301C0
3F8180
330180
332186
333FFF
333186
333186
3F3186
333366
333236
333436
333806
3331C6
3F3186
333186
333366
333236
333436
333806
233006
233006
633006
4F303E
86300C
ENDCHAR
STARTCHAR uni6719
ENCODING 26393
SWIDTH 1000 0
DWIDTH 24 0
BBX 23 24 1 -2
BITMAP
00040C
8067FE
FFF60C
DB660C
DB660C
DB660C
DB660C
DBE7FC
D1E60C
E0660C
C0660C
D3660C
DF660C
DB67FC
DB660C
DB660C
DB660C
FFE40C
C06C0C
C0080C
00180C
00300C
00607C
018018
ENDCHAR
STARTCHAR uni674C
ENCODING 26444
SWIDTH 1000 0
DWIDTH 24 0
BBX 24 24 0 -2
BITMAP
0E0000
0C000C
0C7FFE
0C0C60
0C0C60
0D8C60
FFCC60
0C0C60
0C0C60
1C0C60
1E0C60
1D0C60
3D8C60
2D8C60
2C0C60
4C0C60
4C0C60
8C1860
0C1862
0C3062
0C3063
0C607F
0CC03E
0D0000
ENDCHAR
STARTCHAR uni674D
ENCODING 26445
SWIDTH 1000 0
DWIDTH 24 0
BBX 24 24 0 -2
BITMAP
0E0000
0C000C
0C1FFE
0C000C
0C0018
0D8010
FFC0A0
0C00C0
0C00C0
1C00C0
1E00C6
1D3FFF
3D80C0
2D80C0
2C00C0
4C00C0
4C00C0
8C00C0
0C00C0
0C00C0
0C00C0
0C00C0
0C07C0
0C0180
ENDCHAR
STARTCHAR uni6754
ENCODING 26452
SWIDTH 1000 0
DWIDTH 24 0
BBX 24 24 0 -2
BITMAP
0E0018
0C007C
0C03E0
0C3F00
0C0300
0D8300
FFC300
0C0300
0C0300
1C0300
1E0306
1D3FFF
3D8300
2D8300
2C0300
4C0300
4C0300
8C0300
0C0302
0C0302
0C0302
0C0303
0C03FF
0C01FE
ENDCHAR
STARTCHAR uni675D
ENCODING 26461
SWIDTH 1000 0
DWIDTH 24 0
BBX 24 24 0 -2
BITMAP
1C01C0
180180
183980
183180
183180
1B318C
FFB19E
1831EC
18338C
383D8C
3CF18C
3A318C
7B318C
5B318C
58318C
9831BC
983198
183180
183180
183002
183002
183003
183FFF
181FFE
ENDCHAR
STARTCHAR uni6774
ENCODING 26484
SWIDTH 1000 0
DWIDTH 24 0
BBX 24 24 0 -2
BITMAP
0E0800
0C0E00
0C0C00
0C0C00
0C0C0C
0D9FFE
FFDB0C
0C1318
0C3310
1C2320
1E4300
1D0300
3D8300
2D8680
2C0680
4C0680
4C0C40
8C0C40
0C1820
0C1830
0C3018
0C601F
0CC00E
0D0006
ENDCHAR
STARTCHAR uni6776
ENCODING 26486
SWIDTH 1000 0
DWIDTH 24 0
BBX 24 24 0 -2
BITMAP
0E01C0
0C0180
0C0186
0C019F
0C01F0
0D7F80
FF8180
0C0180
0C398E
1C318C
1E318C
1D318C
3DB18C
2DB18C
2C318C
4C3FFC
4C318C
8C3180
0C0182
0C0182
0C0182
0C0183
0C01FF
0C00FE
ENDCHAR
STARTCHAR uni6792
ENCODING 26514
SWIDTH 1000 0
DWIDTH 24 0
BBX 24 24 0 -2
BITMAP
0E0000
0C100C
0C1FFE
0C1860
0C1860
0D9860
FFD860
0C1860
0C1860
1C1866
1E7FFF
1D01E0
3D81E0
2D8360
2C0360
4C0660
4C0660
8C0C60
0C0860
0C1060
0C2060
0C4060
0C83E0
0C00C0
ENDCHAR
STARTCHAR uni67B0
ENCODING 26544
SWIDTH 1000 0
DWIDTH 24 0
BBX 24 24 0 -2
BITMAP
1C0000
18000C
183FFE
180180
180180
1B1180
FF9D90
181988
18198C
383186
3C2186
3A4180
7B0180
5B0186
587FFF
980180
980180
180180
180180
180180
180180
180180
180180
180180
ENDCHAR
STARTCHAR uni67B2
ENCODING 26546
SWIDTH 1000 0
DWIDTH 24 0
BBX 24 24 0 -2
BITMAP
004000
007000
006080
004060
008030
3FFFD8
1FC01C
10000C
040060
07FFF0
060060
060060
060060
07FFE0
060060
001800
001806
FFFFFF
003C00
007B00
01D9C0
0718F0
1C183F
E0180E
ENDCHAR
STARTCHAR uni67C3
ENCODING 26563
SWIDTH 1000 0
DWIDTH 24 0
BBX 24 24 0 -2
BITMAP
1C0300
180300
180680
180680
180C40
1B0C60
FF9838
18101F
1820CE
385FE6
3C8000
3A0000
7B0018
5B7FFC
580618
980618
980618
180618
180618
180618
1806F8
180630
180600
180600
ENDCHAR
STARTCHAR uni67C8
ENCODING 26568
SWIDTH 1000 0
DWIDTH 24 0
BBX 24 24 0 -2
BITMAP
1C01C0
181180
181D90
18198C
181986
1B3187
FFB183
182183
186198
385FFC
3C8180
3A0180
7B0180
5B0180
58018C
987FFE
980180
180180
180180
180180
180180
180180
180180
180180
ENDCHAR
STARTCHAR uni67D2
ENCODING 26578
SWIDTH 1000 0
DWIDTH 24 0
BBX 24 24 0 -2
BITMAP
080E00
060C06
030C1F
430CF0
300F80
187C00
190C02
020C02
0C0C03
780FFF
1807FE
180000
1C1C00
0C1800
001806
FFFFFF
007A00
00D900
0198C0
031870
0C183F
30181E
C01806
001800
ENDCHAR
STARTCHAR uni67D9
ENCODING 26585
SWIDTH 1000 0
DWIDTH 24 0
BBX 24 24 0 -2
BITMAP
0E0000
0C1006
0C1FFF
0C18C6
0C18C6
0D98C6
FFD8C6
0C18C6
0C1FFE
1C18C6
1E18C6
1D18C6
3D98C6
2D98C6
2C1FFE
4C18C6
4C18C6
8C00C0
0C00C0
0C00C0
0C00C0
0C00C0
0C00C0
0C00C0
ENDCHAR
STARTCHAR uni67DB
ENCODING 26587
SWIDTH 1000 0
DWIDTH 24 0
BBX 24 24 0 -2
BITMAP
0E00E0
0C00C0
0C00C0
0C00C0
0C10C6
0D9FFF
FFD8C6
0C18C6
0C18C6
1C18C6
1E1FFE
1D18C6
3D98C6
2D98C6
2C18C6
4C1FFE
4C18C6
8C18C6
0C00C0
0C00C0
0C00C0
0C00C0
0C00C0
0C00C0
ENDCHAR
STARTCHAR uni67F0
ENCODING 26608
SWIDTH 1000 0
DWIDTH 24 0
BBX 24 24 0 -2
BITMAP
001C00
001800
001800
001806
FFFFFF
007C00
00FB00
01D9C0
0398F8
06183F
0C180E
3000C2
C7FFE0
000000
000006
FFFFFF
001800
039980
031860
061830
0C1818
18181C
60F80C
003000
ENDCHAR
STARTCHAR uni67F7
ENCODING 26615
SWIDTH 1000 0
DWIDTH 24 0
BBX 24 24 0 -2
BITMAP
0E0000
0C100C
0C1FFE
0C180C
0C180C
0D980C
FFD80C
0C180C
0C180C
1C180C
1E1FFC
1D006C
3D8760
2D8660
2C0660
4C0660
4C0660
8C0C60
0C0C62
0C0862
0C1862
0C1063
0C207F
0CC03E
ENDCHAR
STARTCHAR uni6810
ENCODING 26640
SWIDTH 1000 0
DWIDTH 24 0
BBX 24 24 0 -2
BITMAP
1C0C00
180380
1800E0
180060
180000
1B0180
FF9FC0
180184
180187
380186
3C0DCC
3A7FC8
7B0DD0
5B0DA0
5819A0
9819B0
981190
183198
18218C
18618F
184186
188182
180F80
180300
ENDCHAR
STARTCHAR uni6818
ENCODING 26648
SWIDTH 1000 0
DWIDTH 24 0
BBX 24 24 0 -2
BITMAP
0E0200
0C0380
0C030C
0C07FE
0C0C1C
0D1838
FFB470
0C42E0
0C0180
1C0300
1E0C80
1D30C0
3D8186
2D83FF
2C060E
4C0C1C
4C1A18
8C6130
0C0160
0C00C0
0C0180
0C0600
0C1800
0CE000
ENDCHAR
STARTCHAR uni681F
ENCODING 26655
SWIDTH 1000 0
DWIDTH 24 0
BBX 24 24 0 -2
BITMAP
1C1010
18081C
180C18
180630
180620
1B004C
FFBFFE
180C30
180C30
380C30
3C0C30
3A0C30
7B0C36
5B7FFF
580C30
980C30
980C30
180C30
180C30
181830
181830
183030
186030
198030
ENDCHAR
STARTCHAR uni682D
ENCODING 26669
SWIDTH 1000 0
DWIDTH 24 0
BBX 24 24 0 -2
BITMAP
1C0000
180006
18FFFF
180380
180300
1A0300
FF4206
187FFF
186666
386666
3C6666
3A6666
7B6666
5B6666
586666
986666
986666
186666
186666
186666
186666
186666
18601E
18600C
ENDCHAR
STARTCHAR uni6833
ENCODING 26675
SWIDTH 1000 0
DWIDTH 24 0
BBX 24 24 0 -2
BITMAP
1C0700
180608
18060E
18061C
187FF8
1B0618
FF8630
180660
1806C6
38FFFF
3C0300
3A0600
7B0C00
5B1818
58387C
9859E0
989F00
1B1800
181800
181804
181804
181806
181FFE
180FFC
ENDCHAR
STARTCHAR uni683B
ENCODING 26683
SWIDTH 1000 0
DWIDTH 24 0
BBX 24 24 0 -2
BITMAP
1C00E8
1800C4
1800C6
1800C6
1800C0
1A00C6
FF7FFF
1800C0
1800C0
3800C0
3C00C0
3A06C0
7B7F60
5B1860
581860
981860
981830
181832
181932
181E1A
18F81A
18700F
18400F
180006
ENDCHAR
STARTCHAR uni683E
ENCODING 26686
SWIDTH 1000 0
DWIDTH 24 0
BBX 24 24 0 -2
BITMAP
001C00
001800
001806
FFFFFF
006300
086300
0E6320
0C6318
18630C
10C306
20C306
419F00
030600
041800
001800
001806
FFFFFF
007A00
00D900
0198C0
031870
0C183F
30181E
C01806
ENDCHAR
STARTCHAR uni6844
ENCODING 26692
SWIDTH 1000 0
DWIDTH 24 0
BBX 24 24 0 -2
BITMAP
1C0380
180308
18430E
18230C
183318
1B3318
FF9B30
181B20
180340
380306
3CFFFF
3A0C60
7B0C60
5B0C60
580C60
980C60
980C60
181860
181862
181062
183062
182063
18407F
18803E
ENDCHAR
STARTCHAR uni6845
ENCODING 26693
SWIDTH 1000 0
DWIDTH 24 0
BBX 24 24 0 -2
BITMAP
0E0800
0C0E00
0C0C30
0C0FF8
0C1860
0D10C0
FFB080
0C2106
0C7FFF
1CB000
1E3000
1D3218
3DB3FC
2DB318
2C3318
4C3318
4C3318
8C3378
0C3330
0C2302
0C2302
0C4303
0C43FF
0C81FE
ENDCHAR
STARTCHAR uni6849
ENCODING 26697
SWIDTH 1000 0
DWIDTH 24 0
BBX 24 24 0 -2
BITMAP
1C01C0
180180
180180
182186
183FFF
1A6006
FF6004
180208
180380
380300
3C0306
3A7FFF
7B0618
5B0618
580618
980C30
980C30
181B60
1818E0
1800C0
1801B0
18031C
180C0E
187006
ENDCHAR
STARTCHAR uni684C
ENCODING 26700
SWIDTH 1000 0
DWIDTH 24 0
BBX 24 24 0 -2
BITMAP
001800
001830
001FF8
001800
081830
0FFFF8
0C0030
0C0030
0FFFF0
0C0030
0C0030
0FFFF0
0C1830
001800
001806
FFFFFF
007A00
00D900
0198C0
031870
0C183F
30181E
C01806
001800
ENDCHAR
STARTCHAR uni6855
ENCODING 26709
SWIDTH 1000 0
DWIDTH 24 0
BBX 24 24 0 -2
BITMAP
0E0000
0C0100
0C0380
0C2606
0C387F
0D3006
FFB006
0C3006
0C3006
1C3006
1E3006
1D3206
3DBF7E
2DB006
2C3006
4C3006
4C3006
8C3006
0C3006
0C3006
0C3006
0C3FFE
0C3006
0C3006
ENDCHAR
STARTCHAR uni6857
ENCODING 26711
SWIDTH 1000 0
DWIDTH 24 0
BBX 24 24 0 -2
BITMAP
0E0030
0C3FF8
0C0630
0C0630
0C0636
0D867F
FFC666
0C0406
0C0C06
1C0806
1E103E
1D200C
3D81C0
2D8186
2C7FFF
4C03A0
4C07A0
8C0590
0C0D98
0C098F
0C118E
0C2186
0C4180
0C0180
ENDCHAR
STARTCHAR uni686B
ENCODING 26731
SWIDTH 1000 0
DWIDTH 24 0
BBX 24 24 0 -2
BITMAP
1C0070
180060
18C060
186060
186270
1A03E8
FF036C
180366
198266
38D263
3CD663
3A1463
7B2464
5B2867
5821E6
98604E
98400C
19C01C
18C018
186030
186060
1860C0
186100
186600
ENDCHAR
STARTCHAR uni686E
ENCODING 26734
SWIDTH 1000 0
DWIDTH 24 0
BBX 24 24 0 -2
BITMAP
0E0000
0C0006
0C7FFF
0C00C0
0C0180
0D8180
FFC3B0
0C078C
0C0D86
1C1983
1E6183
1D0180
3D8180
2D8180
2C2006
4C3FFF
4C3006
8C3006
0C3006
0C3006
0C3006
0C3FFE
0C3006
0C3006
ENDCHAR
STARTCHAR uni687A
ENCODING 26746
SWIDTH 1000 0
DWIDTH 24 0
BBX 24 24 0 -2
BITMAP
1C0000
180006
18FFFF
180660
180660
1A0660
FF4666
187E7F
186666
386666
3C6666
3A6666
7B6666
5B6666
587E7E
986666
986666
180660
180660
180C60
180C60
181860
183060
18C060
ENDCHAR
STARTCHAR uni687C
ENCODING 26748
SWIDTH 1000 0
DWIDTH 24 0
BBX 24 24 0 -2
BITMAP
001C00
001800
001806
FFFFFF
00FA00
01D980
0718F0
1C183F
E03C0E
007600
00E300
0181E0
071C7F
1C189E
E318C6
019980
019900
003E00
00DB80
0798E0
7E1838
38181C
20F80C
003000
ENDCHAR
STARTCHAR uni6882
ENCODING 26754
SWIDTH 1000 0
DWIDTH 24 0
BBX 24 24 0 -2
BITMAP
0E01D8
0C018C
0C018C
0C0180
0C0186
0D7FFF
FF8180
0C0180
0C2188
1C118E
1E19CC
1D19C8
3D99D0
2D81A0
2C01A0
4C05A0
4C0990
8C1998
0C319C
0C718F
0CE18E
0C2186
0C0F80
0C0300
ENDCHAR
STARTCHAR uni6890
ENCODING 26768
SWIDTH 1000 0
DWIDTH 24 0
BBX 24 24 0 -2
BITMAP
1C38E0
1830C0
1830C0
1830C4
1834CE
1A3ED8
FF30E0
1830C2
1830C2
3830C3
3CFCFF
3A707E
7B4000
5B0380
580300
980300
980318
187FFC
180300
180300
180300
180306
19FFFF
180000
ENDCHAR
STARTCHAR uni6896
ENCODING 26774
SWIDTH 1000 0
DWIDTH 24 0
BBX 24 24 0 -2
BITMAP
0E100C
0C1FFE
0C180C
0C180C
0C180C
0D980C
FFDFFC
0C180C
0C180C
1C180C
1E180C
1D1FFC
3D980C
2D980C
2C180C
4C180C
4C180C
8C1FFC
0C0800
0C0E30
0C0C0C
0C1806
0C3007
0CC003
ENDCHAR
STARTCHAR uni6898
ENCODING 26776
SWIDTH 1000 0
DWIDTH 24 0
BBX 24 24 0 -2
BITMAP
1C0000
182018
183FFC
183018
183018
1B3018
FFBFF8
183018
183018
383018
3C3FF8
3A3018
7B3018
5B3018
583FF8
9808D8
980EC0
180CC0
181CC2
1818C2
1830C2
1860C3
18C0FF
1B007E
ENDCHAR
STARTCHAR uni6899
ENCODING 26777
SWIDTH 1000 0
DWIDTH 24 0
BBX 24 24 0 -2
BITMAP
1C01C0
180180
180180
18218C
183FFE
1B318C
FFB18C
18318C
18318C
383FFC
3C0180
3A0180
7B4186
5B7FFF
586186
986186
986186
186186
187FFE
186186
180180
180180
180180
180180
ENDCHAR
STARTCHAR uni689A
ENCODING 26778
SWIDTH 1000 0
DWIDTH 24 0
BBX 24 24 0 -2
BITMAP
0E0800
0C0E00
0C0C60
0C0FF0
0C1860
0D10C0
FFA080
0C410C
0CBFFE
1C318C
1E318C
1D318C
3DB18C
2DB30C
2C3FFC
4C336C
4C0660
8C0660
0C0C60
0C0C62
0C1862
0C3063
0C607F
0D803E
ENDCHAR
STARTCHAR uni689C
ENCODING 26780
SWIDTH 1000 0
DWIDTH 24 0
BBX 24 24 0 -2
BITMAP
1C01C0
180180
180180
180186
187FFF
1B0180
FF8180
182190
18399C
383198
3C3198
3A3994
7B2DB2
5B6DA3
5843C3
988340
980340
180660
180620
180C30
181818
18301F
18600E
198006
ENDCHAR
STARTCHAR uni68AA
ENCODING 26794
SWIDTH 1000 0
DWIDTH 24 0
BBX 24 24 0 -2
BITMAP
0E0000
0C0006
0C7FFF
0C0000
0C0000
0D900C
FFDFFE
0C180C
0C180C
1C180C
1E180C
1D180C
3D9FFC
2D980C
2C0000
4C1010
4C081C
8C0C18
0C0618
0C0630
0C0620
0C0046
0CFFFF
0C0000
ENDCHAR
STARTCHAR uni68AB
ENCODING 26795
SWIDTH 1000 0
DWIDTH 24 0
BBX 24 24 0 -2
BITMAP
1C0018
181FFC
180018
18001A
187FFF
1B0018
FF8018
181FF8
180000
382006
3C3FFF
3A6006
7B6004
5B0018
583FFC
980818
980830
180460
1806C0
180380
1806E0
180C7F
18301E
18C006
ENDCHAR
STARTCHAR uni68B4
ENCODING 26804
SWIDTH 1000 0
DWIDTH 24 0
BBX 24 24 0 -2
BITMAP
1C000C
18183E
18FDF0
181830
181030
1B3030
FFB1B0
1821B0
1861B2
384DBF
3C7DB0
3A4DB0
7B0DB0
5B0DB0
580DB0
9829B0
9829B0
1868FF
18D07F
189000
182C00
1827FF
1843FE
198000
ENDCHAR
STARTCHAR uni68BB
ENCODING 26811
SWIDTH 1000 0
DWIDTH 24 0
BBX 24 24 0 -2
BITMAP
182120
103120
102120
102124
106FFE
144124
FEC124
10C924
114FFC
124924
384920
344920
364926
525FFF
505926
905926
904326
104226
104224
10463C
104628
104C20
104820
105020
ENDCHAR
STARTCHAR uni68C3
ENCODING 26819
SWIDTH 1000 0
DWIDTH 24 0
BBX 24 24 0 -2
BITMAP
00C200
07E380
7E0300
060306
0663FF
FFF666
0E0466
1F08C6
1EC0C6
36618E
66630C
86047C
060018
001800
001806
FFFFFF
007A00
00D900
0198C0
031870
0C183F
30181E
C01806
001800
ENDCHAR
STARTCHAR uni68C5
ENCODING 26821
SWIDTH 1000 0
DWIDTH 24 0
BBX 24 24 0 -2
BITMAP
1C0030
1803F8
183F00
180300
18030C
1B7FFE
FF8300
180318
183FFC
380318
3C031A
3AFFFF
7B0318
5B0318
583FF8
980798
980780
180F40
181B60
183338
18631F
18C30E
1B0302
180300
ENDCHAR
STARTCHAR uni68CC
ENCODING 26828
SWIDTH 1000 0
DWIDTH 24 0
BBX 24 24 0 -2
BITMAP
1C0018
1810FC
181F80
181800
181908
1B1884
FFB0C6
1830C6
1820C6
384000
3C01C0
3A0180
7B0186
5B7FFF
5803C0
9807A0
9807A0
180D90
180D98
18198C
18318F
186186
198182
180180
ENDCHAR
STARTCHAR uni68CF
ENCODING 26831
SWIDTH 1000 0
DWIDTH 24 0
BBX 24 24 0 -2
BITMAP
0E1030
0C1FF8
0C1830
0C1830
0C1FF0
0D9830
FFD830
0C1830
0C1FF0
1C0000
1E0006
1D7FFF
3D8000
2D8030
2C0032
4CFFFF
4C0030
8C1030
0C0C30
0C0630
0C0630
0C0030
0C01F0
0C0060
ENDCHAR
STARTCHAR uni68D6
ENCODING 26838
SWIDTH 1000 0
DWIDTH 24 0
BBX 24 24 0 -2
BITMAP
0E1018
0C1FFC
0C1800
0C1800
0C1830
0D9FF8
FFD800
0C1800
0C1830
1C1FF8
1C1800
1E1800
3D1806
2DFFFF
2D9908
4C190C
4C1888
8C1890
0C1840
0C1860
0C1B30
0CFC3E
0C701C
0C400C
ENDCHAR
STARTCHAR uni68D9
ENCODING 26841
SWIDTH 1000 0
DWIDTH 24 0
BBX 24 24 0 -2
BITMAP
1C0018
18003C
1843C0
187C00
186006
1A7FFF
FF6006
186006
186006
387FFE
3C6006
3A61B0
7B6198
5B6182
587FFF
986180
9861C0
18C340
18C320
188630
198C18
19181C
1A300F
18C006
ENDCHAR
STARTCHAR uni68E4
ENCODING 26852
SWIDTH 1000 0
DWIDTH 24 0
BBX 24 24 0 -2
BITMAP
1C0E70
180C60
180C60
180C6C
187FFE
1B0C60
FF8C60
180C60
180C60
380C66
3CFFFF
3A0000
7B2018
5B3FFC
583018
983018
983018
183FF8
183018
183018
183018
183FF8
183018
183018
ENDCHAR
STARTCHAR uni68E5
ENCODING 26853
SWIDTH 1000 0
DWIDTH 24 0
BBX 24 24 0 -2
BITMAP
1C0070
180860
184C60
182860
183860
1B1066
FFBBFF
182860
186C70
384CF0
3C80F0
3A08F8
7B0DE8
5B4D6C
58296C
983A66
981267
183C63
182862
186C60
184C60
188060
190060
180060
ENDCHAR
STARTCHAR uni68EC
ENCODING 26860
SWIDTH 1000 0
DWIDTH 24 0
BBX 24 24 0 -2
BITMAP
0E1200
0C1FB0
0C3B0C
0C3306
0C6303
0D431B
FFBFFC
0C0680
0C0680
1C0C46
1E7FFF
1D0820
3D9830
2D9018
2C3FFF
4C586E
4C9866
8C1860
0C1BE0
0C18C8
0C1808
0C180C
0C1FFC
0C0FF8
ENDCHAR
STARTCHAR uni68F7
ENCODING 26871
SWIDTH 1000 0
DWIDTH 24 0
BBX 24 24 0 -2
BITMAP
1C000C
19FFFE
184600
184600
18460C
1A47FE
FF7E8C
18468C
18468C
38468C
3C465C
3A4658
7B7E58
5B4678
584630
984630
984630
184638
1BFE68
19E64C
19068F
180706
180606
180600
ENDCHAR
STARTCHAR uni68FB
ENCODING 26875
SWIDTH 1000 0
DWIDTH 24 0
BBX 24 24 0 -2
BITMAP
018180
018186
FFFFFF
018180
018180
000040
03FFE0
010040
030020
07FFF8
0C60DF
3060C6
C0C0C0
0301C0
0C0F80
700300
001C00
001806
FFFFFF
01D900
0398C0
061870
18183F
E0180E
ENDCHAR
STARTCHAR uni6903
ENCODING 26883
SWIDTH 1000 0
DWIDTH 24 0
BBX 24 24 0 -2
BITMAP
1C0380
180318
1803FC
180300
184306
1A7FFF
FF6006
186384
186308
3863E0
3C7F04
3A6306
7B63FE
5B61FC
586000
986400
986770
18C660
18C660
188662
198C62
190C63
1A187F
18603E
ENDCHAR
STARTCHAR uni6907
ENCODING 26887
SWIDTH 1000 0
DWIDTH 24 0
BBX 24 24 0 -2
BITMAP
1C2018
183FFC
183018
183018
183018
1B3FF8
FFB018
183018
183018
383FF8
3C3018
3A3018
7B3018
5B3FF8
583018
983018
98301A
18FFFF
180000
181040
181C30
183818
18601C
18800C
ENDCHAR
STARTCHAR uni693B
ENCODING 26939
SWIDTH 1000 0
DWIDTH 24 0
BBX 24 24 0 -2
BITMAP
1C4006
187FFF
186000
1867F8
186618
1A6618
FF67F8
186618
186618
3867F8
3C6180
3A6186
7B7FFF
5B6318
586318
9866B0
986660
1860D8
18618C
186E0C
186000
186006
187FFF
186000
ENDCHAR
STARTCHAR uni6946
ENCODING 26950
SWIDTH 1000 0
DWIDTH 24 0
BBX 24 24 0 -2
BITMAP
1C0006
18FFFF
180660
180660
184666
1A7FFF
FF6666
186666
186666
386666
3C7FFE
3A6006
7B0700
5B0606
58FFFF
980C30
981830
181860
183760
1831C0
1801B0
18031C
180C0E
187006
ENDCHAR
STARTCHAR uni6969
ENCODING 26985
SWIDTH 1000 0
DWIDTH 24 0
BBX 24 24 0 -2
BITMAP
1C2006
183BFF
183060
183060
186466
1A67FF
FF6666
18E666
18E666
3967FE
3C6666
3A6666
7B6666
5B67FE
586666
986060
986260
186240
186540
1865C0
1860E0
1860BF
18611E
18660C
ENDCHAR
STARTCHAR uni696C
ENCODING 26988
SWIDTH 1000 0
DWIDTH 24 0
BBX 24 24 0 -2
BITMAP
1C2018
183FFC
183018
183018
183FF8
1B3018
FFB018
183FF8
183418
380700
3C0E00
3A0C06
7B1FFF
5B3006
5861C6
98B186
993306
1836E6
183466
183006
183FEE
18300C
18007C
180018
ENDCHAR
STARTCHAR uni6972
ENCODING 26994
SWIDTH 1000 0
DWIDTH 24 0
BBX 24 24 0 -2
BITMAP
1C0074
180066
180066
180060
184066
1A7FFF
FF6060
186060
186060
387FE4
3C6467
3A6466
7B6466
5B7FEC
58652C
986938
986910
186F3A
18422A
18456A
18D94E
188086
188107
190603
ENDCHAR
STARTCHAR uni697A
ENCODING 27002
SWIDTH 1000 0
DWIDTH 24 0
BBX 24 24 0 -2
BITMAP
1C000C
181FFE
180018
180230
1801C0
1A00C6
FF7FFF
1803C6
1806C4
3806C8
3C0CC0
3A18C0
7B63C0
5B0180
580186
98FFFF
9807C0
1807A0
180DB0
180D98
18199C
18318F
18C186
180180
ENDCHAR
STARTCHAR uni697F
ENCODING 27007
SWIDTH 1000 0
DWIDTH 24 0
BBX 24 24 0 -2
BITMAP
0E0030
0C0078
0C03E0
0C3F80
0C0180
0D0180
FF8182
0C7FFF
0C03C0
1C07A0
1E07B0
1D0D9C
3D998F
2DB006
2C5FFA
4C9818
4C1818
8C1818
0C1FF8
0C1818
0C1818
0C1818
0C1FF8
0C1818
ENDCHAR
STARTCHAR uni6992
ENCODING 27026
SWIDTH 1000 0
DWIDTH 24 0
BBX 24 24 0 -2
BITMAP
1C0606
18FF7F
180606
180606
180606
1A4646
FF7E7E
186060
186060
386666
3C7F7F
3A1616
7B3E3E
5B3636
586666
98CECE
991E1E
183E3E
186666
188686
180E0E
180C0C
187C7C
181818
ENDCHAR
STARTCHAR uni6996
ENCODING 27030
SWIDTH 1000 0
DWIDTH 24 0
BBX 24 24 0 -2
BITMAP
070230
0603F8
063330
FFFB30
060330
060330
7FF331
000231
40363F
7FFC1E
C03000
C0200C
3FCFFE
00020C
060218
066118
FFF1B0
0E00E0
1F0040
1680E0
36C1B8
66C31F
86060E
061806
ENDCHAR
STARTCHAR uni6998
ENCODING 27032
SWIDTH 1000 0
DWIDTH 24 0
BBX 24 24 0 -2
BITMAP
100006
1C1FFF
188C00
3FCC00
260FFC
460C0C
064C0C
FFEC0C
060FFC
060C0C
0D8C00
18CC06
20DFFF
C00000
001800
001806
FFFFFF
007A00
00D900
0198C0
031870
0C183F
30181E
C01806
ENDCHAR
STARTCHAR uni69A6
ENCODING 27046
SWIDTH 1000 0
DWIDTH 24 0
BBX 24 24 0 -2
BITMAP
0E00C0
0C00C0
0C60C0
FFF1A0
0C01A0
4CC310
7FE318
60C60C
60C40F
60C8C6
7FD0C0
60C0C6
60DFFF
60C0C0
7FC1E0
6CC1E0
0C03F0
0C63D0
FFF6D8
0C06CC
0C0CCE
0C18C7
0C60C2
0C00C0
ENDCHAR
STARTCHAR uni69B0
ENCODING 27056
SWIDTH 1000 0
DWIDTH 24 0
BBX 24 24 0 -2
BITMAP
0E0704
0C0607
0C060E
0C3FEC
0C0618
0D8632
FFFFFF
0C01C0
0C0308
1E061C
1D0E70
1D9F84
3DB606
2C67FE
2D83FC
4C0000
4C1FFC
8C180C
0C180C
0C1FFC
0C180C
0C180C
0C1FFC
0C180C
ENDCHAR
STARTCHAR uni69B7
ENCODING 27063
SWIDTH 1000 0
DWIDTH 24 0
BBX 24 24 0 -2
BITMAP
1C0200
182380
182306
183FFF
186606
1AE604
FFCC48
180CE0
1818C0
3C1184
3A3FFE
3B30C0
7B70C0
5870C4
58BFFE
9830C0
9830C0
1830C4
183FFE
1830C0
1830C0
1830C6
183FFF
183000
ENDCHAR
STARTCHAR uni69BA
ENCODING 27066
SWIDTH 1000 0
DWIDTH 24 0
BBX 24 24 0 -2
BITMAP
000380
231320
3F9F18
331B0E
333307
33231B
335FFC
3B8640
3F0640
370C26
33FFFF
330810
331818
3B318E
3F6187
379FFA
330180
3303C0
2307A0
2305B0
63099C
43118F
4F6186
860180
ENDCHAR
STARTCHAR uni69BC
ENCODING 27068
SWIDTH 1000 0
DWIDTH 24 0
BBX 24 24 0 -2
BITMAP
1C0380
180300
180318
187FFC
180300
1A0300
FF0306
18FFFF
180C00
380820
3C1810
3A1018
7B7FFC
5B7C0C
58400C
980000
987FF8
186498
186498
186498
186498
18649A
19FFFF
180000
ENDCHAR
STARTCHAR uni69C0
ENCODING 27072
SWIDTH 1000 0
DWIDTH 24 0
BBX 24 24 0 -2
BITMAP
001C00
00180C
7FFFFE
000000
03FFC0
020040
03FFC0
20000C
3FFFFE
30000C
31FF8C
31008C
31FF8C
30003C
001C18
001800
001806
FFFFFF
007C00
00DB00
0199C0
0618F8
18183F
E0180E
ENDCHAR
STARTCHAR uni69D1
ENCODING 27089
SWIDTH 1000 0
DWIDTH 24 0
BBX 24 24 0 -2
BITMAP
20640C
3FF7FE
30660C
30660C
30660C
30660C
30660C
30660C
3FE7FC
30660C
0700E0
0600C0
0640C6
7FEFFF
0600C0
0E01E0
0F01E0
1EC3D0
1662D8
3666CC
2604CF
4608C6
8610C0
0600C0
ENDCHAR
STARTCHAR uni69D6
ENCODING 27094
SWIDTH 1000 0
DWIDTH 24 0
BBX 24 24 0 -2
BITMAP
001800
001806
FFFFFF
001800
0FFFF0
200002
3FFFFF
600006
CFFFE4
C1C008
03FFE0
0F0060
730060
03FFE0
031860
001806
FFFFFF
007C00
00DB00
0199C0
0618F8
18183F
E0180E
001800
ENDCHAR
STARTCHAR uni69E3
ENCODING 27107
SWIDTH 1000 0
DWIDTH 24 0
BBX 24 24 0 -2
BITMAP
1C0180
182186
183FFF
186006
186384
1A0330
FF3FF8
180300
180380
380660
3C0C30
3A3030
7B0006
5B7FFF
580018
981198
981F98
181998
181998
181F98
180018
180018
1800F8
180030
ENDCHAR
ENDFONT
